<svg xmlns="http://www.w3.org/2000/svg" viewBox="0 0 2048 982"><filter id="b"><feGaussianBlur stdDeviation="12" /></filter><path d="M0 0h2048v982H0z" fill="#a0947f" /><g filter="url(#b)" transform="scale(8.000000) translate(0.5 0.5)"><ellipse fill="#eee0c4" fill-opacity=".501961" cx="148" cy="59" rx="66" ry="49" /><g transform="translate(7.399049 81.208686) rotate(358.301096) scale(28.763601 164.576519)"><ellipse fill="#39281a" fill-opacity=".501961" cx="0" cy="0" rx="1" ry="1" /></g><g transform="translate(34 114) rotate(272) scale(11 66)"><path d="M0 0h2048v982H0z" fill="#000" /></g><ellipse fill="#684720" fill-opacity=".501961" cx="68" cy="2" rx="255" ry="11" /><ellipse fill="#213953" fill-opacity=".501961" cx="166" cy="114" rx="156" ry="6" /><g transform="translate(168.193798 50.584973) rotate(98.391442) scale(32.602123 12.638492)"><ellipse fill="#68826c" fill-opacity=".501961" cx="0" cy="0" rx="1" ry="1" /></g><g transform="translate(123.179199 41.126569) rotate(421.889601) scale(36.463527 27.037753)"><ellipse fill="#fecfb0" fill-opacity=".501961" cx="0" cy="0" rx="1" ry="1" /></g><ellipse fill="#c4e4f0" fill-opacity=".501961" cx="189" cy="90" rx="30" ry="16" /></g></svg>