<svg xmlns="http://www.w3.org/2000/svg" viewBox="0 0 2048 1638"><filter id="b"><feGaussianBlur stdDeviation="12" /></filter><path d="M0 0h2048v1638H0z" fill="#595740" /><g filter="url(#b)" transform="scale(8.000000) translate(0.5 0.5)"><g transform="translate(158.082437 32.203875) rotate(6.148056) scale(116.871998 42.621606)"><ellipse fill="#a28a56" fill-opacity=".501961" cx="0" cy="0" rx="1" ry="1" /></g><ellipse fill="#1a2d2a" fill-opacity=".501961" cx="226" cy="159" rx="131" ry="82" /><g transform="translate(24.060754 165.072477) rotate(67.953868) scale(59.319748 38.529613)"><ellipse fill="#92908b" fill-opacity=".501961" cx="0" cy="0" rx="1" ry="1" /></g><g transform="translate(28.762959 71.639000) rotate(-62.689276) scale(21.739505 52.768343)"><ellipse fill="#191614" fill-opacity=".501961" cx="0" cy="0" rx="1" ry="1" /></g><path fill="#031009" fill-opacity=".501961" d="M92.325578 47.703765 99.403483 45.210717 161.743287 29.967878 120.079766 61.864978z" /><g transform="translate(52.897402 109.978192) rotate(178.409856) scale(29.012940 8.350958)"><ellipse fill="#bdaa13" fill-opacity=".501961" cx="0" cy="0" rx="1" ry="1" /></g><g transform="translate(33.254646 30.936480) rotate(73.349016) scale(7.022047 65.764661)"><ellipse fill="#c89e89" fill-opacity=".501961" cx="0" cy="0" rx="1" ry="1" /></g><g transform="translate(191.559087 85.172826) rotate(172.620435) scale(53.986614 23.515811)"><ellipse fill="#567d11" fill-opacity=".501961" cx="0" cy="0" rx="1" ry="1" /></g></g></svg>