<svg xmlns="http://www.w3.org/2000/svg" viewBox="0 0 1364 2048"><filter id="b"><feGaussianBlur stdDeviation="12" /></filter><path d="M0 0h1364v2048H0z" fill="#2f546e" /><g filter="url(#b)" transform="scale(8.000000) translate(0.5 0.5)"><g transform="translate(92.333804 42.835754) rotate(101.068790) scale(58.637418 169.000000)"><ellipse fill="#33b4ff" fill-opacity=".501961" cx="0" cy="0" rx="1" ry="1" /></g><g transform="translate(52.670142 201.486874) rotate(114.825354) scale(81.026226 119.032995)"><ellipse fill="#230000" fill-opacity=".501961" cx="0" cy="0" rx="1" ry="1" /></g><g transform="translate(121.076670 84.269759) rotate(58.493927) scale(50.943611 28.359098)"><ellipse fill="#f2b390" fill-opacity=".501961" cx="0" cy="0" rx="1" ry="1" /></g><g transform="translate(169.000000 126.698267) rotate(431.108290) scale(20.611363 58.973608)"><ellipse fill="#b15901" fill-opacity=".501961" cx="0" cy="0" rx="1" ry="1" /></g><ellipse fill="#0059de" fill-opacity=".501961" cx="47" cy="9" rx="57" ry="57" /><g transform="translate(99.886801 56.373797) rotate(197.292123) scale(12.767363 31.424848)"><ellipse fill="#fffffb" fill-opacity=".501961" cx="0" cy="0" rx="1" ry="1" /></g><path fill="#b98b73" fill-opacity=".501961" d="M112.279532 249.999811 83.31318 212.478006 86.36212 183.710035 106.631537 168.116209z" /><ellipse fill="#ffcf80" fill-opacity=".501961" cx="0" cy="70" rx="17" ry="22" /></g></svg>