<svg xmlns="http://www.w3.org/2000/svg" viewBox="0 0 2048 1365"><filter id="b"><feGaussianBlur stdDeviation="12" /></filter><path d="M0 0h2048v1365H0z" fill="#393f44" /><g filter="url(#b)" transform="scale(8.000000) translate(0.5 0.5)"><g transform="translate(141.269637 0.000000) rotate(58.893614) scale(92.456687 103.863841)"><ellipse fill="#6f95dc" fill-opacity=".501961" cx="0" cy="0" rx="1" ry="1" /></g><g transform="translate(87.246192 132.242975) rotate(181.604671) scale(255.000000 44.749618)"><ellipse fill="#271400" fill-opacity=".501961" cx="0" cy="0" rx="1" ry="1" /></g><g transform="translate(123.744398 100.941881) rotate(117.708466) scale(30.538263 19.188056)"><ellipse fill="#ceb0b0" fill-opacity=".501961" cx="0" cy="0" rx="1" ry="1" /></g><g transform="translate(0 54) rotate(165) scale(92 146)"><path d="M0 0h2048v1365H0z" fill="#000" /></g><ellipse fill="#a6e4ff" fill-opacity=".501961" cx="79" cy="9" rx="38" ry="13" /><g transform="translate(255.000000 29.515446) rotate(176.072593) scale(98.980726 19.199816)"><ellipse fill="#032a62" fill-opacity=".501961" cx="0" cy="0" rx="1" ry="1" /></g><g transform="translate(222.931903 131.391783) rotate(111.987166) scale(59.147858 40.854025)"><ellipse fill="#0a0c00" fill-opacity=".501961" cx="0" cy="0" rx="1" ry="1" /></g><path fill="#b5e9ff" fill-opacity=".501961" d="M255 0 150 12l19-28z" /></g></svg>