<svg xmlns="http://www.w3.org/2000/svg" viewBox="0 0 2048 839"><filter id="b"><feGaussianBlur stdDeviation="12" /></filter><path d="M0 0h2048v839H0z" fill="#c7956a" /><g filter="url(#b)" transform="scale(8.000000) translate(0.5 0.5)"><g transform="translate(61.909055 103.000000) rotate(276.038146) scale(33.814933 111.932958)"><ellipse fill="#000" fill-opacity=".501961" cx="0" cy="0" rx="1" ry="1" /></g><g transform="translate(182.886498 0.000000) rotate(-1.949167) scale(91.607122 53.220788)"><ellipse fill="#fffff5" fill-opacity=".501961" cx="0" cy="0" rx="1" ry="1" /></g><g transform="translate(244.835182 88.690517) rotate(98.058879) scale(29.706036 26.183109)"><ellipse fill="#481200" fill-opacity=".501961" cx="0" cy="0" rx="1" ry="1" /></g><g transform="translate(188.799474 4.161576) rotate(86.850434) scale(34.741330 46.087994)"><ellipse fill="#fff" fill-opacity=".501961" cx="0" cy="0" rx="1" ry="1" /></g><g transform="translate(131.961986 39.353320) rotate(204.256243) scale(108.374105 26.635287)"><ellipse fill="#ffbc78" fill-opacity=".501961" cx="0" cy="0" rx="1" ry="1" /></g><g transform="translate(108.919241 96.523599) rotate(28.585533) scale(9.554704 39.895465)"><ellipse fill="#100300" fill-opacity=".501961" cx="0" cy="0" rx="1" ry="1" /></g><g transform="translate(38.655922 103.000000) rotate(83.689021) scale(14.144878 66.747731)"><ellipse fill="#000" fill-opacity=".501961" cx="0" cy="0" rx="1" ry="1" /></g><path d="M0 0h2048v839H0z" fill="#fff" /></g></svg>