<svg xmlns="http://www.w3.org/2000/svg" viewBox="0 0 2048 2048"><filter id="b"><feGaussianBlur stdDeviation="12" /></filter><path d="M0 0h2048v2048H0z" fill="#a9aea2" /><g filter="url(#b)" transform="scale(8.000000) translate(0.5 0.5)"><g transform="translate(249.425839 35.316431) rotate(-9.562319) scale(108.235638 61.787249)"><ellipse fill="#526139" fill-opacity=".501961" cx="0" cy="0" rx="1" ry="1" /></g><ellipse fill="#efe8f8" fill-opacity=".501961" cx="205" cy="226" rx="91" ry="91" /><ellipse fill="#e8e5f2" fill-opacity=".501961" cx="32" cy="164" rx="70" ry="57" /><g transform="translate(17 19) rotate(98) scale(58 50)"><path d="M0 0h2048v2048H0z" fill="#184f13" /></g><g transform="translate(209.284090 126.650084) rotate(179.656415) scale(16.787597 119.237755)"><ellipse fill="#b1bac5" fill-opacity=".501961" cx="0" cy="0" rx="1" ry="1" /></g><g transform="translate(123.179104 167.024389) rotate(324.031508) scale(19.116942 16.736047)"><ellipse fill="#314729" fill-opacity=".501961" cx="0" cy="0" rx="1" ry="1" /></g><path fill="#859067" fill-opacity=".501961" d="M94-16 209 66 86 166z" /><g transform="translate(242.895249 42.011631) rotate(83.262046) scale(58.788809 23.516973)"><ellipse fill="#494e21" fill-opacity=".501961" cx="0" cy="0" rx="1" ry="1" /></g></g></svg>