<svg xmlns="http://www.w3.org/2000/svg" viewBox="0 0 2048 2048"><filter id="b"><feGaussianBlur stdDeviation="12" /></filter><path d="M0 0h2048v2048H0z" fill="#979b92" /><g filter="url(#b)" transform="scale(8.000000) translate(0.5 0.5)"><g transform="translate(50.658298 135.998162) rotate(84.763965) scale(38.361596 131.230391)"><ellipse fill="#0b2201" fill-opacity=".501961" cx="0" cy="0" rx="1" ry="1" /></g><g transform="translate(154.191306 220.421175) rotate(256.492961) scale(73.706685 223.073770)"><ellipse fill="#d1dae7" fill-opacity=".501961" cx="0" cy="0" rx="1" ry="1" /></g><g transform="translate(158.705245 180.900139) rotate(12.331091) scale(17.961367 40.573547)"><ellipse fill="#202d26" fill-opacity=".501961" cx="0" cy="0" rx="1" ry="1" /></g><g transform="translate(8.670790 120.450002) rotate(142.101192) scale(32.968058 63.893978)"><ellipse fill="#102100" fill-opacity=".501961" cx="0" cy="0" rx="1" ry="1" /></g><path fill="#000" fill-opacity=".501961" d="M71 213 55 156v83z" /><g transform="translate(234.767574 50.023649) rotate(149.175960) scale(30.137547 39.566938)"><ellipse fill="#867321" fill-opacity=".501961" cx="0" cy="0" rx="1" ry="1" /></g><g transform="translate(137.281528 255.000000) rotate(72.844748) scale(26.130804 155.942198)"><ellipse fill="#e9f6fe" fill-opacity=".501961" cx="0" cy="0" rx="1" ry="1" /></g><ellipse fill="#175b80" fill-opacity=".501961" cx="167" cy="50" rx="18" ry="40" /></g></svg>