<svg xmlns="http://www.w3.org/2000/svg" viewBox="0 0 2048 2048"><filter id="b"><feGaussianBlur stdDeviation="12" /></filter><path d="M0 0h2048v2048H0z" fill="#a7a292" /><g filter="url(#b)" transform="scale(8.000000) translate(0.5 0.5)"><g transform="translate(178.888585 42.335707) rotate(-22.800248) scale(131.748031 75.802540)"><ellipse fill="#7a592c" fill-opacity=".501961" cx="0" cy="0" rx="1" ry="1" /></g><g transform="translate(131.201593 224.022355) rotate(265.617606) scale(93.035875 228.918168)"><ellipse fill="#d0dce6" fill-opacity=".501961" cx="0" cy="0" rx="1" ry="1" /></g><g transform="translate(131.237493 66.318276) rotate(161.923860) scale(22.417066 39.806752)"><ellipse fill="#ff5705" fill-opacity=".501961" cx="0" cy="0" rx="1" ry="1" /></g><path fill="#595b4a" fill-opacity=".501961" d="M180.340841 207.79316 175.770977 237.146515 131.122027 239.043357 129.679959 178.555174z" /><path fill="#ffc27e" fill-opacity=".501961" d="M163.941509 50.976612 158.705 24.077328 131.668162 28.00672l24.669083 84.354486z" /><g transform="translate(62.609353 204.966896) rotate(280.082461) scale(20.795548 41.361378)"><ellipse fill="#fefff8" fill-opacity=".501961" cx="0" cy="0" rx="1" ry="1" /></g><g transform="translate(44.469510 66.806969) rotate(346.386169) scale(66.179850 45.360931)"><ellipse fill="#839271" fill-opacity=".501961" cx="0" cy="0" rx="1" ry="1" /></g><g transform="translate(194.799571 41.519355) rotate(181.775415) scale(18.642396 49.469334)"><ellipse fill="#405841" fill-opacity=".501961" cx="0" cy="0" rx="1" ry="1" /></g></g></svg>