<svg xmlns="http://www.w3.org/2000/svg" viewBox="0 0 2048 2048"><filter id="b"><feGaussianBlur stdDeviation="12" /></filter><path d="M0 0h2048v2048H0z" fill="#a1aba3" /><g filter="url(#b)" transform="scale(8.000000) translate(0.5 0.5)"><ellipse fill="#4c5f1e" fill-opacity=".501961" cx="255" cy="132" rx="89" ry="23" /><g transform="translate(116.826256 64.472802) rotate(274.120727) scale(36.767850 196.573236)"><ellipse fill="#ddd8c5" fill-opacity=".501961" cx="0" cy="0" rx="1" ry="1" /></g><g transform="translate(143.437767 153.260380) rotate(328.675105) scale(14.904667 101.986447)"><ellipse fill="#29bcc6" fill-opacity=".501961" cx="0" cy="0" rx="1" ry="1" /></g><ellipse fill="#727479" fill-opacity=".501961" cx="23" cy="216" rx="33" ry="64" /><g transform="translate(255.879689 1.191570) rotate(107.354359) scale(21.911698 10.890352)"><ellipse fill="#000" fill-opacity=".501961" cx="0" cy="0" rx="1" ry="1" /></g><g transform="translate(28.291737 100.102608) rotate(160.154159) scale(43.801708 20.118930)"><ellipse fill="#e0dcd4" fill-opacity=".501961" cx="0" cy="0" rx="1" ry="1" /></g><ellipse fill="#224043" fill-opacity=".501961" cx="74" cy="145" rx="3" ry="61" /><ellipse fill="#594d32" fill-opacity=".501961" cx="13" cy="11" rx="35" ry="7" /></g></svg>