<svg xmlns="http://www.w3.org/2000/svg" viewBox="0 0 2048 1365"><filter id="b"><feGaussianBlur stdDeviation="12" /></filter><path d="M0 0h2048v1365H0z" fill="#a69e9a" /><g filter="url(#b)" transform="scale(8.000000) translate(0.5 0.5)"><g transform="translate(243.939313 8.102039) rotate(203.673244) scale(203.703384 45.559062)"><ellipse fill="#492600" fill-opacity=".501961" cx="0" cy="0" rx="1" ry="1" /></g><g transform="translate(23.866009 34.168664) rotate(-34.782671) scale(108.204748 44.702204)"><ellipse fill="#f7feff" fill-opacity=".501961" cx="0" cy="0" rx="1" ry="1" /></g><path fill="#47453f" fill-opacity=".501961" d="M120.13137 76.527281 80.96227 73.152455 131.341604 166.382054 109.55585 98.828809z" /><path fill="#5c554b" fill-opacity=".501961" d="M271 115l-41-3L254-16z" /><g transform="translate(169.450974 161.030600) rotate(66.237184) scale(21.820686 92.684595)"><ellipse fill="#c0c1cd" fill-opacity=".501961" cx="0" cy="0" rx="1" ry="1" /></g><ellipse fill="#70503b" fill-opacity=".501961" cx="47" cy="129" rx="3" ry="93" /><g transform="translate(248.950779 19.548175) rotate(308.499046) scale(6.357655 106.572318)"><ellipse fill="#bdafb5" fill-opacity=".501961" cx="0" cy="0" rx="1" ry="1" /></g><path fill="#716866" fill-opacity=".501961" d="M182.498623 95.565292 128.136487 159.695961 101.659044 141.209739 165.780393 146.245749z" /></g></svg>