<svg xmlns="http://www.w3.org/2000/svg" viewBox="0 0 2048 2048"><filter id="b"><feGaussianBlur stdDeviation="12" /></filter><path d="M0 0h2048v2048H0z" fill="#a3a598" /><g filter="url(#b)" transform="scale(8.000000) translate(0.5 0.5)"><g transform="translate(108.730422 252.429461) rotate(277.712350) scale(67.794819 171.425097)"><ellipse fill="#e2f0fb" fill-opacity=".501961" cx="0" cy="0" rx="1" ry="1" /></g><g transform="translate(34.268499 0.302349) rotate(71.272172) scale(42.573869 156.165551)"><ellipse fill="#2c4913" fill-opacity=".501961" cx="0" cy="0" rx="1" ry="1" /></g><g transform="translate(238.556945 131.533940) rotate(89.356248) scale(60.729138 86.370603)"><ellipse fill="#586144" fill-opacity=".501961" cx="0" cy="0" rx="1" ry="1" /></g><g transform="translate(165.144428 45.838688) rotate(316.774417) scale(71.245480 36.496744)"><ellipse fill="#e6e1ea" fill-opacity=".501961" cx="0" cy="0" rx="1" ry="1" /></g><path fill="#643516" fill-opacity=".501961" d="M84 136l42 39-19-98z" /><path fill="#4b4e41" fill-opacity=".501961" d="M159.753279 85.531432 152.645281 176.894363 162.183518 229.373195 170.074552 230.742084z" /><path fill="#6c6043" fill-opacity=".501961" d="M134.212657-16 49.84609 114.507085 55.974602 52.407591 115.50373 52.363589z" /><path d="M0 0h2048v2048H0z" fill="#c9af93" /></g></svg>