<svg xmlns="http://www.w3.org/2000/svg" viewBox="0 0 2048 1638"><filter id="b"><feGaussianBlur stdDeviation="12" /></filter><path d="M0 0h2048v1638H0z" fill="#595740" /><g filter="url(#b)" transform="scale(8.000000) translate(0.5 0.5)"><g transform="translate(149.433493 26.519906) rotate(278.448208) scale(47.229081 124.101818)"><ellipse fill="#a18855" fill-opacity=".501961" cx="0" cy="0" rx="1" ry="1" /></g><g transform="translate(201.232226 163.066107) rotate(357.039028) scale(105.582717 93.695096)"><ellipse fill="#1d3229" fill-opacity=".501961" cx="0" cy="0" rx="1" ry="1" /></g><g transform="translate(27.299924 162.228484) rotate(65.325360) scale(57.329430 33.254615)"><ellipse fill="#93918d" fill-opacity=".501961" cx="0" cy="0" rx="1" ry="1" /></g><g transform="translate(36.186192 72.967752) rotate(74.705375) scale(27.537831 106.308261)"><ellipse fill="#322d1f" fill-opacity=".501961" cx="0" cy="0" rx="1" ry="1" /></g><ellipse fill="#97af3e" fill-opacity=".501961" cx="162" cy="64" rx="120" ry="8" /><path fill="#af9b29" fill-opacity=".501961" d="M23 99l19 40 50-34z" /><ellipse fill="#0a0d04" fill-opacity=".501961" cx="225" cy="122" rx="51" ry="15" /><path fill="#565958" fill-opacity=".501961" d="M215 173 16 194l147-76z" /></g></svg>