<svg xmlns="http://www.w3.org/2000/svg" viewBox="0 0 4607 3686"><filter id="b"><feGaussianBlur stdDeviation="12" /></filter><path d="M0 0h4607v3686H0z" fill="#363c41" /><g filter="url(#b)" transform="scale(17.996094) translate(0.5 0.5)"><path fill="#749be2" fill-opacity=".501961" d="M12-11 271-8 105 133z" /><g transform="translate(150.095333 179.988183) rotate(161.322128) scale(255.000000 62.038061)"><ellipse fill="#0e0000" fill-opacity=".501961" cx="0" cy="0" rx="1" ry="1" /></g><g transform="translate(49.739512 162.042097) rotate(49.465358) scale(249.082006 51.317874)"><ellipse fill="#1c1000" fill-opacity=".501961" cx="0" cy="0" rx="1" ry="1" /></g><g transform="translate(70.519371 10.032610) rotate(350.190698) scale(49.293322 13.184417)"><ellipse fill="#9dd7ff" fill-opacity=".501961" cx="0" cy="0" rx="1" ry="1" /></g><ellipse fill="#675300" fill-opacity=".501961" cx="89" cy="145" rx="228" ry="17" /><ellipse fill="#3a4f7f" fill-opacity=".501961" cx="183" cy="49" rx="171" ry="36" /><path fill="#bb8f7b" fill-opacity=".501961" d="M88.07113 140.706167 94.81559 91.355889 145.138624 62.268506 128.364945 134.08609z" /><path fill="#807490" fill-opacity=".501961" d="M216.675732 48.594264 196.215356 106.80983 41.815349 69.326242 191.388243 55.407225z" /></g></svg>