<svg xmlns="http://www.w3.org/2000/svg" viewBox="0 0 4994 3995"><filter id="b"><feGaussianBlur stdDeviation="12" /></filter><path d="M0 0h4994v3995H0z" fill="#9e8877" /><g filter="url(#b)" transform="scale(19.507812) translate(0.5 0.5)"><g transform="translate(127.587835 190.452918) rotate(280.514151) scale(50.997041 168.700628)"><ellipse fill="#0c0b00" fill-opacity=".501961" cx="0" cy="0" rx="1" ry="1" /></g><g transform="translate(213.226611 73.530597) rotate(170.284298) scale(48.630152 84.154219)"><ellipse fill="#ffe9d3" fill-opacity=".501961" cx="0" cy="0" rx="1" ry="1" /></g><ellipse fill="#e8e9ff" fill-opacity=".501961" cx="19" cy="65" rx="72" ry="61" /><g transform="translate(110 99) rotate(182) scale(37 63)"><path d="M0 0h4994v3995H0z" fill="#040000" /></g><g transform="translate(160 146) rotate(144) scale(64 41)"><path d="M0 0h4994v3995H0z" fill="#fcc495" /></g><g transform="translate(44.457837 189.236248) rotate(362.793699) scale(191.209732 20.066796)"><ellipse fill="#111700" fill-opacity=".501961" cx="0" cy="0" rx="1" ry="1" /></g><path fill="#8a5716" fill-opacity=".501961" d="M164 153l2-106L44 164z" /><g transform="translate(148.116166 15.395318) rotate(-3.338876) scale(97.596283 23.403474)"><ellipse fill="#e9bfb1" fill-opacity=".501961" cx="0" cy="0" rx="1" ry="1" /></g></g></svg>