<svg xmlns="http://www.w3.org/2000/svg" viewBox="0 0 4702 3762"><filter id="b"><feGaussianBlur stdDeviation="12" /></filter><path d="M0 0h4702v3762H0z" fill="#938875" /><g filter="url(#b)" transform="scale(18.367188) translate(0.5 0.5)"><g transform="translate(109.939779 181.111202) rotate(180.950109) scale(187.719296 33.163449)"><ellipse fill="#010" fill-opacity=".501961" cx="0" cy="0" rx="1" ry="1" /></g><path fill="#fff4c4" fill-opacity=".501961" d="M271 62v93L-16 82z" /><g transform="translate(31.073004 93.913156) rotate(200.818627) scale(47.845496 32.556476)"><ellipse fill="#fff5bd" fill-opacity=".501961" cx="0" cy="0" rx="1" ry="1" /></g><path d="M0 0h4702v3762H0z" fill="#705e5d" /><g transform="translate(209.472917 95.382913) rotate(271.050155) scale(19.881901 95.561792)"><ellipse fill="#ffedbd" fill-opacity=".501961" cx="0" cy="0" rx="1" ry="1" /></g><g transform="translate(162.000281 170.916945) rotate(256.247218) scale(30.883742 47.668114)"><ellipse fill="#1a2c29" fill-opacity=".501961" cx="0" cy="0" rx="1" ry="1" /></g><g transform="translate(28.584982 105.186013) rotate(315.501950) scale(25.158576 64.329491)"><ellipse fill="#fec8a5" fill-opacity=".501961" cx="0" cy="0" rx="1" ry="1" /></g><ellipse fill="#2a2e20" fill-opacity=".501961" cx="0" cy="174" rx="44" ry="44" /></g></svg>