<svg xmlns="http://www.w3.org/2000/svg" viewBox="0 0 4215 3372"><filter id="b"><feGaussianBlur stdDeviation="12" /></filter><path d="M0 0h4215v3372H0z" fill="#b49c8c" /><g filter="url(#b)" transform="scale(16.464844) translate(0.5 0.5)"><g transform="translate(235.897519 121.721673) rotate(272.750029) scale(34.784516 144.402872)"><ellipse fill="#020400" fill-opacity=".501961" cx="0" cy="0" rx="1" ry="1" /></g><g transform="translate(120.783755 25.631946) rotate(355.869346) scale(138.248358 65.392136)"><ellipse fill="#ffffec" fill-opacity=".501961" cx="0" cy="0" rx="1" ry="1" /></g><g transform="translate(0.000000 112.995105) rotate(-1.248445) scale(90.488092 22.065285)"><ellipse fill="#26282b" fill-opacity=".501961" cx="0" cy="0" rx="1" ry="1" /></g><g transform="translate(225.870526 137.274397) rotate(272.629481) scale(42.787086 25.640927)"><ellipse fill="#272317" fill-opacity=".501961" cx="0" cy="0" rx="1" ry="1" /></g><path fill="#e1b192" fill-opacity=".501961" d="M220 219l-50-89L29 144z" /><g transform="translate(150.110803 16.133614) rotate(-5.195074) scale(116.749922 32.407015)"><ellipse fill="#ffedda" fill-opacity=".501961" cx="0" cy="0" rx="1" ry="1" /></g><ellipse fill="#38382d" fill-opacity=".501961" cx="226" cy="110" rx="56" ry="31" /><g transform="translate(44.764050 61.668633) rotate(11.326210) scale(135.561657 21.923955)"><ellipse fill="#dead9e" fill-opacity=".501961" cx="0" cy="0" rx="1" ry="1" /></g></g></svg>