<svg xmlns="http://www.w3.org/2000/svg" viewBox="0 0 4802 3842"><filter id="b"><feGaussianBlur stdDeviation="12" /></filter><path d="M0 0h4802v3842H0z" fill="#7e8788" /><g filter="url(#b)" transform="scale(18.757812) translate(0.5 0.5)"><ellipse fill="#f2ffff" fill-opacity=".501961" cx="129" cy="136" rx="97" ry="97" /><g transform="translate(238.838925 65.832935) rotate(81.297502) scale(168.261362 31.471090)"><ellipse fill="#000" fill-opacity=".501961" cx="0" cy="0" rx="1" ry="1" /></g><g transform="translate(14.812818 60.095359) rotate(106.375340) scale(210.325808 39.699047)"><ellipse fill="#000" fill-opacity=".501961" cx="0" cy="0" rx="1" ry="1" /></g><g transform="translate(137.215048 13.198183) rotate(182.559416) scale(255.000000 22.617117)"><ellipse fill="#0b1000" fill-opacity=".501961" cx="0" cy="0" rx="1" ry="1" /></g><g transform="translate(117.049177 122.893092) rotate(181.884243) scale(96.830353 33.709102)"><ellipse fill="#7a7384" fill-opacity=".501961" cx="0" cy="0" rx="1" ry="1" /></g><g transform="translate(135.025543 176.492814) rotate(179.725403) scale(83.836664 24.481791)"><ellipse fill="#fcffff" fill-opacity=".501961" cx="0" cy="0" rx="1" ry="1" /></g><g transform="translate(171.268602 67.926251) rotate(211.028913) scale(55.482848 25.117585)"><ellipse fill="#f2ffff" fill-opacity=".501961" cx="0" cy="0" rx="1" ry="1" /></g><g transform="translate(103.203174 63.963222) rotate(345.860628) scale(66.951868 17.572312)"><ellipse fill="#f4ffff" fill-opacity=".501961" cx="0" cy="0" rx="1" ry="1" /></g></g></svg>