<svg xmlns="http://www.w3.org/2000/svg" viewBox="0 0 2048 1638"><filter id="b"><feGaussianBlur stdDeviation="12" /></filter><path d="M0 0h2048v1638H0z" fill="#b4cbdd" /><g filter="url(#b)" transform="scale(8.000000) translate(0.5 0.5)"><g transform="translate(91.054779 89.770907) rotate(182.470717) scale(218.863014 39.020234)"><ellipse fill="#667a92" fill-opacity=".501961" cx="0" cy="0" rx="1" ry="1" /></g><ellipse fill="#f6ffff" fill-opacity=".501961" cx="132" cy="170" rx="255" ry="39" /><g transform="translate(153.903775 19.239162) rotate(3.299771) scale(255.000000 26.563469)"><ellipse fill="#d5f2ff" fill-opacity=".501961" cx="0" cy="0" rx="1" ry="1" /></g><g transform="translate(209.511001 157.500692) rotate(84.480677) scale(27.801902 127.818352)"><ellipse fill="#d8f6ff" fill-opacity=".501961" cx="0" cy="0" rx="1" ry="1" /></g><g transform="translate(159.619655 60.260363) rotate(276.887564) scale(10.182389 158.123280)"><ellipse fill="#96b5d3" fill-opacity=".501961" cx="0" cy="0" rx="1" ry="1" /></g><path d="M0 0h2048v1638H0z" fill="#8595a3" /><ellipse fill="#ceeafe" fill-opacity=".501961" cx="49" cy="140" rx="100" ry="14" /><g transform="translate(211.038103 42.764808) rotate(123.454634) scale(31.573380 17.034289)"><ellipse fill="#c9e4fb" fill-opacity=".501961" cx="0" cy="0" rx="1" ry="1" /></g></g></svg>