<svg xmlns="http://www.w3.org/2000/svg" viewBox="0 0 2048 683"><filter id="b"><feGaussianBlur stdDeviation="12" /></filter><path d="M0 0h2048v683H0z" fill="#b1cce2" /><g filter="url(#b)" transform="scale(8.000000) translate(0.5 0.5)"><g transform="translate(234.459230 44.442212) rotate(268.196580) scale(20.845923 139.185179)"><ellipse fill="#5b6f8b" fill-opacity=".501961" cx="0" cy="0" rx="1" ry="1" /></g><ellipse fill="azure" fill-opacity=".501961" cx="39" cy="81" rx="254" ry="17" /><g transform="translate(126.587223 6.310600) rotate(87.340899) scale(27.450841 131.415366)"><ellipse fill="#dbf8ff" fill-opacity=".501961" cx="0" cy="0" rx="1" ry="1" /></g><path fill="#546e8e" fill-opacity=".501961" d="M-14.600049 59.321038-9.67138 20.521586 20.631154 38.612608 67.231433 45.627004z" /><g transform="translate(247.022304 39.371471) rotate(122.796189) scale(31.449537 19.055594)"><ellipse fill="#617b99" fill-opacity=".501961" cx="0" cy="0" rx="1" ry="1" /></g><path fill="#ddf9ff" fill-opacity=".501961" d="M-16 56 87 50 20 1e2z" /><path fill="#a0b8ce" fill-opacity=".501961" d="M127.575877 64.694864 196.715668 70.139038 201.385587 38.61027 72.361169 66.022259z" /><path fill="#7991ac" fill-opacity=".501961" d="M72.276873 48.621932 124.610499 29.34332 144.492806 29.730919 167.413582 53.825509z" /></g></svg>