<svg xmlns="http://www.w3.org/2000/svg" viewBox="0 0 2048 1365"><filter id="b"><feGaussianBlur stdDeviation="12" /></filter><path d="M0 0h2048v1365H0z" fill="#78544d" /><g filter="url(#b)" transform="scale(8.000000) translate(0.5 0.5)"><g transform="translate(164.877214 133.945859) rotate(207.654694) scale(123.255712 24.846707)"><ellipse fill="#fffffc" fill-opacity=".501961" cx="0" cy="0" rx="1" ry="1" /></g><ellipse fill="#390000" fill-opacity=".501961" cx="166" cy="0" rx="80" ry="80" /><g transform="translate(17.496602 28.690718) rotate(376.734097) scale(55.444802 120.099582)"><ellipse fill="#0a0000" fill-opacity=".501961" cx="0" cy="0" rx="1" ry="1" /></g><g transform="translate(241.527346 97.553181) rotate(174.229484) scale(80.933911 14.848112)"><ellipse fill="#def1f9" fill-opacity=".501961" cx="0" cy="0" rx="1" ry="1" /></g><path fill="#6e1601" fill-opacity=".501961" d="M59 128l165-11L37 184z" /><g transform="translate(213 152) rotate(95) scale(21 111)"><path d="M0 0h2048v1365H0z" fill="#fffef7" /></g><g transform="translate(110.854791 104.981630) rotate(187.976123) scale(54.293710 10.612446)"><ellipse fill="#fffffe" fill-opacity=".501961" cx="0" cy="0" rx="1" ry="1" /></g><path fill="#751b09" fill-opacity=".501961" d="M141 129l130 17-18-35z" /></g></svg>