<svg xmlns="http://www.w3.org/2000/svg" viewBox="0 0 2048 1638"><filter id="b"><feGaussianBlur stdDeviation="12" /></filter><path d="M0 0h2048v1638H0z" fill="#b2796a" /><g filter="url(#b)" transform="scale(8.000000) translate(0.5 0.5)"><g transform="translate(221.917928 92.888317) rotate(118.204385) scale(169.174829 43.288755)"><ellipse fill="#800100" fill-opacity=".501961" cx="0" cy="0" rx="1" ry="1" /></g><g transform="translate(75.853980 167.696086) rotate(-10.710340) scale(51.374874 114.727363)"><ellipse fill="#dee0e4" fill-opacity=".501961" cx="0" cy="0" rx="1" ry="1" /></g><g transform="translate(146.609883 42.255638) rotate(-39.991199) scale(38.442191 67.015170)"><ellipse fill="#ffeed7" fill-opacity=".501961" cx="0" cy="0" rx="1" ry="1" /></g><g transform="translate(42.443098 0.000000) rotate(162.344265) scale(21.167577 45.176212)"><ellipse fill="#3c0000" fill-opacity=".501961" cx="0" cy="0" rx="1" ry="1" /></g><g transform="translate(255.000000 66.693536) rotate(273.990518) scale(74.451090 23.273926)"><ellipse fill="#280000" fill-opacity=".501961" cx="0" cy="0" rx="1" ry="1" /></g><g transform="translate(205.973138 22.932791) rotate(263.309638) scale(97.102853 20.744816)"><ellipse fill="#c83c00" fill-opacity=".501961" cx="0" cy="0" rx="1" ry="1" /></g><ellipse fill="#e12500" fill-opacity=".501961" cx="151" cy="0" rx="13" ry="35" /><ellipse fill="#781d00" fill-opacity=".501961" cx="165" cy="173" rx="23" ry="83" /></g></svg>