<svg xmlns="http://www.w3.org/2000/svg" viewBox="0 0 2048 1841"><filter id="b"><feGaussianBlur stdDeviation="12" /></filter><path d="M0 0h2048v1841H0z" fill="#4e574a" /><g filter="url(#b)" transform="scale(8.000000) translate(0.5 0.5)"><g transform="translate(146.436464 16.220395) rotate(359.540995) scale(254.026005 36.449514)"><ellipse fill="#fff" fill-opacity=".501961" cx="0" cy="0" rx="1" ry="1" /></g><g transform="translate(91.623471 176.567718) rotate(95.056148) scale(117.620844 255.000000)"><ellipse fill="#000100" fill-opacity=".501961" cx="0" cy="0" rx="1" ry="1" /></g><ellipse fill="#fff" fill-opacity=".501961" cx="154" cy="19" rx="255" ry="30" /><ellipse fill="#fff" fill-opacity=".501961" cx="197" cy="22" rx="154" ry="27" /><path fill="#a9878f" fill-opacity=".501961" d="M75 149l-5-48 52 12z" /><g transform="translate(97.672077 200.639594) rotate(192.905129) scale(255.000000 51.675566)"><ellipse fill="#000d02" fill-opacity=".501961" cx="0" cy="0" rx="1" ry="1" /></g><g transform="translate(170.498341 150.028414) rotate(292.098812) scale(16.970497 44.772051)"><ellipse fill="#5a6b6a" fill-opacity=".501961" cx="0" cy="0" rx="1" ry="1" /></g><path fill="#59651d" fill-opacity=".501961" d="M171 62 64 53 265 157z" /></g></svg>