<svg xmlns="http://www.w3.org/2000/svg" viewBox="0 0 2048 1365"><filter id="b"><feGaussianBlur stdDeviation="12" /></filter><path d="M0 0h2048v1365H0z" fill="#282e2b" /><g filter="url(#b)" transform="scale(8.000000) translate(0.5 0.5)"><g transform="translate(207.980430 61.359039) rotate(193.932488) scale(63.191154 28.045927)"><ellipse fill="#78685b" fill-opacity=".501961" cx="0" cy="0" rx="1" ry="1" /></g><ellipse fill="#07110d" fill-opacity=".501961" cx="0" cy="114" rx="83" ry="83" /><ellipse fill="#000101" fill-opacity=".501961" cx="189" cy="169" rx="68" ry="25" /><g transform="translate(79 30) rotate(192) scale(52 11)"><path d="M0 0h2048v1365H0z" fill="#9f9397" /></g><g transform="translate(148.087164 144.047486) rotate(345.090231) scale(15.992707 5.325518)"><ellipse fill="#99aeb8" fill-opacity=".501961" cx="0" cy="0" rx="1" ry="1" /></g><path fill="#8e98a0" fill-opacity=".501961" d="M158.082445 108.81914 143.483668 106.450818 131.507651 125.400585 166.154751 114.087743z" /><g transform="translate(88.565609 111.070568) rotate(148.085070) scale(28.468358 9.525827)"><ellipse fill="#6c5d54" fill-opacity=".501961" cx="0" cy="0" rx="1" ry="1" /></g><path d="M0 0h2048v1365H0z" fill="#8d6657" /></g></svg>