<svg xmlns="http://www.w3.org/2000/svg" viewBox="0 0 2048 1365"><filter id="b"><feGaussianBlur stdDeviation="12" /></filter><path d="M0 0h2048v1365H0z" fill="#c4c9d6" /><g filter="url(#b)" transform="scale(8.000000) translate(0.5 0.5)"><ellipse fill="#3d5961" fill-opacity=".501961" cx="173" cy="103" rx="124" ry="11" /><g transform="translate(132.661479 11.718537) rotate(94.774592) scale(30.905271 138.877268)"><ellipse fill="#f9f5fb" fill-opacity=".501961" cx="0" cy="0" rx="1" ry="1" /></g><g transform="translate(50.199058 83.256415) rotate(91.141110) scale(31.431036 103.160139)"><ellipse fill="#9dabca" fill-opacity=".501961" cx="0" cy="0" rx="1" ry="1" /></g><ellipse fill="#e3dde0" fill-opacity=".501961" cx="151" cy="140" rx="255" ry="28" /><path fill="#2a5762" fill-opacity=".501961" d="M248.900169 114.493441 171.923296 107.492491 219.363754 94.067827 271 108.162364z" /><path fill="#6e8484" fill-opacity=".501961" d="M128.730599 47.162821 140.37692 93.554779 139.739052 92.243002 123.830603 93.954959z" /><ellipse fill="#858a94" fill-opacity=".501961" cx="67" cy="109" rx="90" ry="4" /><g transform="translate(76.659738 59.457312) rotate(124.550242) scale(44.883689 53.728140)"><ellipse fill="#bfc8df" fill-opacity=".501961" cx="0" cy="0" rx="1" ry="1" /></g></g></svg>