<svg xmlns="http://www.w3.org/2000/svg" viewBox="0 0 2048 683"><filter id="b"><feGaussianBlur stdDeviation="12" /></filter><path d="M0 0h2048v683H0z" fill="#afbaba" /><g filter="url(#b)" transform="scale(8.000000) translate(0.5 0.5)"><ellipse fill="#46686c" fill-opacity=".501961" cx="231" cy="64" rx="209" ry="16" /><g transform="translate(120.313984 12.177541) rotate(-3.896883) scale(254.412945 22.729103)"><ellipse fill="#f7f5f4" fill-opacity=".501961" cx="0" cy="0" rx="1" ry="1" /></g><path d="M0 0h2048v683H0z" fill="#adb5b4" /><ellipse fill="#597174" fill-opacity=".501961" cx="224" cy="70" rx="118" ry="7" /><g transform="translate(179.600232 28.475726) rotate(182.673441) scale(87.248662 12.330291)"><ellipse fill="#cdcccb" fill-opacity=".501961" cx="0" cy="0" rx="1" ry="1" /></g><g transform="translate(41.168547 19.020697) rotate(247.834314) scale(31.565174 54.423944)"><ellipse fill="#dcdcdc" fill-opacity=".501961" cx="0" cy="0" rx="1" ry="1" /></g><g transform="translate(62.774532 58.668492) rotate(82.902079) scale(5.621916 132.955160)"><ellipse fill="#8fa4a6" fill-opacity=".501961" cx="0" cy="0" rx="1" ry="1" /></g><ellipse fill="#b1b0a6" fill-opacity=".501961" cx="136" cy="82" rx="94" ry="7" /></g></svg>