<svg xmlns="http://www.w3.org/2000/svg" viewBox="0 0 2048 2048"><filter id="b"><feGaussianBlur stdDeviation="12" /></filter><path d="M0 0h2048v2048H0z" fill="#a3a598" /><g filter="url(#b)" transform="scale(8.000000) translate(0.5 0.5)"><g transform="translate(99.693113 238.226482) rotate(276.452399) scale(55.194847 152.118881)"><ellipse fill="#e3f0fc" fill-opacity=".501961" cx="0" cy="0" rx="1" ry="1" /></g><g transform="translate(45.318486 0.000000) rotate(340.854689) scale(136.017694 39.621695)"><ellipse fill="#2d4914" fill-opacity=".501961" cx="0" cy="0" rx="1" ry="1" /></g><ellipse fill="#5b6447" fill-opacity=".501961" cx="219" cy="131" rx="62" ry="62" /><g transform="translate(170.949281 44.396708) rotate(151.086328) scale(65.013087 34.394705)"><ellipse fill="#ebe4ed" fill-opacity=".501961" cx="0" cy="0" rx="1" ry="1" /></g><path d="M0 0h2048v2048H0z" fill="#6a2605" /><ellipse fill="#08301a" fill-opacity=".501961" cx="254" cy="97" rx="17" ry="32" /><g transform="translate(161.925671 194.474179) rotate(83.433688) scale(31.804261 7.207952)"><ellipse fill="#4f503d" fill-opacity=".501961" cx="0" cy="0" rx="1" ry="1" /></g><path fill="#1a411b" fill-opacity=".501961" d="M19.304685 126.013861 3.888641 124.835074-16 187.330688 21.665838 69.871859z" /></g></svg>