<svg xmlns="http://www.w3.org/2000/svg" viewBox="0 0 2048 2048"><filter id="b"><feGaussianBlur stdDeviation="12" /></filter><path d="M0 0h2048v2048H0z" fill="#979b92" /><g filter="url(#b)" transform="scale(8.000000) translate(0.5 0.5)"><g transform="translate(31.728086 130.620391) rotate(84.784458) scale(45.132611 131.747641)"><ellipse fill="#0e2702" fill-opacity=".501961" cx="0" cy="0" rx="1" ry="1" /></g><ellipse fill="#d5deeb" fill-opacity=".501961" cx="178" cy="229" rx="250" ry="64" /><g transform="translate(159.761253 167.873003) rotate(12.310083) scale(16.458434 54.380753)"><ellipse fill="#2e3d3b" fill-opacity=".501961" cx="0" cy="0" rx="1" ry="1" /></g><path fill="#e2e2ec" fill-opacity=".501961" d="M271 98 183 78l57 193z" /><path d="M0 0h2048v2048H0z" fill="#000" /><g transform="translate(19.836236 138.111590) rotate(22.507034) scale(43.777500 26.041099)"><ellipse fill="#020d00" fill-opacity=".501961" cx="0" cy="0" rx="1" ry="1" /></g><ellipse fill="#969880" fill-opacity=".501961" cx="72" cy="80" rx="45" ry="45" /><g transform="translate(235.921555 49.305849) rotate(235.894218) scale(40.570654 28.979970)"><ellipse fill="#84721e" fill-opacity=".501961" cx="0" cy="0" rx="1" ry="1" /></g></g></svg>