<svg xmlns="http://www.w3.org/2000/svg" viewBox="0 0 2048 683"><filter id="b"><feGaussianBlur stdDeviation="12" /></filter><path d="M0 0h2048v683H0z" fill="#b2b7b9" /><g filter="url(#b)" transform="scale(8.000000) translate(0.5 0.5)"><g transform="translate(157.635837 82.032486) rotate(89.357148) scale(11.251319 248.484025)"><ellipse fill="#53625f" fill-opacity=".501961" cx="0" cy="0" rx="1" ry="1" /></g><g transform="translate(109.999853 15.304726) rotate(267.178685) scale(30.019536 227.388324)"><ellipse fill="#dadee5" fill-opacity=".501961" cx="0" cy="0" rx="1" ry="1" /></g><g transform="translate(136.264883 70.944086) rotate(365.990308) scale(30.876614 23.830655)"><ellipse fill="#7a898c" fill-opacity=".501961" cx="0" cy="0" rx="1" ry="1" /></g><g transform="translate(218.573406 64.151560) rotate(172.528175) scale(79.778228 10.967426)"><ellipse fill="#b99d86" fill-opacity=".501961" cx="0" cy="0" rx="1" ry="1" /></g><path d="M0 0h2048v683H0z" fill="#f1d6c3" /><path fill="#75776d" fill-opacity=".501961" d="M263 77l-5-27-77 38z" /><ellipse fill="#567886" fill-opacity=".501961" cx="110" cy="84" rx="126" ry="8" /><g transform="translate(120.777837 54.715052) rotate(245.085191) scale(14.294791 50.996430)"><ellipse fill="#a5acae" fill-opacity=".501961" cx="0" cy="0" rx="1" ry="1" /></g></g></svg>