<svg xmlns="http://www.w3.org/2000/svg" viewBox="0 0 2048 683"><filter id="b"><feGaussianBlur stdDeviation="12" /></filter><path d="M0 0h2048v683H0z" fill="#b1b1b1" /><g filter="url(#b)" transform="scale(8.000000) translate(0.5 0.5)"><g transform="translate(147.799255 75.929013) rotate(3.382468) scale(119.381372 18.900719)"><ellipse fill="#5d5d5d" fill-opacity=".501961" cx="0" cy="0" rx="1" ry="1" /></g><g transform="translate(142.855102 17.642804) rotate(180.635766) scale(240.968656 21.815854)"><ellipse fill="#e4e4e4" fill-opacity=".501961" cx="0" cy="0" rx="1" ry="1" /></g><g transform="translate(15.488435 20.624533) rotate(208.864398) scale(34.825182 44.948090)"><ellipse fill="#d9d9d9" fill-opacity=".501961" cx="0" cy="0" rx="1" ry="1" /></g><path fill="#585858" fill-opacity=".501961" d="M203.715681 82.587368 58.807135 78.272781 111.176497 70.081859 271 80.74426z" /><g transform="translate(150.302216 47.355609) rotate(276.914904) scale(17.092844 103.173174)"><ellipse fill="#aaa" fill-opacity=".501961" cx="0" cy="0" rx="1" ry="1" /></g><g transform="translate(29.071145 84.000000) rotate(145.683594) scale(62.510651 20.098799)"><ellipse fill="#9b9b9b" fill-opacity=".501961" cx="0" cy="0" rx="1" ry="1" /></g><g transform="translate(224.276391 37.597158) rotate(94.392444) scale(13.733502 168.510638)"><ellipse fill="#c3c3c3" fill-opacity=".501961" cx="0" cy="0" rx="1" ry="1" /></g><ellipse fill="#959595" fill-opacity=".501961" cx="127" cy="57" rx="76" ry="8" /></g></svg>