<svg xmlns="http://www.w3.org/2000/svg" viewBox="0 0 2048 906"><filter id="b"><feGaussianBlur stdDeviation="12" /></filter><path d="M0 0h2048v906H0z" fill="#949ea0" /><g filter="url(#b)" transform="scale(8.000000) translate(0.5 0.5)"><ellipse fill="#2d585c" fill-opacity=".501961" cx="172" cy="96" rx="191" ry="30" /><g transform="translate(180.694321 16.652359) rotate(174.707331) scale(179.828023 33.441515)"><ellipse fill="#f1dad6" fill-opacity=".501961" cx="0" cy="0" rx="1" ry="1" /></g><path fill="#003c59" fill-opacity=".501961" d="M182.187476 71.604073 211.516755 60.852992 219.443794 79.514116 201.369417 90.588938z" /><g transform="translate(220.934317 22.194282) rotate(207.870852) scale(69.919519 32.296691)"><ellipse fill="#d4d2d3" fill-opacity=".501961" cx="0" cy="0" rx="1" ry="1" /></g><g transform="translate(113.441854 73.839161) rotate(222.415771) scale(113.572116 18.630864)"><ellipse fill="#9a9b98" fill-opacity=".501961" cx="0" cy="0" rx="1" ry="1" /></g><g transform="translate(42.259930 32.770266) rotate(171.619009) scale(65.704439 34.595724)"><ellipse fill="#b7b0b3" fill-opacity=".501961" cx="0" cy="0" rx="1" ry="1" /></g><g transform="translate(24.569393 112.000000) rotate(72.585599) scale(23.550930 73.621998)"><ellipse fill="#3b6470" fill-opacity=".501961" cx="0" cy="0" rx="1" ry="1" /></g><ellipse fill="#002428" fill-opacity=".501961" cx="235" cy="102" rx="40" ry="2" /></g></svg>