<svg xmlns="http://www.w3.org/2000/svg" viewBox="0 0 2048 683"><filter id="b"><feGaussianBlur stdDeviation="12" /></filter><path d="M0 0h2048v683H0z" fill="#b8d2d7" /><g filter="url(#b)" transform="scale(8.000000) translate(0.5 0.5)"><ellipse fill="#457a86" fill-opacity=".501961" cx="199" cy="67" rx="166" ry="15" /><ellipse fill="#f3fefe" fill-opacity=".501961" cx="86" cy="19" rx="255" ry="28" /><g transform="translate(223.670733 77.154474) rotate(89.359728) scale(2.787178 76.468938)"><ellipse fill="#316a72" fill-opacity=".501961" cx="0" cy="0" rx="1" ry="1" /></g><g transform="translate(36.472371 0.000000) rotate(322.444665) scale(135.984164 35.833932)"><ellipse fill="#f1fcfc" fill-opacity=".501961" cx="0" cy="0" rx="1" ry="1" /></g><g transform="translate(119.767474 45.342789) rotate(75.903074) scale(13.952093 104.494250)"><ellipse fill="#abc8d1" fill-opacity=".501961" cx="0" cy="0" rx="1" ry="1" /></g><ellipse fill="#8eb8c5" fill-opacity=".501961" cx="218" cy="56" rx="176" ry="7" /><path fill="#457d89" fill-opacity=".501961" d="M165 61 139 79l-37-5z" /><g transform="translate(185.172427 31.486008) rotate(90.807033) scale(15.481347 116.389769)"><ellipse fill="#cde1e4" fill-opacity=".501961" cx="0" cy="0" rx="1" ry="1" /></g></g></svg>