<svg xmlns="http://www.w3.org/2000/svg" viewBox="0 0 2560 1280"><filter id="b"><feGaussianBlur stdDeviation="12" /></filter><path d="M0 0h2560v1280H0z" fill="#9a8473" /><g filter="url(#b)" transform="scale(10.000000) translate(0.5 0.5)"><g transform="translate(137.756528 0.971745) rotate(171.340933) scale(240.903188 31.958278)"><ellipse fill="#fff" fill-opacity=".501961" cx="0" cy="0" rx="1" ry="1" /></g><g transform="translate(238.914073 96.422819) rotate(14.677666) scale(43.644245 87.808838)"><ellipse fill="#441500" fill-opacity=".501961" cx="0" cy="0" rx="1" ry="1" /></g><g transform="translate(84.409594 97.137825) rotate(280.688416) scale(14.361471 102.534202)"><ellipse fill="#2b2012" fill-opacity=".501961" cx="0" cy="0" rx="1" ry="1" /></g><g transform="translate(95.980697 59.968937) rotate(79.919053) scale(14.359865 128.479018)"><ellipse fill="#52422e" fill-opacity=".501961" cx="0" cy="0" rx="1" ry="1" /></g><g transform="translate(37.454404 127.000000) rotate(211.738401) scale(109.454566 20.294697)"><ellipse fill="#d1cad0" fill-opacity=".501961" cx="0" cy="0" rx="1" ry="1" /></g><ellipse fill="#e79b66" fill-opacity=".501961" cx="171" cy="82" rx="64" ry="18" /><g transform="translate(244.440671 115.726064) rotate(343.821740) scale(64.914383 22.805707)"><ellipse fill="#351c00" fill-opacity=".501961" cx="0" cy="0" rx="1" ry="1" /></g><g transform="translate(20.278938 22.578905) rotate(74.376755) scale(30.220382 48.262324)"><ellipse fill="#eadee2" fill-opacity=".501961" cx="0" cy="0" rx="1" ry="1" /></g></g></svg>