<svg xmlns="http://www.w3.org/2000/svg" viewBox="0 0 1638 2048"><filter id="b"><feGaussianBlur stdDeviation="12" /></filter><path d="M0 0h1638v2048H0z" fill="#988873" /><g filter="url(#b)" transform="scale(8.000000) translate(0.5 0.5)"><ellipse fill="#3a2510" fill-opacity=".501961" cx="104" cy="172" rx="41" ry="64" /><g transform="translate(45.114608 166.186530) rotate(183.721254) scale(16.626882 69.590385)"><ellipse fill="#e8d2b7" fill-opacity=".501961" cx="0" cy="0" rx="1" ry="1" /></g><g transform="translate(152.912970 118.508632) rotate(167.781153) scale(17.082695 105.053040)"><ellipse fill="#c9b8a1" fill-opacity=".501961" cx="0" cy="0" rx="1" ry="1" /></g><ellipse fill="#e9d3b4" fill-opacity=".501961" cx="102" cy="216" rx="6" ry="82" /><g transform="translate(112.948672 249.839641) rotate(97.149782) scale(19.396402 59.807479)"><ellipse fill="#cebea5" fill-opacity=".501961" cx="0" cy="0" rx="1" ry="1" /></g><path d="M0 0h1638v2048H0z" fill="#301407" /><ellipse fill="#b19a79" fill-opacity=".501961" cx="98" cy="158" rx="33" ry="14" /><g transform="translate(10 13) rotate(194) scale(38 49)"><path d="M0 0h1638v2048H0z" fill="#ded0b9" /></g></g></svg>