<svg xmlns="http://www.w3.org/2000/svg" viewBox="0 0 4702 3762"><filter id="b"><feGaussianBlur stdDeviation="12" /></filter><path d="M0 0h4702v3762H0z" fill="#938875" /><g filter="url(#b)" transform="scale(18.367188) translate(0.5 0.5)"><g transform="translate(94.666615 180.408949) rotate(361.004420) scale(200.547906 33.495859)"><ellipse fill="#001101" fill-opacity=".501961" cx="0" cy="0" rx="1" ry="1" /></g><g transform="translate(208.912283 102.934696) rotate(5.711447) scale(97.455359 37.177311)"><ellipse fill="#fffdcb" fill-opacity=".501961" cx="0" cy="0" rx="1" ry="1" /></g><g transform="translate(28.281034 92.534921) rotate(192.001322) scale(50.399756 30.938470)"><ellipse fill="#ffc" fill-opacity=".501961" cx="0" cy="0" rx="1" ry="1" /></g><g transform="translate(69.297381 146.046776) rotate(117.718144) scale(18.471331 55.647014)"><ellipse fill="#ba9d8d" fill-opacity=".501961" cx="0" cy="0" rx="1" ry="1" /></g><g transform="translate(223.432785 89.783846) rotate(174.938787) scale(108.420506 27.359069)"><ellipse fill="#ffd7ad" fill-opacity=".501961" cx="0" cy="0" rx="1" ry="1" /></g><ellipse fill="#192a27" fill-opacity=".501961" cx="170" cy="170" rx="40" ry="33" /><g transform="translate(32.317664 90.914379) rotate(261.033753) scale(25.068154 45.812716)"><ellipse fill="#ffdfab" fill-opacity=".501961" cx="0" cy="0" rx="1" ry="1" /></g><path d="M0 0h4702v3762H0z" fill="#555056" /></g></svg>