<svg xmlns="http://www.w3.org/2000/svg" viewBox="0 0 2048 683"><filter id="b"><feGaussianBlur stdDeviation="12" /></filter><path d="M0 0h2048v683H0z" fill="#98877a" /><g filter="url(#b)" transform="scale(8.000000) translate(0.5 0.5)"><g transform="translate(23.058350 52.532617) rotate(169.397600) scale(35.826427 24.845681)"><ellipse fill="#000" fill-opacity=".501961" cx="0" cy="0" rx="1" ry="1" /></g><g transform="translate(118.731042 0.000000) rotate(268.211322) scale(29.089356 140.207997)"><ellipse fill="#fff" fill-opacity=".501961" cx="0" cy="0" rx="1" ry="1" /></g><g transform="translate(249.747190 54.111411) rotate(211.241390) scale(36.247347 47.535067)"><ellipse fill="#3b0c00" fill-opacity=".501961" cx="0" cy="0" rx="1" ry="1" /></g><g transform="translate(137.721018 58.436742) rotate(284.035322) scale(11.785076 60.592656)"><ellipse fill="#3b2d1b" fill-opacity=".501961" cx="0" cy="0" rx="1" ry="1" /></g><g transform="translate(84.766742 84.000000) rotate(89.620596) scale(28.055594 43.879310)"><ellipse fill="#d1c7cb" fill-opacity=".501961" cx="0" cy="0" rx="1" ry="1" /></g><g transform="translate(151.446271 37.553323) rotate(351.590113) scale(107.522114 8.096914)"><ellipse fill="#5d4c37" fill-opacity=".501961" cx="0" cy="0" rx="1" ry="1" /></g><ellipse fill="#eee0e1" fill-opacity=".501961" cx="86" cy="7" rx="60" ry="29" /><g transform="translate(196.270944 51.324806) rotate(90.323691) scale(12.923084 34.367185)"><ellipse fill="#e79964" fill-opacity=".501961" cx="0" cy="0" rx="1" ry="1" /></g></g></svg>