<svg xmlns="http://www.w3.org/2000/svg" viewBox="0 0 2048 2048"><filter id="b"><feGaussianBlur stdDeviation="12" /></filter><path d="M0 0h2048v2048H0z" fill="#655954" /><g filter="url(#b)" transform="scale(8.000000) translate(0.5 0.5)"><g transform="translate(106.794674 41.604371) rotate(178.108139) scale(71.699925 102.450309)"><ellipse fill="#fdcab1" fill-opacity=".501961" cx="0" cy="0" rx="1" ry="1" /></g><g transform="translate(116.026568 215.126086) rotate(269.556196) scale(64.061251 255.000000)"><ellipse fill="#001330" fill-opacity=".501961" cx="0" cy="0" rx="1" ry="1" /></g><g transform="translate(121.902204 140.294391) rotate(235.536187) scale(28.264704 64.399037)"><ellipse fill="#c06f56" fill-opacity=".501961" cx="0" cy="0" rx="1" ry="1" /></g><g transform="translate(97.603315 34.453195) rotate(193.540871) scale(24.129034 70.235979)"><ellipse fill="#d1d4e0" fill-opacity=".501961" cx="0" cy="0" rx="1" ry="1" /></g><g transform="translate(223.513432 137.478185) rotate(79.260277) scale(64.104791 46.379313)"><ellipse fill="#30251a" fill-opacity=".501961" cx="0" cy="0" rx="1" ry="1" /></g><g transform="translate(170.550352 35.824819) rotate(283.588760) scale(73.424188 31.132374)"><ellipse fill="#a56f3a" fill-opacity=".501961" cx="0" cy="0" rx="1" ry="1" /></g><g transform="translate(80.097928 242.130363) rotate(134.505595) scale(32.749559 50.789969)"><ellipse fill="#004f7a" fill-opacity=".501961" cx="0" cy="0" rx="1" ry="1" /></g><g transform="translate(13.277416 185.861155) rotate(344.367214) scale(38.506281 71.201848)"><ellipse fill="#111b20" fill-opacity=".501961" cx="0" cy="0" rx="1" ry="1" /></g></g></svg>