<svg xmlns="http://www.w3.org/2000/svg" viewBox="0 0 2048 982"><filter id="b"><feGaussianBlur stdDeviation="12" /></filter><path d="M0 0h2048v982H0z" fill="#a0947f" /><g filter="url(#b)" transform="scale(8.000000) translate(0.5 0.5)"><g transform="translate(149.976802 60.757434) rotate(285.148100) scale(48.295480 60.213241)"><ellipse fill="#efe4c9" fill-opacity=".501961" cx="0" cy="0" rx="1" ry="1" /></g><ellipse fill="#3b2a1d" fill-opacity=".501961" cx="16" cy="100" rx="23" ry="121" /><ellipse fill="#132940" fill-opacity=".501961" cx="102" cy="113" rx="254" ry="6" /><g transform="translate(135.791937 0.000000) rotate(90.013066) scale(13.231616 182.125028)"><ellipse fill="#6b4a23" fill-opacity=".501961" cx="0" cy="0" rx="1" ry="1" /></g><g transform="translate(169.717361 57.030382) rotate(289.678376) scale(25.658573 15.143831)"><ellipse fill="#66816a" fill-opacity=".501961" cx="0" cy="0" rx="1" ry="1" /></g><ellipse fill="#98baca" fill-opacity=".501961" cx="173" cy="102" rx="138" ry="8" /><ellipse fill="#ffd2b2" fill-opacity=".501961" cx="122" cy="38" rx="30" ry="29" /><g transform="translate(46.565980 83.435562) rotate(144.397305) scale(22.785267 14.851347)"><ellipse fill="#e7c5a1" fill-opacity=".501961" cx="0" cy="0" rx="1" ry="1" /></g></g></svg>