<svg xmlns="http://www.w3.org/2000/svg" viewBox="0 0 2048 1841"><filter id="b"><feGaussianBlur stdDeviation="12" /></filter><path d="M0 0h2048v1841H0z" fill="#4e574a" /><g filter="url(#b)" transform="scale(8.000000) translate(0.5 0.5)"><ellipse fill="#fff" fill-opacity=".501961" cx="125" cy="23" rx="255" ry="29" /><g transform="translate(55.527512 196.514916) rotate(264.746137) scale(134.371219 255.000000)"><ellipse fill="#000100" fill-opacity=".501961" cx="0" cy="0" rx="1" ry="1" /></g><ellipse fill="#fff" fill-opacity=".501961" cx="145" cy="21" rx="255" ry="28" /><ellipse fill="#fff" fill-opacity=".501961" cx="203" cy="18" rx="154" ry="31" /><g transform="translate(93 127) rotate(99) scale(39 44)"><path d="M0 0h2048v1841H0z" fill="#907a89" /></g><g transform="translate(94.391612 204.637965) rotate(12.703881) scale(235.643743 57.458832)"><ellipse fill="#000d02" fill-opacity=".501961" cx="0" cy="0" rx="1" ry="1" /></g><g transform="translate(169.167804 150.897130) rotate(197.519314) scale(43.498281 21.468954)"><ellipse fill="#526461" fill-opacity=".501961" cx="0" cy="0" rx="1" ry="1" /></g><path fill="#485415" fill-opacity=".501961" d="M192 145l79-79L92 61z" /></g></svg>