<svg xmlns="http://www.w3.org/2000/svg" viewBox="0 0 2048 1365"><filter id="b"><feGaussianBlur stdDeviation="12" /></filter><path d="M0 0h2048v1365H0z" fill="#5c3d39" /><g filter="url(#b)" transform="scale(8.000000) translate(0.5 0.5)"><g transform="translate(144.482642 8.653706) rotate(6.072139) scale(171.951049 32.447636)"><ellipse fill="#000" fill-opacity=".501961" cx="0" cy="0" rx="1" ry="1" /></g><path fill="#ff5a5a" fill-opacity=".501961" d="M79 127-16 73 105 25z" /><g transform="translate(133.390233 77.114369) rotate(152.975824) scale(12.147812 42.865877)"><ellipse fill="#ff5c6a" fill-opacity=".501961" cx="0" cy="0" rx="1" ry="1" /></g><ellipse fill="#e6354a" fill-opacity=".501961" cx="247" cy="87" rx="60" ry="38" /><g transform="translate(156.601999 136.611273) rotate(33.763812) scale(16.886914 23.741356)"><ellipse fill="#ff6969" fill-opacity=".501961" cx="0" cy="0" rx="1" ry="1" /></g><g transform="translate(209.153553 150.919623) rotate(108.924721) scale(35.099238 39.719258)"><ellipse fill="#13926e" fill-opacity=".501961" cx="0" cy="0" rx="1" ry="1" /></g><g transform="translate(95.239240 154.342479) rotate(286.514192) scale(26.439532 49.321474)"><ellipse fill="#249d71" fill-opacity=".501961" cx="0" cy="0" rx="1" ry="1" /></g><path fill="#002015" fill-opacity=".501961" d="M32 112V82l85-31z" /></g></svg>