<svg xmlns="http://www.w3.org/2000/svg" viewBox="0 0 1365 2048"><filter id="b"><feGaussianBlur stdDeviation="12" /></filter><path d="M0 0h1365v2048H0z" fill="#72534a" /><g filter="url(#b)" transform="scale(8.000000) translate(0.5 0.5)"><g transform="translate(82.170568 42.666248) rotate(358.540593) scale(150.956998 49.842816)"><ellipse fill="#87b3e4" fill-opacity=".501961" cx="0" cy="0" rx="1" ry="1" /></g><ellipse fill="#6a1e00" fill-opacity=".501961" cx="87" cy="200" rx="114" ry="114" /><ellipse fill="#ff8b39" fill-opacity=".501961" cx="73" cy="187" rx="46" ry="44" /><g transform="translate(158.312539 149.833408) rotate(331.870952) scale(33.511748 63.848770)"><ellipse fill="#00070a" fill-opacity=".501961" cx="0" cy="0" rx="1" ry="1" /></g><g transform="translate(1.136945 154.865650) rotate(187.568507) scale(26.757366 51.909541)"><ellipse fill="#000002" fill-opacity=".501961" cx="0" cy="0" rx="1" ry="1" /></g><path d="M0 0h1365v2048H0z" fill="#746984" /><path fill="#ff982d" fill-opacity=".501961" d="M83.749424 155.043361 117.385807 185.942751 59.513332 205.032648 44.968491 181.152172z" /><g transform="translate(75 146) rotate(177) scale(90 41)"><path d="M0 0h1365v2048H0z" fill="#a72f00" /></g></g></svg>