<svg xmlns="http://www.w3.org/2000/svg" viewBox="0 0 2048 1638"><filter id="b"><feGaussianBlur stdDeviation="12" /></filter><path d="M0 0h2048v1638H0z" fill="#c1c6ce" /><g filter="url(#b)" transform="scale(8.000000) translate(0.5 0.5)"><g transform="translate(211.374098 140.713540) rotate(114.502930) scale(68.557067 164.273948)"><ellipse fill="#9099a0" fill-opacity=".501961" cx="0" cy="0" rx="1" ry="1" /></g><g transform="translate(135.501841 8.830643) rotate(264.393715) scale(42.874593 219.272929)"><ellipse fill="#fffeff" fill-opacity=".501961" cx="0" cy="0" rx="1" ry="1" /></g><g transform="translate(90.853734 165.755837) rotate(-43.766696) scale(29.049547 51.488586)"><ellipse fill="#f8f8ff" fill-opacity=".501961" cx="0" cy="0" rx="1" ry="1" /></g><g transform="translate(0.000000 167.147680) rotate(245.876813) scale(143.635951 32.443254)"><ellipse fill="#fff" fill-opacity=".501961" cx="0" cy="0" rx="1" ry="1" /></g><g transform="translate(159.931786 183.125957) rotate(258.697645) scale(33.012179 29.610247)"><ellipse fill="#708084" fill-opacity=".501961" cx="0" cy="0" rx="1" ry="1" /></g><ellipse fill="#fffcff" fill-opacity=".501961" cx="157" cy="181" rx="9" ry="20" /><ellipse fill="#fff" fill-opacity=".501961" cx="12" cy="77" rx="23" ry="23" /><path fill="#f2f3fd" fill-opacity=".501961" d="M230 164l-58 52 72-9z" /></g></svg>