<svg xmlns="http://www.w3.org/2000/svg" viewBox="0 0 2048 1638"><filter id="b"><feGaussianBlur stdDeviation="12" /></filter><path d="M0 0h2048v1638H0z" fill="#c3c8cd" /><g filter="url(#b)" transform="scale(8.000000) translate(0.5 0.5)"><g transform="translate(15.094729 199.258966) rotate(302.328044) scale(40.743588 26.202004)"><ellipse fill="#00140c" fill-opacity=".501961" cx="0" cy="0" rx="1" ry="1" /></g><g transform="translate(203.183724 142.056328) rotate(109.721102) scale(29.387298 20.331952)"><ellipse fill="#3b5656" fill-opacity=".501961" cx="0" cy="0" rx="1" ry="1" /></g><ellipse fill="#feffff" fill-opacity=".501961" cx="89" cy="21" rx="253" ry="31" /><ellipse fill="#5e6357" fill-opacity=".501961" cx="7" cy="109" rx="33" ry="14" /><g transform="translate(74.230236 145.332928) rotate(143.654614) scale(36.660682 12.028255)"><ellipse fill="#867f70" fill-opacity=".501961" cx="0" cy="0" rx="1" ry="1" /></g><path fill="#556a6a" fill-opacity=".501961" d="M153 116l68 13-11 46z" /><g transform="translate(124.804623 203.000000) rotate(129.254937) scale(19.749223 56.238540)"><ellipse fill="#fff" fill-opacity=".501961" cx="0" cy="0" rx="1" ry="1" /></g><g transform="translate(118.754553 126.948231) rotate(264.550890) scale(31.954365 17.064126)"><ellipse fill="#fff" fill-opacity=".501961" cx="0" cy="0" rx="1" ry="1" /></g></g></svg>