<svg xmlns="http://www.w3.org/2000/svg" viewBox="0 0 1364 2048"><filter id="b"><feGaussianBlur stdDeviation="12" /></filter><path d="M0 0h1364v2048H0z" fill="#2f546e" /><g filter="url(#b)" transform="scale(8.000000) translate(0.5 0.5)"><g transform="translate(96.332751 39.293539) rotate(282.962977) scale(62.037278 153.219410)"><ellipse fill="#32b4ff" fill-opacity=".501961" cx="0" cy="0" rx="1" ry="1" /></g><g transform="translate(57.005353 207.505511) rotate(-57.034065) scale(82.816841 120.720982)"><ellipse fill="#230000" fill-opacity=".501961" cx="0" cy="0" rx="1" ry="1" /></g><ellipse fill="#ffb48b" fill-opacity=".501961" cx="116" cy="64" rx="33" ry="33" /><g transform="translate(169.000000 132.233065) rotate(297.716766) scale(21.948312 64.233648)"><ellipse fill="#dd8739" fill-opacity=".501961" cx="0" cy="0" rx="1" ry="1" /></g><ellipse fill="#0059de" fill-opacity=".501961" cx="46" cy="0" rx="64" ry="64" /><g transform="translate(98.552144 64.514020) rotate(99.400669) scale(26.651066 14.143096)"><ellipse fill="#fff" fill-opacity=".501961" cx="0" cy="0" rx="1" ry="1" /></g><path d="M0 0h1364v2048H0z" fill="#ce9d81" /><path fill="#ffda8d" fill-opacity=".501961" d="M-12.613308 115.263216-16 20.705301 15.262493 61.372329 19.493101 70.152227z" /></g></svg>