<svg xmlns="http://www.w3.org/2000/svg" viewBox="0 0 2048 1365"><filter id="b"><feGaussianBlur stdDeviation="12" /></filter><path d="M0 0h2048v1365H0z" fill="#393f44" /><g filter="url(#b)" transform="scale(8.000000) translate(0.5 0.5)"><ellipse fill="#7197dd" fill-opacity=".501961" cx="137" cy="0" rx="97" ry="97" /><g transform="translate(115.569634 134.205454) rotate(181.786852) scale(255.000000 46.314019)"><ellipse fill="#271500" fill-opacity=".501961" cx="0" cy="0" rx="1" ry="1" /></g><path d="M0 0h2048v1365H0z" fill="#e4c7dc" /><g transform="translate(20.008634 96.626920) rotate(83.946270) scale(218.377592 27.678985)"><ellipse fill="#020000" fill-opacity=".501961" cx="0" cy="0" rx="1" ry="1" /></g><g transform="translate(79.077374 10.233215) rotate(83.705919) scale(12.046886 41.252707)"><ellipse fill="#a2deff" fill-opacity=".501961" cx="0" cy="0" rx="1" ry="1" /></g><g transform="translate(216.212688 136.074260) rotate(409.505290) scale(45.613728 77.020965)"><ellipse fill="#100f00" fill-opacity=".501961" cx="0" cy="0" rx="1" ry="1" /></g><g transform="translate(232.749238 23.423741) rotate(256.930063) scale(19.020460 89.347901)"><ellipse fill="#06346f" fill-opacity=".501961" cx="0" cy="0" rx="1" ry="1" /></g><g transform="translate(113 133) rotate(181) scale(243 24)"><path d="M0 0h2048v1365H0z" fill="#6d5800" /></g></g></svg>