<svg xmlns="http://www.w3.org/2000/svg" viewBox="0 0 2048 2048"><filter id="b"><feGaussianBlur stdDeviation="12" /></filter><path d="M0 0h2048v2048H0z" fill="#979b92" /><g filter="url(#b)" transform="scale(8.000000) translate(0.5 0.5)"><g transform="translate(40.291822 135.297402) rotate(265.497694) scale(38.814023 137.937450)"><ellipse fill="#092100" fill-opacity=".501961" cx="0" cy="0" rx="1" ry="1" /></g><g transform="translate(172.205671 255.000000) rotate(-45.965449) scale(237.065615 45.080448)"><ellipse fill="#f4feff" fill-opacity=".501961" cx="0" cy="0" rx="1" ry="1" /></g><ellipse fill="#dae3f1" fill-opacity=".501961" cx="63" cy="255" rx="83" ry="83" /><g transform="translate(5.356122 118.204887) rotate(322.536963) scale(33.473965 67.883954)"><ellipse fill="#120" fill-opacity=".501961" cx="0" cy="0" rx="1" ry="1" /></g><path fill="#000" fill-opacity=".501961" d="M51 222l7-61 13 62z" /><path fill="#2e3937" fill-opacity=".501961" d="M190 213l-50 3 13-88z" /><g transform="translate(233.515389 47.387603) rotate(60.752387) scale(38.241608 28.473913)"><ellipse fill="#84721e" fill-opacity=".501961" cx="0" cy="0" rx="1" ry="1" /></g><g transform="translate(168.469416 50.940565) rotate(85.463023) scale(41.335356 17.709466)"><ellipse fill="#1a5c7f" fill-opacity=".501961" cx="0" cy="0" rx="1" ry="1" /></g></g></svg>