<svg xmlns="http://www.w3.org/2000/svg" viewBox="0 0 2048 1365"><filter id="b"><feGaussianBlur stdDeviation="12" /></filter><path d="M0 0h2048v1365H0z" fill="#a69e9a" /><g filter="url(#b)" transform="scale(8.000000) translate(0.5 0.5)"><g transform="translate(236.044288 21.022726) rotate(294.133464) scale(30.274019 188.224011)"><ellipse fill="#492500" fill-opacity=".501961" cx="0" cy="0" rx="1" ry="1" /></g><g transform="translate(35.857753 33.501192) rotate(50.401543) scale(39.947963 92.794051)"><ellipse fill="#f6feff" fill-opacity=".501961" cx="0" cy="0" rx="1" ry="1" /></g><g transform="translate(99.325703 87.108926) rotate(34.339413) scale(15.704253 12.336128)"><ellipse fill="#2c2b25" fill-opacity=".501961" cx="0" cy="0" rx="1" ry="1" /></g><g transform="translate(157.957437 166.192592) rotate(155.270270) scale(105.896271 22.014983)"><ellipse fill="#c0c1cd" fill-opacity=".501961" cx="0" cy="0" rx="1" ry="1" /></g><path d="M0 0h2048v1365H0z" fill="#625648" /><path d="M0 0h2048v1365H0z" fill="#040e07" /><g transform="translate(239.788534 11.173141) rotate(309.423315) scale(6.755388 56.648453)"><ellipse fill="#b6acb2" fill-opacity=".501961" cx="0" cy="0" rx="1" ry="1" /></g><ellipse fill="#625a5c" fill-opacity=".501961" cx="32" cy="169" rx="32" ry="13" /></g></svg>