<svg xmlns="http://www.w3.org/2000/svg" viewBox="0 0 2048 1365"><filter id="b"><feGaussianBlur stdDeviation="12" /></filter><path d="M0 0h2048v1365H0z" fill="#8f706a" /><g filter="url(#b)" transform="scale(8.000000) translate(0.5 0.5)"><g transform="translate(114.998724 8.866060) rotate(90.121861) scale(12.823610 255.000000)"><ellipse fill="#fff" fill-opacity=".501961" cx="0" cy="0" rx="1" ry="1" /></g><g transform="translate(119 136) rotate(102) scale(41 169)"><path d="M0 0h2048v1365H0z" fill="#001219" /></g><g transform="translate(196.958329 105.718916) rotate(-1.035204) scale(26.154753 40.319315)"><ellipse fill="#03242e" fill-opacity=".501961" cx="0" cy="0" rx="1" ry="1" /></g><g transform="translate(61.614052 85.934516) rotate(48.712322) scale(11.595876 36.572060)"><ellipse fill="#000006" fill-opacity=".501961" cx="0" cy="0" rx="1" ry="1" /></g><ellipse fill="#fff" fill-opacity=".501961" cx="104" cy="5" rx="255" ry="13" /><ellipse fill="#d6896b" fill-opacity=".501961" cx="136" cy="95" rx="55" ry="38" /><ellipse fill="#00101f" fill-opacity=".501961" cx="147" cy="146" rx="62" ry="14" /><g transform="translate(235.064433 164.526451) rotate(330.479177) scale(156.605909 33.741866)"><ellipse fill="#df8668" fill-opacity=".501961" cx="0" cy="0" rx="1" ry="1" /></g></g></svg>