<svg xmlns="http://www.w3.org/2000/svg" viewBox="0 0 2048 1638"><filter id="b"><feGaussianBlur stdDeviation="12" /></filter><path d="M0 0h2048v1638H0z" fill="#a896a9" /><g filter="url(#b)" transform="scale(8.000000) translate(0.5 0.5)"><ellipse fill="#4b1928" fill-opacity=".501961" cx="80" cy="183" rx="126" ry="52" /><g transform="translate(73.862163 43.570452) rotate(183.160482) scale(232.223961 43.825615)"><ellipse fill="#fdffff" fill-opacity=".501961" cx="0" cy="0" rx="1" ry="1" /></g><ellipse fill="#704783" fill-opacity=".501961" cx="113" cy="102" rx="255" ry="16" /><g transform="translate(35.511170 62.488188) rotate(182.227090) scale(159.695735 22.070324)"><ellipse fill="#f9fffc" fill-opacity=".501961" cx="0" cy="0" rx="1" ry="1" /></g><ellipse fill="#9698da" fill-opacity=".501961" cx="171" cy="16" rx="89" ry="27" /><g transform="translate(52 201) rotate(175) scale(71 65)"><path d="M0 0h2048v1638H0z" fill="#291a36" /></g><g transform="translate(222.026464 185.102209) rotate(221.778691) scale(59.649865 31.203798)"><ellipse fill="#a87a66" fill-opacity=".501961" cx="0" cy="0" rx="1" ry="1" /></g><ellipse fill="#c1e6f7" fill-opacity=".501961" cx="235" cy="53" rx="79" ry="35" /></g></svg>