<svg xmlns="http://www.w3.org/2000/svg" viewBox="0 0 2048 2048"><filter id="b"><feGaussianBlur stdDeviation="12" /></filter><path d="M0 0h2048v2048H0z" fill="#a7a292" /><g filter="url(#b)" transform="scale(8.000000) translate(0.5 0.5)"><g transform="translate(158.783115 57.098981) rotate(352.790035) scale(173.149653 65.309695)"><ellipse fill="#7b6337" fill-opacity=".501961" cx="0" cy="0" rx="1" ry="1" /></g><g transform="translate(106.317832 201.293442) rotate(93.448992) scale(76.990073 251.138935)"><ellipse fill="#cfdae4" fill-opacity=".501961" cx="0" cy="0" rx="1" ry="1" /></g><g transform="translate(131.372966 68.101999) rotate(247.661297) scale(36.079244 23.724539)"><ellipse fill="#ff5200" fill-opacity=".501961" cx="0" cy="0" rx="1" ry="1" /></g><g transform="translate(155 218) rotate(88) scale(41 48)"><path d="M0 0h2048v2048H0z" fill="#565744" /></g><g transform="translate(59.061016 208.393490) rotate(289.186243) scale(22.273030 39.966820)"><ellipse fill="#fdfff9" fill-opacity=".501961" cx="0" cy="0" rx="1" ry="1" /></g><ellipse fill="#44573d" fill-opacity=".501961" cx="191" cy="42" rx="23" ry="47" /><g transform="translate(154.943496 55.834300) rotate(178.528953) scale(6.651095 32.393586)"><ellipse fill="#ffecb2" fill-opacity=".501961" cx="0" cy="0" rx="1" ry="1" /></g><g transform="translate(49.330915 52.663708) rotate(239.028521) scale(114.524191 47.030555)"><ellipse fill="#97a68f" fill-opacity=".501961" cx="0" cy="0" rx="1" ry="1" /></g></g></svg>