<svg xmlns="http://www.w3.org/2000/svg" viewBox="0 0 2048 2048"><filter id="b"><feGaussianBlur stdDeviation="12" /></filter><path d="M0 0h2048v2048H0z" fill="#a3a598" /><g filter="url(#b)" transform="scale(8.000000) translate(0.5 0.5)"><g transform="translate(90.508991 227.049507) rotate(274.972458) scale(42.610427 157.995578)"><ellipse fill="#e3f1fc" fill-opacity=".501961" cx="0" cy="0" rx="1" ry="1" /></g><g transform="translate(19.136126 22.526681) rotate(255.506795) scale(25.397035 123.329250)"><ellipse fill="#2e4a15" fill-opacity=".501961" cx="0" cy="0" rx="1" ry="1" /></g><g transform="translate(240.888678 123.815485) rotate(260.784195) scale(54.166682 88.699533)"><ellipse fill="#525f41" fill-opacity=".501961" cx="0" cy="0" rx="1" ry="1" /></g><g transform="translate(167.559110 40.543726) rotate(145.753514) scale(64.397104 33.229990)"><ellipse fill="#ece6f0" fill-opacity=".501961" cx="0" cy="0" rx="1" ry="1" /></g><path fill="#692200" fill-opacity=".501961" d="M76 119l36-25v70z" /><path fill="#a49377" fill-opacity=".501961" d="M105 136l152-11-87 108z" /><path fill="#254b27" fill-opacity=".501961" d="M17.565807 131.535693 18.742062 108.061394 25.499008 55.856939 2.189412 130.082037z" /><g transform="translate(92.457759 43.240412) rotate(-45.918620) scale(70.207692 14.101608)"><ellipse fill="#7b7255" fill-opacity=".501961" cx="0" cy="0" rx="1" ry="1" /></g></g></svg>