<svg xmlns="http://www.w3.org/2000/svg" viewBox="0 0 2048 2048"><filter id="b"><feGaussianBlur stdDeviation="12" /></filter><path d="M0 0h2048v2048H0z" fill="#979b92" /><g filter="url(#b)" transform="scale(8.000000) translate(0.5 0.5)"><g transform="translate(57.017025 129.149821) rotate(175.733037) scale(117.956437 44.637740)"><ellipse fill="#142c09" fill-opacity=".501961" cx="0" cy="0" rx="1" ry="1" /></g><ellipse fill="#d4deeb" fill-opacity=".501961" cx="185" cy="225" rx="255" ry="61" /><g transform="translate(153.309163 190.896182) rotate(126.072442) scale(30.812020 20.505828)"><ellipse fill="#222b22" fill-opacity=".501961" cx="0" cy="0" rx="1" ry="1" /></g><g transform="translate(242.477048 166.292450) rotate(176.907250) scale(35.371748 76.632953)"><ellipse fill="#e5e9f3" fill-opacity=".501961" cx="0" cy="0" rx="1" ry="1" /></g><path d="M0 0h2048v2048H0z" fill="#000" /><g transform="translate(13.354192 144.338571) rotate(6.505161) scale(50.239840 32.845024)"><ellipse fill="#081400" fill-opacity=".501961" cx="0" cy="0" rx="1" ry="1" /></g><ellipse fill="#96957d" fill-opacity=".501961" cx="73" cy="74" rx="49" ry="49" /><ellipse fill="#82721e" fill-opacity=".501961" cx="233" cy="50" rx="27" ry="38" /></g></svg>