<svg xmlns="http://www.w3.org/2000/svg" viewBox="0 0 2048 2048"><filter id="b"><feGaussianBlur stdDeviation="12" /></filter><path d="M0 0h2048v2048H0z" fill="#a1aba3" /><g filter="url(#b)" transform="scale(8.000000) translate(0.5 0.5)"><g transform="translate(255.000000 134.510183) rotate(91.783580) scale(23.105316 87.507029)"><ellipse fill="#4e601f" fill-opacity=".501961" cx="0" cy="0" rx="1" ry="1" /></g><ellipse fill="#dad9c7" fill-opacity=".501961" cx="109" cy="68" rx="210" ry="37" /><g transform="translate(132.054830 125.069645) rotate(415.569341) scale(77.518399 11.581677)"><ellipse fill="#0dc9d1" fill-opacity=".501961" cx="0" cy="0" rx="1" ry="1" /></g><g transform="translate(20.905460 231.406341) rotate(274.673056) scale(81.002442 32.673263)"><ellipse fill="#727479" fill-opacity=".501961" cx="0" cy="0" rx="1" ry="1" /></g><path fill="#000" fill-opacity=".501961" d="M239.249095-14.91464 271 9.924208 248.705287 24.86204 247.17149 24.3941z" /><g transform="translate(173.475029 187.878545) rotate(224.458289) scale(87.076297 22.750892)"><ellipse fill="#63a0a8" fill-opacity=".501961" cx="0" cy="0" rx="1" ry="1" /></g><path fill="#41361a" fill-opacity=".501961" d="M23 17-16 1 62 11z" /><ellipse fill="#1c3b3e" fill-opacity=".501961" cx="74" cy="140" rx="3" ry="59" /></g></svg>