<svg xmlns="http://www.w3.org/2000/svg" viewBox="0 0 2048 1365"><filter id="b"><feGaussianBlur stdDeviation="12" /></filter><path d="M0 0h2048v1365H0z" fill="#a69e9a" /><g filter="url(#b)" transform="scale(8.000000) translate(0.5 0.5)"><g transform="translate(210.202045 9.873896) rotate(295.919983) scale(29.515478 203.857808)"><ellipse fill="#492600" fill-opacity=".501961" cx="0" cy="0" rx="1" ry="1" /></g><g transform="translate(21.817574 31.401586) rotate(324.237669) scale(112.899755 49.582905)"><ellipse fill="#f6fdff" fill-opacity=".501961" cx="0" cy="0" rx="1" ry="1" /></g><path fill="#554d45" fill-opacity=".501961" d="M123 143 79 77l42-2z" /><path d="M0 0h2048v1365H0z" fill="#64584a" /><g transform="translate(169.629734 156.116686) rotate(157.016756) scale(92.568018 17.350093)"><ellipse fill="#c2c3cf" fill-opacity=".501961" cx="0" cy="0" rx="1" ry="1" /></g><g transform="translate(235.020182 9.547814) rotate(129.251146) scale(5.526354 40.694974)"><ellipse fill="#c3b6be" fill-opacity=".501961" cx="0" cy="0" rx="1" ry="1" /></g><g transform="translate(47.472700 113.267796) rotate(179.529775) scale(3.032292 66.911105)"><ellipse fill="#765845" fill-opacity=".501961" cx="0" cy="0" rx="1" ry="1" /></g><g transform="translate(109.120917 39.310356) rotate(173.632205) scale(20.911769 41.324273)"><ellipse fill="#c7beb8" fill-opacity=".501961" cx="0" cy="0" rx="1" ry="1" /></g></g></svg>