<svg xmlns="http://www.w3.org/2000/svg" viewBox="0 0 2048 1365"><filter id="b"><feGaussianBlur stdDeviation="12" /></filter><path d="M0 0h2048v1365H0z" fill="#78544d" /><g filter="url(#b)" transform="scale(8.000000) translate(0.5 0.5)"><g transform="translate(208.698521 155.421740) rotate(189.666081) scale(64.542709 17.082335)"><ellipse fill="#fff" fill-opacity=".501961" cx="0" cy="0" rx="1" ry="1" /></g><ellipse fill="#e1ecee" fill-opacity=".501961" cx="159" cy="97" rx="111" ry="21" /><g transform="translate(65.803229 32.760543) rotate(267.498698) scale(40.600967 206.518464)"><ellipse fill="#2f0200" fill-opacity=".501961" cx="0" cy="0" rx="1" ry="1" /></g><g transform="translate(107.222664 94.982804) rotate(124.677932) scale(23.496954 61.937126)"><ellipse fill="#dbdcd9" fill-opacity=".501961" cx="0" cy="0" rx="1" ry="1" /></g><g transform="translate(21.640295 91.372249) rotate(402.529031) scale(56.733658 31.760381)"><ellipse fill="#210905" fill-opacity=".501961" cx="0" cy="0" rx="1" ry="1" /></g><ellipse fill="#4c382f" fill-opacity=".501961" cx="163" cy="77" rx="65" ry="22" /><g transform="translate(106.831908 169.000000) rotate(41.997509) scale(80.622698 31.537018)"><ellipse fill="#811800" fill-opacity=".501961" cx="0" cy="0" rx="1" ry="1" /></g><g transform="translate(215.985547 158.669546) rotate(282.450570) scale(13.661850 67.081171)"><ellipse fill="#fffbf3" fill-opacity=".501961" cx="0" cy="0" rx="1" ry="1" /></g></g></svg>