<svg xmlns="http://www.w3.org/2000/svg" viewBox="0 0 2048 1638"><filter id="b"><feGaussianBlur stdDeviation="12" /></filter><path d="M0 0h2048v1638H0z" fill="#a896a9" /><g filter="url(#b)" transform="scale(8.000000) translate(0.5 0.5)"><g transform="translate(96 179) rotate(91) scale(81 203)"><path d="M0 0h2048v1638H0z" fill="#4a1726" /></g><g transform="translate(71.073110 44.134417) rotate(271.993888) scale(43.722812 255.000000)"><ellipse fill="#fcffff" fill-opacity=".501961" cx="0" cy="0" rx="1" ry="1" /></g><ellipse fill="#603e80" fill-opacity=".501961" cx="67" cy="101" rx="163" ry="15" /><g transform="translate(197.595362 12.319811) rotate(262.283083) scale(25.186029 115.658197)"><ellipse fill="#9491d4" fill-opacity=".501961" cx="0" cy="0" rx="1" ry="1" /></g><g transform="translate(52.527916 195.633322) rotate(294.227273) scale(23.731326 38.674139)"><ellipse fill="#211633" fill-opacity=".501961" cx="0" cy="0" rx="1" ry="1" /></g><g transform="translate(57.376211 65.662894) rotate(268.776308) scale(20.706475 183.853292)"><ellipse fill="#f0fffc" fill-opacity=".501961" cx="0" cy="0" rx="1" ry="1" /></g><g transform="translate(222.151990 178.143307) rotate(117.755920) scale(35.885302 48.255782)"><ellipse fill="#ac7f6a" fill-opacity=".501961" cx="0" cy="0" rx="1" ry="1" /></g><g transform="translate(128.885082 138.981853) rotate(304.646662) scale(29.078520 9.316182)"><ellipse fill="#342554" fill-opacity=".501961" cx="0" cy="0" rx="1" ry="1" /></g></g></svg>