<svg xmlns="http://www.w3.org/2000/svg" viewBox="0 0 2048 1638"><filter id="b"><feGaussianBlur stdDeviation="12" /></filter><path d="M0 0h2048v1638H0z" fill="#b2796a" /><g filter="url(#b)" transform="scale(8.000000) translate(0.5 0.5)"><g transform="translate(221.747727 94.704676) rotate(121.048621) scale(153.049019 43.927024)"><ellipse fill="#7e0100" fill-opacity=".501961" cx="0" cy="0" rx="1" ry="1" /></g><g transform="translate(93.237067 112.096632) rotate(122.317583) scale(139.727418 57.216338)"><ellipse fill="#e0d6d1" fill-opacity=".501961" cx="0" cy="0" rx="1" ry="1" /></g><g transform="translate(44 10) rotate(183) scale(47 53)"><path d="M0 0h2048v1638H0z" fill="#400000" /></g><g transform="translate(174.481275 63.500670) rotate(161.596312) scale(18.940148 36.696381)"><ellipse fill="#fffadc" fill-opacity=".501961" cx="0" cy="0" rx="1" ry="1" /></g><g transform="translate(94.049891 176.098426) rotate(235.234841) scale(148.115301 24.203502)"><ellipse fill="#e3dfe1" fill-opacity=".501961" cx="0" cy="0" rx="1" ry="1" /></g><ellipse fill="#290000" fill-opacity=".501961" cx="252" cy="68" rx="21" ry="73" /><g transform="translate(209.015290 30.395640) rotate(351.231803) scale(23.348321 95.620867)"><ellipse fill="#c03900" fill-opacity=".501961" cx="0" cy="0" rx="1" ry="1" /></g><ellipse fill="#791e00" fill-opacity=".501961" cx="163" cy="155" rx="23" ry="65" /></g></svg>