<svg xmlns="http://www.w3.org/2000/svg" viewBox="0 0 2048 1365"><filter id="b"><feGaussianBlur stdDeviation="12" /></filter><path d="M0 0h2048v1365H0z" fill="#8f706a" /><g filter="url(#b)" transform="scale(8.000000) translate(0.5 0.5)"><g transform="translate(116.838531 3.956298) rotate(269.970434) scale(18.922936 246.987181)"><ellipse fill="#fff" fill-opacity=".501961" cx="0" cy="0" rx="1" ry="1" /></g><ellipse fill="#00000b" fill-opacity=".501961" cx="143" cy="140" rx="73" ry="20" /><g transform="translate(62.592963 107.461393) rotate(415.321065) scale(33.197142 22.999665)"><ellipse fill="#00111d" fill-opacity=".501961" cx="0" cy="0" rx="1" ry="1" /></g><g transform="translate(199.373446 99.900190) rotate(71.333969) scale(35.828369 25.088666)"><ellipse fill="#062832" fill-opacity=".501961" cx="0" cy="0" rx="1" ry="1" /></g><ellipse fill="#fff" fill-opacity=".501961" cx="106" cy="5" rx="255" ry="13" /><g transform="translate(141.330372 90.634579) rotate(279.792486) scale(44.874740 45.919842)"><ellipse fill="#d28668" fill-opacity=".501961" cx="0" cy="0" rx="1" ry="1" /></g><ellipse fill="#8e504b" fill-opacity=".501961" cx="82" cy="47" rx="136" ry="31" /><ellipse fill="#001423" fill-opacity=".501961" cx="142" cy="145" rx="57" ry="13" /></g></svg>