<svg xmlns="http://www.w3.org/2000/svg" viewBox="0 0 2048 1365"><filter id="b"><feGaussianBlur stdDeviation="12" /></filter><path d="M0 0h2048v1365H0z" fill="#8f706a" /><g filter="url(#b)" transform="scale(8.000000) translate(0.5 0.5)"><g transform="translate(126.660153 8.176981) rotate(360.145785) scale(247.136514 14.344661)"><ellipse fill="#fff" fill-opacity=".501961" cx="0" cy="0" rx="1" ry="1" /></g><g transform="translate(136 141) rotate(4) scale(138 35)"><path d="M0 0h2048v1365H0z" fill="#00000c" /></g><path fill="#00131d" fill-opacity=".501961" d="M24 103 77 61l12 88z" /><path fill="#062832" fill-opacity=".501961" d="M240 89 171 54l10 113z" /><ellipse fill="#fff" fill-opacity=".501961" cx="116" cy="0" rx="255" ry="18" /><g transform="translate(134.634364 93.519657) rotate(269.945815) scale(40.394396 59.823420)"><ellipse fill="#c88368" fill-opacity=".501961" cx="0" cy="0" rx="1" ry="1" /></g><g transform="translate(241.674105 137.174459) rotate(193.097931) scale(23.723977 162.090557)"><ellipse fill="#de8169" fill-opacity=".501961" cx="0" cy="0" rx="1" ry="1" /></g><path fill="#001823" fill-opacity=".501961" d="M225 131 90 134l39 34z" /></g></svg>