<svg xmlns="http://www.w3.org/2000/svg" viewBox="0 0 2048 1638"><filter id="b"><feGaussianBlur stdDeviation="12" /></filter><path d="M0 0h2048v1638H0z" fill="#b2796a" /><g filter="url(#b)" transform="scale(8.000000) translate(0.5 0.5)"><g transform="translate(226.438595 92.833436) rotate(212.360714) scale(46.311564 154.533672)"><ellipse fill="#7e0200" fill-opacity=".501961" cx="0" cy="0" rx="1" ry="1" /></g><ellipse fill="#dddee2" fill-opacity=".501961" cx="68" cy="172" rx="57" ry="112" /><g transform="translate(147.762554 46.826634) rotate(134.363467) scale(36.541151 61.202256)"><ellipse fill="#fff3dd" fill-opacity=".501961" cx="0" cy="0" rx="1" ry="1" /></g><ellipse fill="#420000" fill-opacity=".501961" cx="42" cy="10" rx="24" ry="31" /><g transform="translate(228.427558 51.775152) rotate(253.056786) scale(93.089819 38.732805)"><ellipse fill="#861b00" fill-opacity=".501961" cx="0" cy="0" rx="1" ry="1" /></g><g transform="translate(202.764302 187.292724) rotate(20.951161) scale(74.230824 24.230650)"><ellipse fill="#8a2500" fill-opacity=".501961" cx="0" cy="0" rx="1" ry="1" /></g><g transform="translate(209.832082 119.971303) rotate(180.234478) scale(19.573093 171.430739)"><ellipse fill="#d7602b" fill-opacity=".501961" cx="0" cy="0" rx="1" ry="1" /></g><path fill="#e1d6d5" fill-opacity=".501961" d="M162 219 64 191-16 5z" /></g></svg>