<svg xmlns="http://www.w3.org/2000/svg" viewBox="0 0 2048 2048"><filter id="b"><feGaussianBlur stdDeviation="12" /></filter><path d="M0 0h2048v2048H0z" fill="#aeb4b7" /><g filter="url(#b)" transform="scale(8.000000) translate(0.5 0.5)"><g transform="translate(255.000000 222.778505) rotate(313.338837) scale(92.351448 23.542532)"><ellipse fill="#150a00" fill-opacity=".501961" cx="0" cy="0" rx="1" ry="1" /></g><g transform="translate(113.553727 185.836145) rotate(489.430098) scale(45.559597 32.530989)"><ellipse fill="#3e443b" fill-opacity=".501961" cx="0" cy="0" rx="1" ry="1" /></g><g transform="translate(117.140683 17.431018) rotate(187.337016) scale(35.248574 37.856834)"><ellipse fill="#a0680f" fill-opacity=".501961" cx="0" cy="0" rx="1" ry="1" /></g><ellipse fill="#e1edf9" fill-opacity=".501961" cx="235" cy="45" rx="87" ry="87" /><g transform="translate(55.694241 57.830820) rotate(235.533392) scale(99.121138 45.872338)"><ellipse fill="#dce5f0" fill-opacity=".501961" cx="0" cy="0" rx="1" ry="1" /></g><ellipse fill="#68718c" fill-opacity=".501961" cx="167" cy="132" rx="45" ry="25" /><g transform="translate(136.670013 42.552248) rotate(369.178215) scale(8.122645 74.892933)"><ellipse fill="#29495a" fill-opacity=".501961" cx="0" cy="0" rx="1" ry="1" /></g><g transform="translate(86 153) rotate(60) scale(83 24)"><path d="M0 0h2048v2048H0z" fill="#495470" /></g></g></svg>