<svg xmlns="http://www.w3.org/2000/svg" viewBox="0 0 2048 2048"><filter id="b"><feGaussianBlur stdDeviation="12" /></filter><path d="M0 0h2048v2048H0z" fill="#a3a598" /><g filter="url(#b)" transform="scale(8.000000) translate(0.5 0.5)"><g transform="translate(102.999461 237.296678) rotate(277.885439) scale(54.002384 139.743979)"><ellipse fill="#e4f2fe" fill-opacity=".501961" cx="0" cy="0" rx="1" ry="1" /></g><g transform="translate(31.302324 16.585767) rotate(342.062318) scale(134.528964 29.036672)"><ellipse fill="#2f4b16" fill-opacity=".501961" cx="0" cy="0" rx="1" ry="1" /></g><ellipse fill="#556144" fill-opacity=".501961" cx="233" cy="128" rx="79" ry="59" /><g transform="translate(166.861085 44.002360) rotate(146.319138) scale(60.951530 37.307149)"><ellipse fill="#eae4ed" fill-opacity=".501961" cx="0" cy="0" rx="1" ry="1" /></g><path fill="#67310f" fill-opacity=".501961" d="M111 93l12 77-50-47z" /><path d="M0 0h2048v2048H0z" fill="#30311b" /><path d="M0 0h2048v2048H0z" fill="#002614" /><g transform="translate(212.636499 157.564583) rotate(268.296970) scale(39.340920 13.369449)"><ellipse fill="#bdc9b1" fill-opacity=".501961" cx="0" cy="0" rx="1" ry="1" /></g></g></svg>