<svg xmlns="http://www.w3.org/2000/svg" viewBox="0 0 2048 2048"><filter id="b"><feGaussianBlur stdDeviation="12" /></filter><path d="M0 0h2048v2048H0z" fill="#a7a292" /><g filter="url(#b)" transform="scale(8.000000) translate(0.5 0.5)"><g transform="translate(145.663079 59.601823) rotate(263.414826) scale(63.197138 169.752021)"><ellipse fill="#7b6437" fill-opacity=".501961" cx="0" cy="0" rx="1" ry="1" /></g><path fill="#dae7f4" fill-opacity=".501961" d="M-16 130l287 17L-5 271z" /><path d="M0 0h2048v2048H0z" fill="#ff6b1d" /><ellipse fill="#bcd5ea" fill-opacity=".501961" cx="246" cy="203" rx="73" ry="73" /><g transform="translate(90.851310 255.000000) rotate(32.696508) scale(108.654039 49.097752)"><ellipse fill="#e9dccc" fill-opacity=".501961" cx="0" cy="0" rx="1" ry="1" /></g><g transform="translate(194.349035 35.913971) rotate(181.055767) scale(21.873685 52.672964)"><ellipse fill="#44563e" fill-opacity=".501961" cx="0" cy="0" rx="1" ry="1" /></g><g transform="translate(135.441382 169.721178) rotate(88.114370) scale(98.515718 4.708681)"><ellipse fill="#625640" fill-opacity=".501961" cx="0" cy="0" rx="1" ry="1" /></g><g transform="translate(56.582032 68.117108) rotate(56.108144) scale(100.857642 44.446527)"><ellipse fill="#99a794" fill-opacity=".501961" cx="0" cy="0" rx="1" ry="1" /></g></g></svg>