<svg xmlns="http://www.w3.org/2000/svg" viewBox="0 0 2048 2048"><filter id="b"><feGaussianBlur stdDeviation="12" /></filter><path d="M0 0h2048v2048H0z" fill="#a1a99e" /><g filter="url(#b)" transform="scale(8.000000) translate(0.5 0.5)"><g transform="translate(151.779903 52.173239) rotate(272.086359) scale(57.186252 217.850066)"><ellipse fill="#807e4b" fill-opacity=".501961" cx="0" cy="0" rx="1" ry="1" /></g><g transform="translate(202.407777 200.172853) rotate(131.274975) scale(92.964389 71.006711)"><ellipse fill="#d5ddf0" fill-opacity=".501961" cx="0" cy="0" rx="1" ry="1" /></g><g transform="translate(22.535584 217.469739) rotate(128.259624) scale(45.662524 204.052124)"><ellipse fill="#d2d9f2" fill-opacity=".501961" cx="0" cy="0" rx="1" ry="1" /></g><g transform="translate(124.769493 100.852988) rotate(137.191648) scale(68.130282 34.469636)"><ellipse fill="#44868f" fill-opacity=".501961" cx="0" cy="0" rx="1" ry="1" /></g><ellipse fill="#e0ecfe" fill-opacity=".501961" cx="39" cy="114" rx="22" ry="22" /><ellipse fill="#e0cfc9" fill-opacity=".501961" cx="218" cy="21" rx="15" ry="38" /><g transform="translate(230 93) rotate(96) scale(13 61)"><path d="M0 0h2048v2048H0z" fill="#373b00" /></g><path fill="#dbb196" fill-opacity=".501961" d="M152 13 15 14l2 51z" /></g></svg>