<svg xmlns="http://www.w3.org/2000/svg" viewBox="0 0 2048 2048"><filter id="b"><feGaussianBlur stdDeviation="12" /></filter><path d="M0 0h2048v2048H0z" fill="#a09893" /><g filter="url(#b)" transform="scale(8.000000) translate(0.5 0.5)"><g transform="translate(163.148559 10.414212) rotate(295.728685) scale(27.281097 170.932114)"><ellipse fill="#462100" fill-opacity=".501961" cx="0" cy="0" rx="1" ry="1" /></g><g transform="translate(25.769060 31.294820) rotate(267.055978) scale(59.847528 39.481764)"><ellipse fill="#e7e8e9" fill-opacity=".501961" cx="0" cy="0" rx="1" ry="1" /></g><g transform="translate(158.408509 234.179711) rotate(247.680140) scale(29.689306 195.586747)"><ellipse fill="#c3c7d7" fill-opacity=".501961" cx="0" cy="0" rx="1" ry="1" /></g><path fill="#383b38" fill-opacity=".501961" d="M21.024188 105.689095 15.640534 126.410341 53.010474 179.305859l13.298963-57.49607z" /><path fill="#c1c0c8" fill-opacity=".501961" d="M65.691802 206.159529 1.231419 116.548858-16 271 49.042228 210.144956z" /><path fill="#000703" fill-opacity=".501961" d="M69 207 49 156l-3 22z" /><path fill="#344141" fill-opacity=".501961" d="M158.894012 120.923507 156.397207 181.509181 146.348407 125.908977 113.266813 92.108232z" /><g transform="translate(57.835677 70.853356) rotate(252.841754) scale(35.461657 72.584521)"><ellipse fill="#bbb2ad" fill-opacity=".501961" cx="0" cy="0" rx="1" ry="1" /></g></g></svg>