<svg xmlns="http://www.w3.org/2000/svg" viewBox="0 0 2048 2048"><filter id="b"><feGaussianBlur stdDeviation="12" /></filter><path d="M0 0h2048v2048H0z" fill="#a09e8d" /><g filter="url(#b)" transform="scale(8.000000) translate(0.5 0.5)"><g transform="translate(49.932945 135.296958) rotate(-4.717465) scale(136.528842 36.801666)"><ellipse fill="#0a1d00" fill-opacity=".501961" cx="0" cy="0" rx="1" ry="1" /></g><ellipse fill="#e0e6ec" fill-opacity=".501961" cx="176" cy="219" rx="252" ry="52" /><g transform="translate(154.086040 188.133049) rotate(302.443290) scale(34.665963 22.671155)"><ellipse fill="#383a2b" fill-opacity=".501961" cx="0" cy="0" rx="1" ry="1" /></g><g transform="translate(239.485334 166.874312) rotate(184.360024) scale(30.728879 75.987432)"><ellipse fill="#f1f4f7" fill-opacity=".501961" cx="0" cy="0" rx="1" ry="1" /></g><g transform="translate(17.301227 121.001018) rotate(151.307004) scale(25.169356 63.033423)"><ellipse fill="#0c1e00" fill-opacity=".501961" cx="0" cy="0" rx="1" ry="1" /></g><path fill="#050c00" fill-opacity=".501961" d="M51.706109 155.648349 54.828985 202.490783 55.753582 243.989255 72.460215 215.951358z" /><g transform="translate(241.814180 49.679027) rotate(301.402968) scale(32.608940 44.346312)"><ellipse fill="#8f7619" fill-opacity=".501961" cx="0" cy="0" rx="1" ry="1" /></g><path d="M0 0h2048v2048H0z" fill="#797d5b" /></g></svg>