<svg xmlns="http://www.w3.org/2000/svg" viewBox="0 0 1638 2048"><filter id="b"><feGaussianBlur stdDeviation="12" /></filter><path d="M0 0h1638v2048H0z" fill="#988873" /><g filter="url(#b)" transform="scale(8.000000) translate(0.5 0.5)"><g transform="translate(102.669904 174.276952) rotate(359.373524) scale(41.966416 65.544224)"><ellipse fill="#3d2813" fill-opacity=".501961" cx="0" cy="0" rx="1" ry="1" /></g><g transform="translate(44.294743 161.552623) rotate(96.624145) scale(71.659459 16.191825)"><ellipse fill="#e9d4b8" fill-opacity=".501961" cx="0" cy="0" rx="1" ry="1" /></g><ellipse fill="#e7d0b1" fill-opacity=".501961" cx="102" cy="200" rx="6" ry="70" /><g transform="translate(159.257657 158.374319) rotate(257.482493) scale(72.102332 16.447748)"><ellipse fill="#d8c2a7" fill-opacity=".501961" cx="0" cy="0" rx="1" ry="1" /></g><ellipse fill="#d1c1a7" fill-opacity=".501961" cx="102" cy="255" rx="64" ry="27" /><g transform="translate(12.509050 12.786370) rotate(186.256184) scale(16.764908 30.601425)"><ellipse fill="#dcceb7" fill-opacity=".501961" cx="0" cy="0" rx="1" ry="1" /></g><path d="M0 0h1638v2048H0z" fill="#35180b" /><path d="M0 0h1638v2048H0z" fill="#2a180e" /></g></svg>