<svg xmlns="http://www.w3.org/2000/svg" viewBox="0 0 2048 683"><filter id="b"><feGaussianBlur stdDeviation="12" /></filter><path d="M0 0h2048v683H0z" fill="#98877a" /><g filter="url(#b)" transform="scale(8.000000) translate(0.5 0.5)"><g transform="translate(11.524535 52.478577) rotate(356.380947) scale(50.935141 23.933897)"><ellipse fill="#000" fill-opacity=".501961" cx="0" cy="0" rx="1" ry="1" /></g><g transform="translate(102.242226 0.000000) rotate(180.147922) scale(149.454894 27.648888)"><ellipse fill="#fff" fill-opacity=".501961" cx="0" cy="0" rx="1" ry="1" /></g><g transform="translate(244.714643 54.893191) rotate(24.771073) scale(32.520087 46.548928)"><ellipse fill="#3d0d00" fill-opacity=".501961" cx="0" cy="0" rx="1" ry="1" /></g><g transform="translate(138.239258 58.824597) rotate(194.313614) scale(50.384656 12.513066)"><ellipse fill="#362714" fill-opacity=".501961" cx="0" cy="0" rx="1" ry="1" /></g><ellipse fill="#d2c8cd" fill-opacity=".501961" cx="86" cy="84" rx="45" ry="28" /><ellipse fill="#f1e3e4" fill-opacity=".501961" cx="82" cy="8" rx="57" ry="28" /><g transform="translate(140.133151 39.570152) rotate(82.598200) scale(8.551437 104.978448)"><ellipse fill="#5c4c3a" fill-opacity=".501961" cx="0" cy="0" rx="1" ry="1" /></g><g transform="translate(255.000000 68.483255) rotate(281.389884) scale(47.140649 21.262224)"><ellipse fill="#281d00" fill-opacity=".501961" cx="0" cy="0" rx="1" ry="1" /></g></g></svg>