<svg xmlns="http://www.w3.org/2000/svg" viewBox="0 0 2048 2048"><filter id="b"><feGaussianBlur stdDeviation="12" /></filter><path d="M0 0h2048v2048H0z" fill="#655954" /><g filter="url(#b)" transform="scale(8.000000) translate(0.5 0.5)"><g transform="translate(105.518710 40.192169) rotate(353.642071) scale(69.825392 106.246000)"><ellipse fill="#fecbb1" fill-opacity=".501961" cx="0" cy="0" rx="1" ry="1" /></g><g transform="translate(125.760245 223.918495) rotate(274.080698) scale(69.210034 255.000000)"><ellipse fill="#001230" fill-opacity=".501961" cx="0" cy="0" rx="1" ry="1" /></g><g transform="translate(219 151) rotate(353) scale(79 94)"><path d="M0 0h2048v2048H0z" fill="#201a19" /></g><g transform="translate(96.749083 42.800270) rotate(192.650754) scale(25.041612 64.558283)"><ellipse fill="#d0d3de" fill-opacity=".501961" cx="0" cy="0" rx="1" ry="1" /></g><g transform="translate(112.632703 147.215625) rotate(283.225722) scale(36.235297 65.754632)"><ellipse fill="#a76857" fill-opacity=".501961" cx="0" cy="0" rx="1" ry="1" /></g><g transform="translate(171.838132 47.291856) rotate(286.066768) scale(88.336754 29.386401)"><ellipse fill="#a96f3c" fill-opacity=".501961" cx="0" cy="0" rx="1" ry="1" /></g><g transform="translate(58.012694 85.617600) rotate(10.931698) scale(4.647107 101.862816)"><ellipse fill="#332e3d" fill-opacity=".501961" cx="0" cy="0" rx="1" ry="1" /></g><g transform="translate(81 240) rotate(194) scale(84 68)"><path d="M0 0h2048v2048H0z" fill="#00537a" /></g></g></svg>