<svg xmlns="http://www.w3.org/2000/svg" viewBox="0 0 4702 3762"><filter id="b"><feGaussianBlur stdDeviation="12" /></filter><path d="M0 0h4702v3762H0z" fill="#938875" /><g filter="url(#b)" transform="scale(18.367188) translate(0.5 0.5)"><g transform="translate(112.783314 180.007460) rotate(271.487842) scale(32.212527 188.407266)"><ellipse fill="#010" fill-opacity=".501961" cx="0" cy="0" rx="1" ry="1" /></g><ellipse fill="#ffffcd" fill-opacity=".501961" cx="203" cy="101" rx="90" ry="37" /><g transform="translate(31.123304 94.016133) rotate(15.007672) scale(47.090184 33.784182)"><ellipse fill="#ffffc8" fill-opacity=".501961" cx="0" cy="0" rx="1" ry="1" /></g><g transform="translate(76.751807 148.495288) rotate(121.372594) scale(19.125021 52.719623)"><ellipse fill="#af9588" fill-opacity=".501961" cx="0" cy="0" rx="1" ry="1" /></g><ellipse fill="#ffe4b3" fill-opacity=".501961" cx="185" cy="91" rx="73" ry="21" /><g transform="translate(160.652974 173.186731) rotate(253.842749) scale(33.885494 46.144309)"><ellipse fill="#1a2b28" fill-opacity=".501961" cx="0" cy="0" rx="1" ry="1" /></g><g transform="translate(37.645413 89.499114) rotate(170.663847) scale(40.943290 24.628804)"><ellipse fill="#ffe0ae" fill-opacity=".501961" cx="0" cy="0" rx="1" ry="1" /></g><path d="M0 0h4702v3762H0z" fill="#47454d" /></g></svg>