<svg xmlns="http://www.w3.org/2000/svg" viewBox="0 0 2048 1841"><filter id="b"><feGaussianBlur stdDeviation="12" /></filter><path d="M0 0h2048v1841H0z" fill="#4e574a" /><g filter="url(#b)" transform="scale(8.000000) translate(0.5 0.5)"><g transform="translate(132.530070 24.103140) rotate(179.650435) scale(243.451122 28.747951)"><ellipse fill="#fff" fill-opacity=".501961" cx="0" cy="0" rx="1" ry="1" /></g><ellipse fill="#000" fill-opacity=".501961" cx="68" cy="178" rx="255" ry="118" /><g transform="translate(143.302368 22.460352) rotate(90.669353) scale(27.478951 208.248571)"><ellipse fill="#fff" fill-opacity=".501961" cx="0" cy="0" rx="1" ry="1" /></g><ellipse fill="#fff" fill-opacity=".501961" cx="193" cy="20" rx="148" ry="29" /><ellipse fill="#001003" fill-opacity=".501961" cx="84" cy="229" rx="90" ry="90" /><g transform="translate(94 126) rotate(101) scale(40 43)"><path d="M0 0h2048v1841H0z" fill="#937d8a" /></g><g transform="translate(147.639189 142.128589) rotate(237.194835) scale(9.024594 19.449785)"><ellipse fill="#9899b1" fill-opacity=".501961" cx="0" cy="0" rx="1" ry="1" /></g><g transform="translate(214.323355 203.869455) rotate(170.565701) scale(188.637039 32.986312)"><ellipse fill="#000d05" fill-opacity=".501961" cx="0" cy="0" rx="1" ry="1" /></g></g></svg>