<svg xmlns="http://www.w3.org/2000/svg" viewBox="0 0 2048 1365"><filter id="b"><feGaussianBlur stdDeviation="12" /></filter><path d="M0 0h2048v1365H0z" fill="#5c3d39" /><g filter="url(#b)" transform="scale(8.000000) translate(0.5 0.5)"><g transform="translate(134.177388 4.729548) rotate(187.142591) scale(161.845145 35.852996)"><ellipse fill="#000" fill-opacity=".501961" cx="0" cy="0" rx="1" ry="1" /></g><ellipse fill="#ba5955" fill-opacity=".501961" cx="78" cy="92" rx="67" ry="67" /><g transform="translate(242.838780 83.706609) rotate(198.912519) scale(33.418017 40.574369)"><ellipse fill="#fb394e" fill-opacity=".501961" cx="0" cy="0" rx="1" ry="1" /></g><g transform="translate(140.738519 167.392471) rotate(178.377545) scale(128.983889 50.152480)"><ellipse fill="#368064" fill-opacity=".501961" cx="0" cy="0" rx="1" ry="1" /></g><g transform="translate(153.973947 127.476027) rotate(-12.560837) scale(16.678619 34.919447)"><ellipse fill="#ff4252" fill-opacity=".501961" cx="0" cy="0" rx="1" ry="1" /></g><g transform="translate(13 81) rotate(101) scale(49 42)"><path d="M0 0h2048v1365H0z" fill="#ff3b4d" /></g><g transform="translate(23.889575 25.335882) rotate(343.736535) scale(108.302629 27.343474)"><ellipse fill="#001316" fill-opacity=".501961" cx="0" cy="0" rx="1" ry="1" /></g><g transform="translate(26 26) rotate(2) scale(17 24)"><path d="M0 0h2048v1365H0z" fill="#ff5464" /></g></g></svg>