<svg xmlns="http://www.w3.org/2000/svg" viewBox="0 0 4802 3842"><filter id="b"><feGaussianBlur stdDeviation="12" /></filter><path d="M0 0h4802v3842H0z" fill="#7e8788" /><g filter="url(#b)" transform="scale(18.757812) translate(0.5 0.5)"><ellipse fill="#f3ffff" fill-opacity=".501961" cx="129" cy="132" rx="95" ry="95" /><g transform="translate(255.000000 86.283190) rotate(170.775444) scale(44.027677 179.978669)"><ellipse fill="#000" fill-opacity=".501961" cx="0" cy="0" rx="1" ry="1" /></g><g transform="translate(20.933103 42.728387) rotate(107.663687) scale(242.082097 39.268620)"><ellipse fill="#000" fill-opacity=".501961" cx="0" cy="0" rx="1" ry="1" /></g><g transform="translate(139.387504 14.374334) rotate(272.729174) scale(21.037092 255.000000)"><ellipse fill="#0a1000" fill-opacity=".501961" cx="0" cy="0" rx="1" ry="1" /></g><ellipse fill="#7a7586" fill-opacity=".501961" cx="121" cy="122" rx="102" ry="34" /><g transform="translate(89.545658 181.656693) rotate(76.982429) scale(25.957241 56.018855)"><ellipse fill="#f3ffff" fill-opacity=".501961" cx="0" cy="0" rx="1" ry="1" /></g><ellipse fill="#f6ffff" fill-opacity=".501961" cx="128" cy="65" rx="83" ry="19" /><ellipse fill="#f6ffff" fill-opacity=".501961" cx="182" cy="179" rx="38" ry="25" /></g></svg>