<svg xmlns="http://www.w3.org/2000/svg" viewBox="0 0 2048 683"><filter id="b"><feGaussianBlur stdDeviation="12" /></filter><path d="M0 0h2048v683H0z" fill="#b1cce2" /><g filter="url(#b)" transform="scale(8.000000) translate(0.5 0.5)"><g transform="translate(217.495097 45.311412) rotate(268.545236) scale(20.912634 126.791237)"><ellipse fill="#5d728f" fill-opacity=".501961" cx="0" cy="0" rx="1" ry="1" /></g><ellipse fill="azure" fill-opacity=".501961" cx="44" cy="83" rx="255" ry="19" /><ellipse fill="#dcf8ff" fill-opacity=".501961" cx="105" cy="0" rx="145" ry="34" /><path fill="#577191" fill-opacity=".501961" d="M63.240622 50.389658-13.467055 56.714509-13.613668 24.166858 34.34026 39.415239z" /><g transform="translate(251 37) rotate(245) scale(44 59)"><path d="M0 0h2048v683H0z" fill="#607998" /></g><g transform="translate(35.553314 73.906831) rotate(261.086925) scale(22.088334 59.946414)"><ellipse fill="#d8f4ff" fill-opacity=".501961" cx="0" cy="0" rx="1" ry="1" /></g><ellipse fill="#9ab4cc" fill-opacity=".501961" cx="152" cy="59" rx="58" ry="8" /><ellipse fill="#72879e" fill-opacity=".501961" cx="133" cy="43" rx="22" ry="15" /></g></svg>