<svg xmlns="http://www.w3.org/2000/svg" viewBox="0 0 2048 1638"><filter id="b"><feGaussianBlur stdDeviation="12" /></filter><path d="M0 0h2048v1638H0z" fill="#c1c6ce" /><g filter="url(#b)" transform="scale(8.000000) translate(0.5 0.5)"><g transform="translate(192.692610 133.632356) rotate(114.655680) scale(64.426094 144.798009)"><ellipse fill="#9099a0" fill-opacity=".501961" cx="0" cy="0" rx="1" ry="1" /></g><g transform="translate(69.807608 23.768521) rotate(267.784898) scale(30.311197 229.629693)"><ellipse fill="#fffeff" fill-opacity=".501961" cx="0" cy="0" rx="1" ry="1" /></g><g transform="translate(90.051214 166.955972) rotate(309.790725) scale(31.757355 47.969857)"><ellipse fill="#f8f7ff" fill-opacity=".501961" cx="0" cy="0" rx="1" ry="1" /></g><g transform="translate(0.000000 181.264977) rotate(162.440872) scale(37.525686 84.732709)"><ellipse fill="#fff" fill-opacity=".501961" cx="0" cy="0" rx="1" ry="1" /></g><ellipse fill="#738286" fill-opacity=".501961" cx="163" cy="181" rx="35" ry="31" /><g transform="translate(0.000000 78.606229) rotate(262.633490) scale(24.779460 36.449625)"><ellipse fill="#fff" fill-opacity=".501961" cx="0" cy="0" rx="1" ry="1" /></g><g transform="translate(217 203) rotate(246) scale(44 51)"><path d="M0 0h2048v1638H0z" fill="#f0f0fa" /></g><path fill="#f2f1fe" fill-opacity=".501961" d="M159.23806 219 148.724537 186.40494 149.009614 162.738683 169.257041 169.109766z" /></g></svg>