<svg xmlns="http://www.w3.org/2000/svg" viewBox="0 0 2048 1365"><filter id="b"><feGaussianBlur stdDeviation="12" /></filter><path d="M0 0h2048v1365H0z" fill="#78544d" /><g filter="url(#b)" transform="scale(8.000000) translate(0.5 0.5)"><ellipse fill="#e1ebed" fill-opacity=".501961" cx="162" cy="97" rx="114" ry="21" /><g transform="translate(214.748948 156.542612) rotate(7.737660) scale(69.600367 17.503411)"><ellipse fill="#fff" fill-opacity=".501961" cx="0" cy="0" rx="1" ry="1" /></g><g transform="translate(118.530520 9.277070) rotate(96.198587) scale(59.594334 139.616875)"><ellipse fill="#2f0000" fill-opacity=".501961" cx="0" cy="0" rx="1" ry="1" /></g><g transform="translate(0.000000 59.178299) rotate(266.056866) scale(80.822264 52.680757)"><ellipse fill="#070505" fill-opacity=".501961" cx="0" cy="0" rx="1" ry="1" /></g><g transform="translate(122.995444 112.086326) rotate(14.040294) scale(37.769504 18.975303)"><ellipse fill="#fff" fill-opacity=".501961" cx="0" cy="0" rx="1" ry="1" /></g><g transform="translate(172.799218 84.186747) rotate(354.333568) scale(61.668506 14.596647)"><ellipse fill="#533e39" fill-opacity=".501961" cx="0" cy="0" rx="1" ry="1" /></g><g transform="translate(86.401471 148.977651) rotate(124.452631) scale(31.186961 67.601876)"><ellipse fill="#7b1c05" fill-opacity=".501961" cx="0" cy="0" rx="1" ry="1" /></g><path fill="#bfc4c3" fill-opacity=".501961" d="M67 111l74-39L56 51z" /></g></svg>