<svg xmlns="http://www.w3.org/2000/svg" viewBox="0 0 2048 1638"><filter id="b"><feGaussianBlur stdDeviation="12" /></filter><path d="M0 0h2048v1638H0z" fill="#a896a9" /><g filter="url(#b)" transform="scale(8.000000) translate(0.5 0.5)"><g transform="translate(97 199) rotate(92) scale(118 203)"><path d="M0 0h2048v1638H0z" fill="#491625" /></g><g transform="translate(77.602839 43.394838) rotate(182.975782) scale(243.447126 42.919238)"><ellipse fill="#fdffff" fill-opacity=".501961" cx="0" cy="0" rx="1" ry="1" /></g><g transform="translate(81.774275 102.800782) rotate(268.490713) scale(15.763264 137.095687)"><ellipse fill="#644583" fill-opacity=".501961" cx="0" cy="0" rx="1" ry="1" /></g><ellipse fill="#f3f9f7" fill-opacity=".501961" cx="34" cy="61" rx="188" ry="26" /><g transform="translate(148.268875 17.412108) rotate(-13.770495) scale(79.247559 26.546129)"><ellipse fill="#a08ac8" fill-opacity=".501961" cx="0" cy="0" rx="1" ry="1" /></g><g transform="translate(60.418364 202.399133) rotate(122.556413) scale(22.405674 51.557496)"><ellipse fill="#1f1432" fill-opacity=".501961" cx="0" cy="0" rx="1" ry="1" /></g><g transform="translate(131.069467 138.418900) rotate(30.713554) scale(12.134596 28.427014)"><ellipse fill="#3d2a56" fill-opacity=".501961" cx="0" cy="0" rx="1" ry="1" /></g><g transform="translate(221.063856 175.675522) rotate(291.781733) scale(33.559133 52.717017)"><ellipse fill="#ac7f6b" fill-opacity=".501961" cx="0" cy="0" rx="1" ry="1" /></g></g></svg>