<svg xmlns="http://www.w3.org/2000/svg" viewBox="0 0 1638 2048"><filter id="b"><feGaussianBlur stdDeviation="12" /></filter><path d="M0 0h1638v2048H0z" fill="#908785" /><g filter="url(#b)" transform="scale(8.000000) translate(0.5 0.5)"><g transform="translate(120.527777 32.222107) rotate(95.374407) scale(47.169384 203.000000)"><ellipse fill="#fff" fill-opacity=".501961" cx="0" cy="0" rx="1" ry="1" /></g><path fill="#000" fill-opacity=".501961" d="M84 162-14 261l233 1z" /><g transform="translate(54.146111 105.338913) rotate(314.995733) scale(87.157323 22.929287)"><ellipse fill="#220d11" fill-opacity=".501961" cx="0" cy="0" rx="1" ry="1" /></g><g transform="translate(156.827565 120.613700) rotate(129.314671) scale(17.105262 95.669693)"><ellipse fill="#000409" fill-opacity=".501961" cx="0" cy="0" rx="1" ry="1" /></g><g transform="translate(14.208996 51.283185) rotate(49.806554) scale(47.758505 97.978579)"><ellipse fill="#f2ffff" fill-opacity=".501961" cx="0" cy="0" rx="1" ry="1" /></g><g transform="translate(168.405721 43.889925) rotate(136.213825) scale(41.906905 103.690883)"><ellipse fill="#fff" fill-opacity=".501961" cx="0" cy="0" rx="1" ry="1" /></g><g transform="translate(167.213433 191.322239) rotate(27.728537) scale(51.409228 30.537410)"><ellipse fill="#fda07f" fill-opacity=".501961" cx="0" cy="0" rx="1" ry="1" /></g><g transform="translate(41.157005 189.882882) rotate(142.129909) scale(67.343614 26.155378)"><ellipse fill="#db7961" fill-opacity=".501961" cx="0" cy="0" rx="1" ry="1" /></g></g></svg>