<svg xmlns="http://www.w3.org/2000/svg" viewBox="0 0 2048 1365"><filter id="b"><feGaussianBlur stdDeviation="12" /></filter><path d="M0 0h2048v1365H0z" fill="#9caaac" /><g filter="url(#b)" transform="scale(8.000000) translate(0.5 0.5)"><ellipse fill="#000f00" fill-opacity=".501961" cx="85" cy="155" rx="255" ry="26" /><g transform="translate(194.375251 36.085404) rotate(93.873702) scale(50.982205 249.535413)"><ellipse fill="#fff" fill-opacity=".501961" cx="0" cy="0" rx="1" ry="1" /></g><ellipse fill="#677577" fill-opacity=".501961" cx="127" cy="113" rx="185" ry="28" /><g transform="translate(45.211125 14.545299) rotate(325.771303) scale(177.699917 37.649050)"><ellipse fill="#faffff" fill-opacity=".501961" cx="0" cy="0" rx="1" ry="1" /></g><g transform="translate(214.185976 152.331768) rotate(266.986201) scale(8.238817 51.415921)"><ellipse fill="#c8b2a6" fill-opacity=".501961" cx="0" cy="0" rx="1" ry="1" /></g><g transform="translate(84.577259 162.483155) rotate(89.310975) scale(17.540446 85.414455)"><ellipse fill="#172e1b" fill-opacity=".501961" cx="0" cy="0" rx="1" ry="1" /></g><path fill="#7b8382" fill-opacity=".501961" d="M195.999271 143.293435 16.201215 82.231235 17.215371 61.199916 34.987446 58.254059z" /><path d="M0 0h2048v1365H0z" fill="#dfd0c7" /></g></svg>