<svg xmlns="http://www.w3.org/2000/svg" viewBox="0 0 1365 2048"><filter id="b"><feGaussianBlur stdDeviation="12" /></filter><path d="M0 0h1365v2048H0z" fill="#929d9f" /><g filter="url(#b)" transform="scale(8.000000) translate(0.5 0.5)"><g transform="translate(79.455362 234.815970) rotate(95.902455) scale(88.364506 125.378085)"><ellipse fill="#000e10" fill-opacity=".501961" cx="0" cy="0" rx="1" ry="1" /></g><ellipse fill="#fff" fill-opacity=".501961" cx="64" cy="54" rx="169" ry="70" /><g transform="translate(87.895121 143.017145) rotate(97.513598) scale(99.014362 34.634747)"><ellipse fill="#707d7a" fill-opacity=".501961" cx="0" cy="0" rx="1" ry="1" /></g><g transform="translate(37.691227 42.189773) rotate(29.747547) scale(41.182310 169.000000)"><ellipse fill="#fff" fill-opacity=".501961" cx="0" cy="0" rx="1" ry="1" /></g><g transform="translate(144.803526 33.510512) rotate(335.931019) scale(39.953284 100.057687)"><ellipse fill="#fff" fill-opacity=".501961" cx="0" cy="0" rx="1" ry="1" /></g><g transform="translate(18.285825 225.243798) rotate(343.157153) scale(28.523184 55.907076)"><ellipse fill="#041c21" fill-opacity=".501961" cx="0" cy="0" rx="1" ry="1" /></g><g transform="translate(119.422571 244.091904) rotate(-9.328992) scale(29.017777 83.051462)"><ellipse fill="#132827" fill-opacity=".501961" cx="0" cy="0" rx="1" ry="1" /></g><ellipse fill="#869293" fill-opacity=".501961" cx="78" cy="146" rx="20" ry="82" /></g></svg>