<svg xmlns="http://www.w3.org/2000/svg" viewBox="0 0 1365 2048"><filter id="b"><feGaussianBlur stdDeviation="12" /></filter><path d="M0 0h1365v2048H0z" fill="#84999a" /><g filter="url(#b)" transform="scale(8.000000) translate(0.5 0.5)"><g transform="translate(157.483262 222.037306) rotate(189.910790) scale(87.578237 39.478422)"><ellipse fill="#000" fill-opacity=".501961" cx="0" cy="0" rx="1" ry="1" /></g><ellipse fill="#edfbff" fill-opacity=".501961" cx="127" cy="39" rx="156" ry="52" /><ellipse fill="#78673b" fill-opacity=".501961" cx="32" cy="255" rx="82" ry="82" /><g transform="translate(148.681057 225.165911) rotate(109.862016) scale(19.443224 71.358714)"><ellipse fill="#001709" fill-opacity=".501961" cx="0" cy="0" rx="1" ry="1" /></g><g transform="translate(42.087408 97.372416) rotate(6.432293) scale(66.239331 16.576507)"><ellipse fill="#465f5e" fill-opacity=".501961" cx="0" cy="0" rx="1" ry="1" /></g><g transform="translate(32 190) rotate(281) scale(11 101)"><path d="M0 0h1365v2048H0z" fill="#051513" /></g><ellipse fill="#cbd3e5" fill-opacity=".501961" cx="145" cy="76" rx="65" ry="28" /><g transform="translate(76.196835 145.787570) rotate(263.631586) scale(31.976410 107.378206)"><ellipse fill="#64a5b5" fill-opacity=".501961" cx="0" cy="0" rx="1" ry="1" /></g></g></svg>