<svg xmlns="http://www.w3.org/2000/svg" viewBox="0 0 2048 1365"><filter id="b"><feGaussianBlur stdDeviation="12" /></filter><path d="M0 0h2048v1365H0z" fill="#818e95" /><g filter="url(#b)" transform="scale(8.000000) translate(0.5 0.5)"><g transform="translate(234.106952 155.595685) rotate(337.676942) scale(75.178839 23.497366)"><ellipse fill="#000" fill-opacity=".501961" cx="0" cy="0" rx="1" ry="1" /></g><g transform="translate(134.798291 0.000000) rotate(269.381914) scale(61.658622 139.319167)"><ellipse fill="#c9bec5" fill-opacity=".501961" cx="0" cy="0" rx="1" ry="1" /></g><g transform="translate(217.376565 169.000000) rotate(245.855276) scale(20.136329 73.109322)"><ellipse fill="#000" fill-opacity=".501961" cx="0" cy="0" rx="1" ry="1" /></g><ellipse fill="#3c6172" fill-opacity=".501961" cx="75" cy="120" rx="255" ry="12" /><path fill="#a3afae" fill-opacity=".501961" d="M219.554422 132.3788 228.19435 128.412085 245.931034 132.268141 227.461456 152.820803z" /><path fill="#81a1b3" fill-opacity=".501961" d="M157 119 271 35-16 48z" /><g transform="translate(217.887725 169.000000) rotate(36.653646) scale(26.665428 23.501216)"><ellipse fill="#000" fill-opacity=".501961" cx="0" cy="0" rx="1" ry="1" /></g><g transform="translate(132.367185 0.000000) rotate(87.095576) scale(27.604879 66.799467)"><ellipse fill="#d0bfbe" fill-opacity=".501961" cx="0" cy="0" rx="1" ry="1" /></g></g></svg>