<svg xmlns="http://www.w3.org/2000/svg" viewBox="0 0 1638 2048"><filter id="b"><feGaussianBlur stdDeviation="12" /></filter><path d="M0 0h1638v2048H0z" fill="#212b2a" /><g filter="url(#b)" transform="scale(8.000000) translate(0.5 0.5)"><g transform="translate(101.289311 145.699499) rotate(177.292046) scale(30.051465 39.572844)"><ellipse fill="#ffa976" fill-opacity=".501961" cx="0" cy="0" rx="1" ry="1" /></g><g transform="translate(101.576052 91.768336) rotate(270.908739) scale(64.207577 6.482349)"><ellipse fill="#fe825c" fill-opacity=".501961" cx="0" cy="0" rx="1" ry="1" /></g><ellipse fill="#9d7d6a" fill-opacity=".501961" cx="168" cy="149" rx="144" ry="19" /><g transform="translate(112.661981 26.043642) rotate(80.166915) scale(51.795038 203.000000)"><ellipse fill="#00020b" fill-opacity=".501961" cx="0" cy="0" rx="1" ry="1" /></g><ellipse fill="#ffb888" fill-opacity=".501961" cx="102" cy="63" rx="3" ry="43" /><path d="M0 0h1638v2048H0z" fill="#f49160" /><g transform="translate(175.708069 88.162725) rotate(192.278216) scale(57.910778 44.372641)"><ellipse fill="#001723" fill-opacity=".501961" cx="0" cy="0" rx="1" ry="1" /></g><g transform="translate(111.159076 206.076939) rotate(74.115766) scale(38.670104 23.574208)"><ellipse fill="#424746" fill-opacity=".501961" cx="0" cy="0" rx="1" ry="1" /></g></g></svg>