<svg xmlns="http://www.w3.org/2000/svg" viewBox="0 0 2048 1365"><filter id="b"><feGaussianBlur stdDeviation="12" /></filter><path d="M0 0h2048v1365H0z" fill="#8698a4" /><g filter="url(#b)" transform="scale(8.000000) translate(0.5 0.5)"><g transform="translate(94.433739 136.934736) rotate(91.207590) scale(22.095889 183.347341)"><ellipse fill="#000" fill-opacity=".501961" cx="0" cy="0" rx="1" ry="1" /></g><g transform="translate(81.284335 34.478704) rotate(180.048298) scale(255.000000 57.005076)"><ellipse fill="#f1f9ff" fill-opacity=".501961" cx="0" cy="0" rx="1" ry="1" /></g><g transform="translate(215.808950 96.241839) rotate(-10.624919) scale(179.901563 10.049593)"><ellipse fill="#000004" fill-opacity=".501961" cx="0" cy="0" rx="1" ry="1" /></g><path d="M0 0h2048v1365H0z" fill="#002032" /><ellipse fill="#00111a" fill-opacity=".501961" cx="38" cy="144" rx="102" ry="12" /><path fill="#cbd3df" fill-opacity=".501961" d="M91.736203 110.900614 3.122315 83.31602 32.281003 129.506388 72.600524-16z" /><path fill="#c5d0d6" fill-opacity=".501961" d="M207.043082 135.127134 228.594518 102.978052 166.802921 113.180681 192.881482 123.565997z" /><ellipse fill="#001825" fill-opacity=".501961" cx="232" cy="146" rx="75" ry="10" /></g></svg>