<svg xmlns="http://www.w3.org/2000/svg" viewBox="0 0 2048 1365"><filter id="b"><feGaussianBlur stdDeviation="12" /></filter><path d="M0 0h2048v1365H0z" fill="#161e20" /><g filter="url(#b)" transform="scale(8.000000) translate(0.5 0.5)"><g transform="translate(109.962721 92.918578) rotate(170.599582) scale(46.181429 31.882597)"><ellipse fill="#c2bfff" fill-opacity=".501961" cx="0" cy="0" rx="1" ry="1" /></g><ellipse fill="#000100" fill-opacity=".501961" cx="193" cy="129" rx="50" ry="76" /><g transform="translate(117.768919 96.325188) rotate(214.074823) scale(28.265111 31.425832)"><ellipse fill="#9d97ed" fill-opacity=".501961" cx="0" cy="0" rx="1" ry="1" /></g><path fill="#040e05" fill-opacity=".501961" d="M-16 0 80 104 144-3z" /><path fill="#4f5b70" fill-opacity=".501961" d="M70.96232 63.463209 111.548642 36.577801 71.822032 120.43607 41.747008 110.838165z" /><g transform="translate(21.722912 134.420616) rotate(79.318234) scale(125.310355 30.207320)"><ellipse fill="#000" fill-opacity=".501961" cx="0" cy="0" rx="1" ry="1" /></g><g transform="translate(229.461322 28.691304) rotate(241.833172) scale(101.798079 53.183321)"><ellipse fill="#000500" fill-opacity=".501961" cx="0" cy="0" rx="1" ry="1" /></g><g transform="translate(116 96) rotate(317) scale(33 14)"><path d="M0 0h2048v1365H0z" fill="#253823" /></g></g></svg>