<svg xmlns="http://www.w3.org/2000/svg" viewBox="0 0 2048 1365"><filter id="b"><feGaussianBlur stdDeviation="12" /></filter><path d="M0 0h2048v1365H0z" fill="#282e2b" /><g filter="url(#b)" transform="scale(8.000000) translate(0.5 0.5)"><g transform="translate(216.802978 63.641852) rotate(278.856278) scale(29.684493 68.518916)"><ellipse fill="#77675b" fill-opacity=".501961" cx="0" cy="0" rx="1" ry="1" /></g><ellipse fill="#05110e" fill-opacity=".501961" cx="34" cy="134" rx="44" ry="123" /><g transform="translate(185.292131 165.050161) rotate(269.169268) scale(22.131763 51.855907)"><ellipse fill="#000" fill-opacity=".501961" cx="0" cy="0" rx="1" ry="1" /></g><path d="M0 0h2048v1365H0z" fill="#456674" /><path fill="#948785" fill-opacity=".501961" d="M118 26 1e2 42 44 24z" /><path fill="#936b5d" fill-opacity=".501961" d="M227.733423 123.41375 198.077488 133.080956 237.205652 150.601341 231.968366 129.846785z" /><path fill="#635851" fill-opacity=".501961" d="M57.586642 138.028302l59.160737-74.930409L72.367363 70.288949 120.900099 103.748723z" /><path fill="#8d6a58" fill-opacity=".501961" d="M154.137228 68.531676 154.542742 30.237879 112.827792 22.583235 173.702496 18.542306z" /></g></svg>