<svg xmlns="http://www.w3.org/2000/svg" viewBox="0 0 2048 1365"><filter id="b"><feGaussianBlur stdDeviation="12" /></filter><path d="M0 0h2048v1365H0z" fill="#c4c9d6" /><g filter="url(#b)" transform="scale(8.000000) translate(0.5 0.5)"><ellipse fill="#3d5961" fill-opacity=".501961" cx="173" cy="103" rx="124" ry="11" /><g transform="translate(131.105235 6.209234) rotate(185.160296) scale(151.959351 37.492695)"><ellipse fill="#f8f4fb" fill-opacity=".501961" cx="0" cy="0" rx="1" ry="1" /></g><g transform="translate(43.185800 84.062548) rotate(361.769961) scale(115.118407 30.595063)"><ellipse fill="#9caac8" fill-opacity=".501961" cx="0" cy="0" rx="1" ry="1" /></g><ellipse fill="#e3dde0" fill-opacity=".501961" cx="168" cy="148" rx="255" ry="36" /><path fill="#375f66" fill-opacity=".501961" d="M271 114.250286 240.193146 97.04537 138.90195 96.387789 181.188741 109.929525z" /><g transform="translate(130.832897 82.897361) rotate(178.452030) scale(7.299159 30.152903)"><ellipse fill="#859193" fill-opacity=".501961" cx="0" cy="0" rx="1" ry="1" /></g><path d="M0 0h2048v1365H0z" fill="#c1c8df" /><ellipse fill="#8c919d" fill-opacity=".501961" cx="37" cy="107" rx="122" ry="6" /></g></svg>