<svg xmlns="http://www.w3.org/2000/svg" viewBox="0 0 2048 683"><filter id="b"><feGaussianBlur stdDeviation="12" /></filter><path d="M0 0h2048v683H0z" fill="#2e3c3e" /><g filter="url(#b)" transform="scale(8.000000) translate(0.5 0.5)"><g transform="translate(103.209853 56.376456) rotate(351.561778) scale(57.675416 26.472401)"><ellipse fill="#616e6e" fill-opacity=".501961" cx="0" cy="0" rx="1" ry="1" /></g><g transform="translate(222.438522 67.300801) rotate(161.237017) scale(53.833402 13.063605)"><ellipse fill="#120100" fill-opacity=".501961" cx="0" cy="0" rx="1" ry="1" /></g><ellipse fill="#001f2c" fill-opacity=".501961" cx="89" cy="0" rx="254" ry="28" /><g transform="translate(16.235670 63.950953) rotate(173.310209) scale(18.266970 5.362867)"><ellipse fill="#bba394" fill-opacity=".501961" cx="0" cy="0" rx="1" ry="1" /></g><path d="M0 0h2048v683H0z" fill="#4e717a" /><path fill="#9bb6bf" fill-opacity=".501961" d="M99.492194 64.985775 67.584714 66.565968 87.286622 1e2 87.38517 77.45708z" /><path fill="#9db5b7" fill-opacity=".501961" d="M122.561584 32.027715 108.024523 36.840868 115.747514 45.895857 118.971453 1e2z" /><g transform="translate(78.751329 35.656948) rotate(370.542166) scale(6.945138 7.654799)"><ellipse fill="#a3a1a9" fill-opacity=".501961" cx="0" cy="0" rx="1" ry="1" /></g></g></svg>