<svg xmlns="http://www.w3.org/2000/svg" viewBox="0 0 2048 683"><filter id="b"><feGaussianBlur stdDeviation="12" /></filter><path d="M0 0h2048v683H0z" fill="#b0b4b6" /><g filter="url(#b)" transform="scale(8.000000) translate(0.5 0.5)"><g transform="translate(141.838712 83.704494) rotate(-88.755021) scale(10.997689 178.446117)"><ellipse fill="#334f56" fill-opacity=".501961" cx="0" cy="0" rx="1" ry="1" /></g><g transform="translate(120.527318 12.290801) rotate(87.420392) scale(29.349431 255.000000)"><ellipse fill="#dfe1e9" fill-opacity=".501961" cx="0" cy="0" rx="1" ry="1" /></g><g transform="translate(149.744349 71.484671) rotate(-81.581669) scale(28.303212 32.386597)"><ellipse fill="#728083" fill-opacity=".501961" cx="0" cy="0" rx="1" ry="1" /></g><g transform="translate(233.003934 78.519965) rotate(66.676448) scale(18.652276 36.402567)"><ellipse fill="#7e715d" fill-opacity=".501961" cx="0" cy="0" rx="1" ry="1" /></g><path d="M0 0h2048v683H0z" fill="#e4bea3" /><g transform="translate(146.346129 37.593842) rotate(79.796712) scale(14.633705 35.866023)"><ellipse fill="#a3b1be" fill-opacity=".501961" cx="0" cy="0" rx="1" ry="1" /></g><g transform="translate(198.920394 19.219595) rotate(14.654448) scale(12.754848 37.729773)"><ellipse fill="#eeddd1" fill-opacity=".501961" cx="0" cy="0" rx="1" ry="1" /></g><ellipse fill="#a3a097" fill-opacity=".501961" cx="98" cy="68" rx="138" ry="9" /></g></svg>