<svg xmlns="http://www.w3.org/2000/svg" viewBox="0 0 2048 683"><filter id="b"><feGaussianBlur stdDeviation="12" /></filter><path d="M0 0h2048v683H0z" fill="#b1b1b1" /><g filter="url(#b)" transform="scale(8.000000) translate(0.5 0.5)"><g transform="translate(144.226220 74.460576) rotate(273.028998) scale(18.410720 116.408635)"><ellipse fill="#5e5e5e" fill-opacity=".501961" cx="0" cy="0" rx="1" ry="1" /></g><g transform="translate(112.581204 16.241984) rotate(90.669043) scale(23.266910 223.145332)"><ellipse fill="#e4e4e4" fill-opacity=".501961" cx="0" cy="0" rx="1" ry="1" /></g><g transform="translate(19.674796 25.134957) rotate(-45.146759) scale(48.967505 29.572005)"><ellipse fill="#d8d8d8" fill-opacity=".501961" cx="0" cy="0" rx="1" ry="1" /></g><g transform="translate(154.034199 76.714781) rotate(181.576150) scale(83.255327 5.144858)"><ellipse fill="#5e5e5e" fill-opacity=".501961" cx="0" cy="0" rx="1" ry="1" /></g><path fill="#a4a4a4" fill-opacity=".501961" d="M243 63 116 20 18 64z" /><ellipse fill="#c1c1c1" fill-opacity=".501961" cx="210" cy="32" rx="200" ry="15" /><g transform="translate(239.462016 19.056363) rotate(228.116485) scale(41.266177 25.189548)"><ellipse fill="#d6d6d6" fill-opacity=".501961" cx="0" cy="0" rx="1" ry="1" /></g><g transform="translate(40 78) rotate(139) scale(30 42)"><path d="M0 0h2048v683H0z" fill="#9a9a9a" /></g></g></svg>