<svg xmlns="http://www.w3.org/2000/svg" viewBox="0 0 2048 1024"><filter id="b"><feGaussianBlur stdDeviation="12" /></filter><path d="M0 0h2048v1024H0z" fill="#293738" /><g filter="url(#b)" transform="scale(8.000000) translate(0.5 0.5)"><g transform="translate(223.342283 50.416686) rotate(186.640172) scale(91.531814 29.329694)"><ellipse fill="#b5b8bc" fill-opacity=".501961" cx="0" cy="0" rx="1" ry="1" /></g><g transform="translate(35.136536 71.675701) rotate(-11.972109) scale(63.546664 255.000000)"><ellipse fill="#000303" fill-opacity=".501961" cx="0" cy="0" rx="1" ry="1" /></g><ellipse fill="#010b01" fill-opacity=".501961" cx="195" cy="127" rx="79" ry="33" /><g transform="translate(246.444636 38.939184) rotate(286.820394) scale(30.054819 14.501476)"><ellipse fill="#9ea5ab" fill-opacity=".501961" cx="0" cy="0" rx="1" ry="1" /></g><g transform="translate(128.034292 47.507422) rotate(118.648921) scale(32.895429 17.479987)"><ellipse fill="#626365" fill-opacity=".501961" cx="0" cy="0" rx="1" ry="1" /></g><path d="M0 0h2048v1024H0z" fill="#424c46" /><ellipse fill="#425545" fill-opacity=".501961" cx="86" cy="104" rx="57" ry="9" /><path fill="#00141a" fill-opacity=".501961" d="M136 0-13-16-8 124z" /></g></svg>