<svg xmlns="http://www.w3.org/2000/svg" viewBox="0 0 2048 683"><filter id="b"><feGaussianBlur stdDeviation="12" /></filter><path d="M0 0h2048v683H0z" fill="#c1c8c9" /><g filter="url(#b)" transform="scale(8.000000) translate(0.5 0.5)"><ellipse fill="#5e6f6a" fill-opacity=".501961" cx="218" cy="71" rx="167" ry="14" /><g transform="translate(79.678678 20.073808) rotate(175.119654) scale(218.240205 28.381944)"><ellipse fill="#f1f8fb" fill-opacity=".501961" cx="0" cy="0" rx="1" ry="1" /></g><ellipse fill="#304d4e" fill-opacity=".501961" cx="255" cy="78" rx="73" ry="5" /><g transform="translate(141.319153 60.155649) rotate(265.166955) scale(9.748529 137.447822)"><ellipse fill="#a5aeae" fill-opacity=".501961" cx="0" cy="0" rx="1" ry="1" /></g><ellipse fill="#c7c8c9" fill-opacity=".501961" cx="124" cy="83" rx="72" ry="5" /><g transform="translate(51.855517 0.000000) rotate(170.223788) scale(75.061691 24.986658)"><ellipse fill="#eff5f7" fill-opacity=".501961" cx="0" cy="0" rx="1" ry="1" /></g><g transform="translate(196.418976 25.062090) rotate(260.079978) scale(15.136000 221.696802)"><ellipse fill="#ced4d5" fill-opacity=".501961" cx="0" cy="0" rx="1" ry="1" /></g><path fill="#466168" fill-opacity=".501961" d="M256.38978 61.748808 252.382038 51.484271 271 82.923645 230.073304 81.370398z" /></g></svg>