<svg xmlns="http://www.w3.org/2000/svg" viewBox="0 0 2048 683"><filter id="b"><feGaussianBlur stdDeviation="12" /></filter><path d="M0 0h2048v683H0z" fill="#c4d3da" /><g filter="url(#b)" transform="scale(8.000000) translate(0.5 0.5)"><ellipse fill="#9aadb7" fill-opacity=".501961" cx="174" cy="70" rx="144" ry="15" /><g transform="translate(119.956837 14.679859) rotate(446.797374) scale(29.812464 255.000000)"><ellipse fill="#deebf1" fill-opacity=".501961" cx="0" cy="0" rx="1" ry="1" /></g><g transform="translate(25.249521 28.400398) rotate(160.534385) scale(31.639499 28.292505)"><ellipse fill="#e0edf0" fill-opacity=".501961" cx="0" cy="0" rx="1" ry="1" /></g><g transform="translate(84.506135 64.358869) rotate(260.967931) scale(27.057308 58.123826)"><ellipse fill="#bdcad0" fill-opacity=".501961" cx="0" cy="0" rx="1" ry="1" /></g><g transform="translate(239.630557 74.487618) rotate(179.074651) scale(41.578553 10.283280)"><ellipse fill="#94aeb7" fill-opacity=".501961" cx="0" cy="0" rx="1" ry="1" /></g><g transform="translate(202.752528 15.016589) rotate(184.744606) scale(95.389653 7.726333)"><ellipse fill="#c1d1dc" fill-opacity=".501961" cx="0" cy="0" rx="1" ry="1" /></g><ellipse fill="#b8c7d1" fill-opacity=".501961" cx="222" cy="55" rx="113" ry="7" /><g transform="translate(78 36) rotate(167) scale(7 14)"><path d="M0 0h2048v683H0z" fill="#9ab0b8" /></g></g></svg>