<svg xmlns="http://www.w3.org/2000/svg" viewBox="0 0 1365 2048"><filter id="b"><feGaussianBlur stdDeviation="12" /></filter><path d="M0 0h1365v2048H0z" fill="#929d9f" /><g filter="url(#b)" transform="scale(8.000000) translate(0.5 0.5)"><g transform="translate(98.994088 255.000000) rotate(113.476521) scale(101.027078 142.616355)"><ellipse fill="#000e0f" fill-opacity=".501961" cx="0" cy="0" rx="1" ry="1" /></g><g transform="translate(84 36) rotate(358) scale(169 169)"><path d="M0 0h1365v2048H0z" fill="#fff" /></g><ellipse fill="#67736e" fill-opacity=".501961" cx="97" cy="140" rx="41" ry="81" /><g transform="translate(29.798150 64.912589) rotate(210.036243) scale(36.447302 159.848372)"><ellipse fill="#feffff" fill-opacity=".501961" cx="0" cy="0" rx="1" ry="1" /></g><g transform="translate(160.609762 47.435293) rotate(151.260543) scale(45.125262 97.459126)"><ellipse fill="#fff" fill-opacity=".501961" cx="0" cy="0" rx="1" ry="1" /></g><ellipse fill="#172d2c" fill-opacity=".501961" cx="121" cy="239" rx="25" ry="105" /><ellipse fill="#092126" fill-opacity=".501961" cx="19" cy="243" rx="20" ry="104" /><path fill="#a3afb4" fill-opacity=".501961" d="M121 112 67 144 52 254z" /></g></svg>