<svg xmlns="http://www.w3.org/2000/svg" viewBox="0 0 2048 1365"><filter id="b"><feGaussianBlur stdDeviation="12" /></filter><path d="M0 0h2048v1365H0z" fill="#818e95" /><g filter="url(#b)" transform="scale(8.000000) translate(0.5 0.5)"><g transform="translate(225.137036 169.000000) rotate(241.903925) scale(32.312250 77.583465)"><ellipse fill="#000" fill-opacity=".501961" cx="0" cy="0" rx="1" ry="1" /></g><g transform="translate(134.804118 4.740968) rotate(179.251759) scale(135.152739 54.586705)"><ellipse fill="#cbbfc5" fill-opacity=".501961" cx="0" cy="0" rx="1" ry="1" /></g><g transform="translate(227.719607 163.573969) rotate(250.438245) scale(19.379318 65.192218)"><ellipse fill="#000" fill-opacity=".501961" cx="0" cy="0" rx="1" ry="1" /></g><ellipse fill="#3d6272" fill-opacity=".501961" cx="101" cy="120" rx="255" ry="12" /><path fill="#b1bcbc" fill-opacity=".501961" d="M246.980045 126.079857 226.421515 132.494998 219.445468 135.983853 230.62179 152.917827z" /><ellipse fill="#80a1b4" fill-opacity=".501961" cx="155" cy="68" rx="134" ry="30" /><g transform="translate(223 169) rotate(186) scale(59 42)"><path d="M0 0h2048v1365H0z" fill="#000" /></g><g transform="translate(130.548213 0.000000) rotate(178.363077) scale(61.379153 26.860520)"><ellipse fill="#d1bfc0" fill-opacity=".501961" cx="0" cy="0" rx="1" ry="1" /></g></g></svg>