<svg xmlns="http://www.w3.org/2000/svg" viewBox="0 0 2048 683"><filter id="b"><feGaussianBlur stdDeviation="12" /></filter><path d="M0 0h2048v683H0z" fill="#2d3c3e" /><g filter="url(#b)" transform="scale(8.000000) translate(0.5 0.5)"><g transform="translate(101.734847 57.117277) rotate(176.578431) scale(100.444037 22.672412)"><ellipse fill="#646964" fill-opacity=".501961" cx="0" cy="0" rx="1" ry="1" /></g><g transform="translate(215 69) rotate(258) scale(28 84)"><path d="M0 0h2048v683H0z" fill="#180500" /></g><g transform="translate(107.095394 1.471224) rotate(88.450091) scale(27.224949 241.287482)"><ellipse fill="#001f29" fill-opacity=".501961" cx="0" cy="0" rx="1" ry="1" /></g><path fill="#9fc0ce" fill-opacity=".501961" d="M96 65 82 91 70 67z" /><ellipse fill="#99aaab" fill-opacity=".501961" cx="115" cy="70" rx="6" ry="47" /><path fill="#959e9c" fill-opacity=".501961" d="M237.93342 29.15751 247.010674 33.163876 223.304367 49.78057 209.232408 44.808715z" /><ellipse fill="#d0b8aa" fill-opacity=".501961" cx="1" cy="66" rx="26" ry="4" /><path d="M0 0h2048v683H0z" fill="#472c1a" /></g></svg>