<svg xmlns="http://www.w3.org/2000/svg" viewBox="0 0 2048 1365"><filter id="b"><feGaussianBlur stdDeviation="12" /></filter><path d="M0 0h2048v1365H0z" fill="#8b8c82" /><g filter="url(#b)" transform="scale(8.000000) translate(0.5 0.5)"><g transform="translate(163.519017 1.467657) rotate(85.798376) scale(50.879818 166.241026)"><ellipse fill="#fff" fill-opacity=".501961" cx="0" cy="0" rx="1" ry="1" /></g><path fill="#1c210a" fill-opacity=".501961" d="M271 169H-16L54 41z" /><ellipse fill="#efffff" fill-opacity=".501961" cx="147" cy="0" rx="151" ry="48" /><g transform="translate(255.000000 105.218937) rotate(89.702791) scale(21.384592 142.214391)"><ellipse fill="#cfb4a1" fill-opacity=".501961" cx="0" cy="0" rx="1" ry="1" /></g><g transform="translate(39.465497 107.893346) rotate(352.869733) scale(12.837800 24.111780)"><ellipse fill="#ced4dc" fill-opacity=".501961" cx="0" cy="0" rx="1" ry="1" /></g><g transform="translate(77.533290 146.043208) rotate(276.217469) scale(108.291633 27.049892)"><ellipse fill="#23301c" fill-opacity=".501961" cx="0" cy="0" rx="1" ry="1" /></g><path fill="#000804" fill-opacity=".501961" d="M2.540584 120.539055 4.976221 93.986268 30.202492 99.797801 16.27709 163.082009z" /><path d="M0 0h2048v1365H0z" fill="#4c513a" /></g></svg>