<svg xmlns="http://www.w3.org/2000/svg" viewBox="0 0 2048 1365"><filter id="b"><feGaussianBlur stdDeviation="12" /></filter><path d="M0 0h2048v1365H0z" fill="#74807b" /><g filter="url(#b)" transform="scale(8.000000) translate(0.5 0.5)"><g transform="translate(218.461401 56.775509) rotate(217.223387) scale(139.562170 67.213013)"><ellipse fill="#eef3fb" fill-opacity=".501961" cx="0" cy="0" rx="1" ry="1" /></g><g transform="translate(67.800640 134.468200) rotate(102.873284) scale(56.425288 130.769824)"><ellipse fill="#061500" fill-opacity=".501961" cx="0" cy="0" rx="1" ry="1" /></g><g transform="translate(36.048731 7.238967) rotate(210.946289) scale(40.667555 43.803567)"><ellipse fill="#000504" fill-opacity=".501961" cx="0" cy="0" rx="1" ry="1" /></g><g transform="translate(114.341423 68.171227) rotate(280.749586) scale(31.633899 56.024577)"><ellipse fill="#9fbbc0" fill-opacity=".501961" cx="0" cy="0" rx="1" ry="1" /></g><path d="M0 0h2048v1365H0z" fill="#000809" /><g transform="translate(32.946428 60.901307) rotate(98.738178) scale(6.218539 42.699620)"><ellipse fill="#fff" fill-opacity=".501961" cx="0" cy="0" rx="1" ry="1" /></g><g transform="translate(150.172971 6.289913) rotate(229.652148) scale(27.960086 55.215598)"><ellipse fill="#fff" fill-opacity=".501961" cx="0" cy="0" rx="1" ry="1" /></g><path fill="#030809" fill-opacity=".501961" d="M179.509361 81.391332 188.794181 86.765553 170.044426 92.782244 88.652536 91.855905z" /></g></svg>