<svg xmlns="http://www.w3.org/2000/svg" viewBox="0 0 2048 1365"><filter id="b"><feGaussianBlur stdDeviation="12" /></filter><path d="M0 0h2048v1365H0z" fill="#838880" /><g filter="url(#b)" transform="scale(8.000000) translate(0.5 0.5)"><ellipse fill="#fff" fill-opacity=".501961" cx="143" cy="0" rx="237" ry="25" /><g transform="translate(26.861784 56.888446) rotate(82.614982) scale(31.621157 75.878535)"><ellipse fill="#173824" fill-opacity=".501961" cx="0" cy="0" rx="1" ry="1" /></g><g transform="translate(255.000000 105.957561) rotate(4.079422) scale(40.855238 77.230968)"><ellipse fill="#212712" fill-opacity=".501961" cx="0" cy="0" rx="1" ry="1" /></g><path fill="#d0c5c4" fill-opacity=".501961" d="M80 98l27 87L-16 91z" /><ellipse fill="#f7ffff" fill-opacity=".501961" cx="80" cy="0" rx="176" ry="20" /><g transform="translate(151.634317 49.158109) rotate(455.444976) scale(13.866255 79.791264)"><ellipse fill="#323e30" fill-opacity=".501961" cx="0" cy="0" rx="1" ry="1" /></g><g transform="translate(184 141) rotate(249) scale(38 26)"><path d="M0 0h2048v1365H0z" fill="#152508" /></g><g transform="translate(106.288106 148.417331) rotate(75.587738) scale(10.657602 60.627202)"><ellipse fill="#ddd8d6" fill-opacity=".501961" cx="0" cy="0" rx="1" ry="1" /></g></g></svg>