<svg xmlns="http://www.w3.org/2000/svg" viewBox="0 0 2048 1024"><filter id="b"><feGaussianBlur stdDeviation="12" /></filter><path d="M0 0h2048v1024H0z" fill="#677768" /><g filter="url(#b)" transform="scale(8.000000) translate(0.5 0.5)"><g transform="translate(102.258506 5.252276) rotate(358.629151) scale(226.327984 26.988521)"><ellipse fill="#fff" fill-opacity=".501961" cx="0" cy="0" rx="1" ry="1" /></g><g transform="translate(108.813998 94.419750) rotate(89.960740) scale(38.572949 255.000000)"><ellipse fill="#152c11" fill-opacity=".501961" cx="0" cy="0" rx="1" ry="1" /></g><ellipse fill="#fdffff" fill-opacity=".501961" cx="83" cy="5" rx="208" ry="23" /><ellipse fill="#495743" fill-opacity=".501961" cx="195" cy="54" rx="123" ry="30" /><path fill="#9f9183" fill-opacity=".501961" d="M126 43 71 75 31 40z" /><g transform="translate(255 108) rotate(31) scale(67 95)"><path d="M0 0h2048v1024H0z" fill="#718758" /></g><g transform="translate(0.000000 57.743004) rotate(131.727286) scale(27.219081 39.075213)"><ellipse fill="#1f3424" fill-opacity=".501961" cx="0" cy="0" rx="1" ry="1" /></g><g transform="translate(44.032470 6.389044) rotate(87.185292) scale(29.160085 40.329890)"><ellipse fill="#ddeefc" fill-opacity=".501961" cx="0" cy="0" rx="1" ry="1" /></g></g></svg>