<svg xmlns="http://www.w3.org/2000/svg" viewBox="0 0 2048 2048"><filter id="b"><feGaussianBlur stdDeviation="12" /></filter><path d="M0 0h2048v2048H0z" fill="#655954" /><g filter="url(#b)" transform="scale(8.000000) translate(0.5 0.5)"><g transform="translate(105.452862 34.220644) rotate(264.169625) scale(114.396243 68.605146)"><ellipse fill="#ffcbb2" fill-opacity=".501961" cx="0" cy="0" rx="1" ry="1" /></g><g transform="translate(128 235) rotate(179) scale(255 165)"><path d="M0 0h2048v2048H0z" fill="#00122f" /></g><g transform="translate(121.441549 135.304047) rotate(316.140374) scale(75.449019 31.205109)"><ellipse fill="#b96b52" fill-opacity=".501961" cx="0" cy="0" rx="1" ry="1" /></g><g transform="translate(88.429195 51.598828) rotate(274.048934) scale(59.725060 18.635398)"><ellipse fill="#d7dde7" fill-opacity=".501961" cx="0" cy="0" rx="1" ry="1" /></g><g transform="translate(230.759822 143.562783) rotate(156.101774) scale(49.384863 73.390495)"><ellipse fill="#33271c" fill-opacity=".501961" cx="0" cy="0" rx="1" ry="1" /></g><ellipse fill="#a5773f" fill-opacity=".501961" cx="174" cy="37" rx="44" ry="43" /><g transform="translate(83.392675 247.772053) rotate(322.296997) scale(33.387199 55.543304)"><ellipse fill="#00527d" fill-opacity=".501961" cx="0" cy="0" rx="1" ry="1" /></g><path fill="#161a1b" fill-opacity=".501961" d="M-1 105 0 271 69 168z" /></g></svg>