<svg xmlns="http://www.w3.org/2000/svg" viewBox="0 0 2048 982"><filter id="b"><feGaussianBlur stdDeviation="12" /></filter><path d="M0 0h2048v982H0z" fill="#a0947f" /><g filter="url(#b)" transform="scale(8.000000) translate(0.5 0.5)"><g transform="translate(154.265055 59.968372) rotate(201.967710) scale(64.383275 46.574193)"><ellipse fill="#ede2c7" fill-opacity=".501961" cx="0" cy="0" rx="1" ry="1" /></g><g transform="translate(0.000000 98.595510) rotate(193.433400) scale(36.289910 142.679480)"><ellipse fill="#46331e" fill-opacity=".501961" cx="0" cy="0" rx="1" ry="1" /></g><g transform="translate(34.195043 113.582141) rotate(1.443380) scale(57.714661 5.750804)"><ellipse fill="#00020e" fill-opacity=".501961" cx="0" cy="0" rx="1" ry="1" /></g><path fill="#284968" fill-opacity=".501961" d="M264.252599 123.759588 236.89547 102.90409 58.193618 116.21427 218.884293 120.730846z" /><ellipse fill="#664721" fill-opacity=".501961" cx="153" cy="0" rx="237" ry="12" /><g transform="translate(169.556599 55.583619) rotate(108.481520) scale(27.240025 14.565127)"><ellipse fill="#67826b" fill-opacity=".501961" cx="0" cy="0" rx="1" ry="1" /></g><g transform="translate(127.121151 68.266689) rotate(295.431550) scale(46.896700 20.640256)"><ellipse fill="#f6d7ba" fill-opacity=".501961" cx="0" cy="0" rx="1" ry="1" /></g><ellipse fill="#87bbd3" fill-opacity=".501961" cx="217" cy="100" rx="102" ry="8" /></g></svg>