<svg xmlns="http://www.w3.org/2000/svg" viewBox="0 0 2048 1365"><filter id="b"><feGaussianBlur stdDeviation="12" /></filter><path d="M0 0h2048v1365H0z" fill="#5c3d39" /><g filter="url(#b)" transform="scale(8.000000) translate(0.5 0.5)"><g transform="translate(151.181838 13.991604) rotate(183.368241) scale(161.841189 28.233097)"><ellipse fill="#000" fill-opacity=".501961" cx="0" cy="0" rx="1" ry="1" /></g><ellipse fill="#b85d58" fill-opacity=".501961" cx="80" cy="96" rx="68" ry="68" /><path fill="#ff656b" fill-opacity=".501961" d="M181 141 120 33l27 123z" /><g transform="translate(221.186848 98.807085) rotate(25.300149) scale(43.786553 16.408677)"><ellipse fill="#ff465e" fill-opacity=".501961" cx="0" cy="0" rx="1" ry="1" /></g><g transform="translate(93.374529 149.850934) rotate(103.509953) scale(26.855137 51.225626)"><ellipse fill="#0d8862" fill-opacity=".501961" cx="0" cy="0" rx="1" ry="1" /></g><ellipse fill="#0d9770" fill-opacity=".501961" cx="209" cy="157" rx="41" ry="38" /><g transform="translate(4.156983 83.269857) rotate(156.056758) scale(111.710495 13.955904)"><ellipse fill="#ff5355" fill-opacity=".501961" cx="0" cy="0" rx="1" ry="1" /></g><g transform="translate(225.809672 78.036414) rotate(302.547315) scale(44.273538 13.396522)"><ellipse fill="#ff3553" fill-opacity=".501961" cx="0" cy="0" rx="1" ry="1" /></g></g></svg>