<svg xmlns="http://www.w3.org/2000/svg" viewBox="0 0 1365 2048"><filter id="b"><feGaussianBlur stdDeviation="12" /></filter><path d="M0 0h1365v2048H0z" fill="#929d9f" /><g filter="url(#b)" transform="scale(8.000000) translate(0.5 0.5)"><g transform="translate(86.242148 219.466234) rotate(-169.196169) scale(112.172122 73.576361)"><ellipse fill="#000f10" fill-opacity=".501961" cx="0" cy="0" rx="1" ry="1" /></g><ellipse fill="#fff" fill-opacity=".501961" cx="58" cy="54" rx="169" ry="72" /><ellipse fill="#697571" fill-opacity=".501961" cx="96" cy="135" rx="40" ry="80" /><ellipse fill="#fbffff" fill-opacity=".501961" cx="15" cy="55" rx="54" ry="85" /><g transform="translate(152.103043 45.843699) rotate(147.308007) scale(39.053145 117.163964)"><ellipse fill="#fff" fill-opacity=".501961" cx="0" cy="0" rx="1" ry="1" /></g><g transform="translate(126.957427 255.000000) rotate(165.365140) scale(29.644715 95.593435)"><ellipse fill="#132827" fill-opacity=".501961" cx="0" cy="0" rx="1" ry="1" /></g><g transform="translate(76.058781 191.877014) rotate(280.402205) scale(105.266578 16.498504)"><ellipse fill="#8c9a9f" fill-opacity=".501961" cx="0" cy="0" rx="1" ry="1" /></g><g transform="translate(24.700787 250.054010) rotate(170.902135) scale(25.192062 80.340502)"><ellipse fill="#041a21" fill-opacity=".501961" cx="0" cy="0" rx="1" ry="1" /></g></g></svg>