<svg xmlns="http://www.w3.org/2000/svg" viewBox="0 0 1638 2048"><filter id="b"><feGaussianBlur stdDeviation="12" /></filter><path d="M0 0h1638v2048H0z" fill="#908785" /><g filter="url(#b)" transform="scale(8.000000) translate(0.5 0.5)"><g transform="translate(98.372361 35.159809) rotate(268.865375) scale(40.562805 203.000000)"><ellipse fill="#fff" fill-opacity=".501961" cx="0" cy="0" rx="1" ry="1" /></g><path fill="#000" fill-opacity=".501961" d="M219 256-16 260l95-91z" /><g transform="translate(75.816839 91.386539) rotate(41.621447) scale(25.644949 59.228729)"><ellipse fill="#1f090d" fill-opacity=".501961" cx="0" cy="0" rx="1" ry="1" /></g><g transform="translate(165.027859 127.401255) rotate(309.514518) scale(16.863885 105.126779)"><ellipse fill="#00070b" fill-opacity=".501961" cx="0" cy="0" rx="1" ry="1" /></g><g transform="translate(171.652138 34.708218) rotate(142.998540) scale(49.211804 94.470816)"><ellipse fill="#fff" fill-opacity=".501961" cx="0" cy="0" rx="1" ry="1" /></g><g transform="translate(9.576975 63.049785) rotate(51.821206) scale(39.915824 102.036648)"><ellipse fill="azure" fill-opacity=".501961" cx="0" cy="0" rx="1" ry="1" /></g><g transform="translate(19.787754 135.091784) rotate(-48.901641) scale(42.549533 22.143603)"><ellipse fill="#20242a" fill-opacity=".501961" cx="0" cy="0" rx="1" ry="1" /></g><g transform="translate(159.373224 185.489399) rotate(128.532572) scale(30.760400 57.927808)"><ellipse fill="#f79b7c" fill-opacity=".501961" cx="0" cy="0" rx="1" ry="1" /></g></g></svg>