<svg xmlns="http://www.w3.org/2000/svg" viewBox="0 0 1365 2048"><filter id="b"><feGaussianBlur stdDeviation="12" /></filter><path d="M0 0h1365v2048H0z" fill="#84999a" /><g filter="url(#b)" transform="scale(8.000000) translate(0.5 0.5)"><ellipse fill="#000" fill-opacity=".501961" cx="169" cy="217" rx="96" ry="41" /><g transform="translate(126.700127 47.568631) rotate(187.307292) scale(169.000000 50.171964)"><ellipse fill="#ecfaff" fill-opacity=".501961" cx="0" cy="0" rx="1" ry="1" /></g><ellipse fill="#756438" fill-opacity=".501961" cx="32" cy="235" rx="81" ry="60" /><g transform="translate(142.868661 217.273667) rotate(186.798998) scale(53.051198 22.738146)"><ellipse fill="#001908" fill-opacity=".501961" cx="0" cy="0" rx="1" ry="1" /></g><g transform="translate(31.217021 97.004704) rotate(186.240101) scale(81.143008 17.300508)"><ellipse fill="#486060" fill-opacity=".501961" cx="0" cy="0" rx="1" ry="1" /></g><g transform="translate(38.696008 190.953259) rotate(279.984554) scale(7.032830 59.058778)"><ellipse fill="#121e1a" fill-opacity=".501961" cx="0" cy="0" rx="1" ry="1" /></g><path fill="#a49e7d" fill-opacity=".501961" d="M144 243-16 185 93 264z" /><ellipse fill="#69a3ae" fill-opacity=".501961" cx="90" cy="149" rx="120" ry="38" /></g></svg>