<svg xmlns="http://www.w3.org/2000/svg" viewBox="0 0 1365 2048"><filter id="b"><feGaussianBlur stdDeviation="12" /></filter><path d="M0 0h1365v2048H0z" fill="#84999a" /><g filter="url(#b)" transform="scale(8.000000) translate(0.5 0.5)"><g transform="translate(164.950109 225.454373) rotate(103.765582) scale(38.697998 98.131507)"><ellipse fill="#000" fill-opacity=".501961" cx="0" cy="0" rx="1" ry="1" /></g><g transform="translate(94.003579 32.882041) rotate(192.412390) scale(169.000000 60.867385)"><ellipse fill="#ebf9ff" fill-opacity=".501961" cx="0" cy="0" rx="1" ry="1" /></g><g transform="translate(40.901046 226.403112) rotate(111.371480) scale(40.604574 86.657836)"><ellipse fill="#796839" fill-opacity=".501961" cx="0" cy="0" rx="1" ry="1" /></g><g transform="translate(150.195977 218.474307) rotate(9.496587) scale(60.708633 25.805320)"><ellipse fill="#001c09" fill-opacity=".501961" cx="0" cy="0" rx="1" ry="1" /></g><path fill="#455d5e" fill-opacity=".501961" d="M85.233411 88.407096-16 74.54022 6.901172 115.439496 145.809596 111.611055z" /><g transform="translate(29.342540 189.951925) rotate(188.550361) scale(63.750137 6.667796)"><ellipse fill="#111b15" fill-opacity=".501961" cx="0" cy="0" rx="1" ry="1" /></g><ellipse fill="#a69574" fill-opacity=".501961" cx="90" cy="183" rx="57" ry="8" /><path fill="#3e4b26" fill-opacity=".501961" d="M167 147l18 51-58 21z" /></g></svg>