<svg xmlns="http://www.w3.org/2000/svg" viewBox="0 0 2048 1365"><filter id="b"><feGaussianBlur stdDeviation="12" /></filter><path d="M0 0h2048v1365H0z" fill="#9caaac" /><g filter="url(#b)" transform="scale(8.000000) translate(0.5 0.5)"><g transform="translate(131.172869 169.000000) rotate(92.818933) scale(41.907684 255.000000)"><ellipse fill="#071501" fill-opacity=".501961" cx="0" cy="0" rx="1" ry="1" /></g><g transform="translate(134.554201 29.445706) rotate(7.587136) scale(250.846169 50.401658)"><ellipse fill="#fff" fill-opacity=".501961" cx="0" cy="0" rx="1" ry="1" /></g><ellipse fill="#6a797b" fill-opacity=".501961" cx="127" cy="113" rx="188" ry="28" /><g transform="translate(22.835776 28.337543) rotate(226.975456) scale(34.684497 91.068174)"><ellipse fill="#fff" fill-opacity=".501961" cx="0" cy="0" rx="1" ry="1" /></g><path fill="#f2d8d5" fill-opacity=".501961" d="M264 161l-26-19-49 4z" /><g transform="translate(69.223330 169.000000) rotate(175.398364) scale(97.659691 24.286674)"><ellipse fill="#142c1b" fill-opacity=".501961" cx="0" cy="0" rx="1" ry="1" /></g><ellipse fill="#dcf2ff" fill-opacity=".501961" cx="98" cy="25" rx="52" ry="52" /><ellipse fill="#d9cac1" fill-opacity=".501961" cx="164" cy="116" rx="17" ry="17" /></g></svg>