<svg xmlns="http://www.w3.org/2000/svg" viewBox="0 0 1638 2048"><filter id="b"><feGaussianBlur stdDeviation="12" /></filter><path d="M0 0h1638v2048H0z" fill="#908785" /><g filter="url(#b)" transform="scale(8.000000) translate(0.5 0.5)"><ellipse fill="#fff" fill-opacity=".501961" cx="185" cy="10" rx="82" ry="82" /><g transform="translate(92 249) rotate(224) scale(134 135)"><path d="M0 0h1638v2048H0z" fill="#000" /></g><ellipse fill="#fff" fill-opacity=".501961" cx="1" cy="6" rx="91" ry="91" /><g transform="translate(156.835686 121.328781) rotate(219.359020) scale(106.333807 16.968459)"><ellipse fill="#000409" fill-opacity=".501961" cx="0" cy="0" rx="1" ry="1" /></g><g transform="translate(35.887927 128.911202) rotate(230.826814) scale(19.455494 92.781702)"><ellipse fill="#071822" fill-opacity=".501961" cx="0" cy="0" rx="1" ry="1" /></g><g transform="translate(164.294650 31.634965) rotate(225.302837) scale(130.308449 42.517041)"><ellipse fill="#fff" fill-opacity=".501961" cx="0" cy="0" rx="1" ry="1" /></g><g transform="translate(150.387590 233.297339) rotate(111.139077) scale(14.512068 86.884402)"><ellipse fill="#000b06" fill-opacity=".501961" cx="0" cy="0" rx="1" ry="1" /></g><g transform="translate(45 26) rotate(223) scale(68 195)"><path d="M0 0h1638v2048H0z" fill="#e6ffff" /></g></g></svg>