<svg xmlns="http://www.w3.org/2000/svg" viewBox="0 0 2048 1365"><filter id="b"><feGaussianBlur stdDeviation="12" /></filter><path d="M0 0h2048v1365H0z" fill="#b4855a" /><g filter="url(#b)" transform="scale(8.000000) translate(0.5 0.5)"><g transform="translate(162.334708 149.943000) rotate(359.883243) scale(255.000000 33.024223)"><ellipse fill="#050000" fill-opacity=".501961" cx="0" cy="0" rx="1" ry="1" /></g><g transform="translate(148.343550 42.207153) rotate(87.813053) scale(64.988385 148.605380)"><ellipse fill="#ffe3a9" fill-opacity=".501961" cx="0" cy="0" rx="1" ry="1" /></g><ellipse fill="#090000" fill-opacity=".501961" cx="255" cy="137" rx="42" ry="50" /><g transform="translate(127.598260 114.225165) rotate(58.907639) scale(51.783159 23.409134)"><ellipse fill="#ffa149" fill-opacity=".501961" cx="0" cy="0" rx="1" ry="1" /></g><ellipse fill="#ffebb9" fill-opacity=".501961" cx="148" cy="69" rx="57" ry="29" /><g transform="translate(22.751603 159.111982) rotate(291.099033) scale(44.138142 111.024983)"><ellipse fill="#2f170c" fill-opacity=".501961" cx="0" cy="0" rx="1" ry="1" /></g><g transform="translate(63.631819 87.409927) rotate(284.772167) scale(24.716442 102.142231)"><ellipse fill="#fc9c52" fill-opacity=".501961" cx="0" cy="0" rx="1" ry="1" /></g><g transform="translate(172.331539 121.625631) rotate(97.534907) scale(29.468195 15.633177)"><ellipse fill="#883e09" fill-opacity=".501961" cx="0" cy="0" rx="1" ry="1" /></g></g></svg>