<svg xmlns="http://www.w3.org/2000/svg" viewBox="0 0 2048 839"><filter id="b"><feGaussianBlur stdDeviation="12" /></filter><path d="M0 0h2048v839H0z" fill="#c7956a" /><g filter="url(#b)" transform="scale(8.000000) translate(0.5 0.5)"><ellipse fill="#000" fill-opacity=".501961" cx="54" cy="95" rx="100" ry="29" /><g transform="translate(174.506980 0.000000) rotate(276.535907) scale(54.086773 87.877061)"><ellipse fill="#fffff5" fill-opacity=".501961" cx="0" cy="0" rx="1" ry="1" /></g><g transform="translate(237.585431 93.298014) rotate(22.056164) scale(21.667851 38.952513)"><ellipse fill="#501700" fill-opacity=".501961" cx="0" cy="0" rx="1" ry="1" /></g><ellipse fill="#fff" fill-opacity=".501961" cx="186" cy="3" rx="45" ry="35" /><g transform="translate(145.135678 46.102970) rotate(113.074628) scale(25.898852 100.167489)"><ellipse fill="#ffbb78" fill-opacity=".501961" cx="0" cy="0" rx="1" ry="1" /></g><g transform="translate(57.835955 103.000000) rotate(-1.615629) scale(68.998100 15.958785)"><ellipse fill="#000" fill-opacity=".501961" cx="0" cy="0" rx="1" ry="1" /></g><path fill="#000" fill-opacity=".501961" d="M119.632062 110.914865 119.573971 89.748434 115.886106 67.173582 128.64753 58.743035z" /><ellipse fill="#fffff6" fill-opacity=".501961" cx="181" cy="76" rx="28" ry="8" /></g></svg>