<svg xmlns="http://www.w3.org/2000/svg" viewBox="0 0 2560 1280"><filter id="b"><feGaussianBlur stdDeviation="12" /></filter><path d="M0 0h2560v1280H0z" fill="#9a8473" /><g filter="url(#b)" transform="scale(10.000000) translate(0.5 0.5)"><g transform="translate(87.983808 1.215494) rotate(173.690086) scale(241.535979 38.840615)"><ellipse fill="#fff" fill-opacity=".501961" cx="0" cy="0" rx="1" ry="1" /></g><g transform="translate(236.258015 96.981274) rotate(195.575084) scale(40.919533 89.340596)"><ellipse fill="#441500" fill-opacity=".501961" cx="0" cy="0" rx="1" ry="1" /></g><g transform="translate(70.945172 88.910846) rotate(286.601774) scale(20.815945 93.068490)"><ellipse fill="#372c1c" fill-opacity=".501961" cx="0" cy="0" rx="1" ry="1" /></g><g transform="translate(119.058556 54.604036) rotate(-9.464143) scale(102.611711 15.033248)"><ellipse fill="#5c4833" fill-opacity=".501961" cx="0" cy="0" rx="1" ry="1" /></g><g transform="translate(18.718017 127.000000) rotate(114.255610) scale(26.872974 146.171968)"><ellipse fill="#d4cfd7" fill-opacity=".501961" cx="0" cy="0" rx="1" ry="1" /></g><g transform="translate(168.617820 81.152327) rotate(270.274396) scale(17.813714 63.412286)"><ellipse fill="#e79d69" fill-opacity=".501961" cx="0" cy="0" rx="1" ry="1" /></g><g transform="translate(248.080323 113.504562) rotate(251.186770) scale(22.592559 52.217388)"><ellipse fill="#2e1700" fill-opacity=".501961" cx="0" cy="0" rx="1" ry="1" /></g><g transform="translate(28.683402 25.588429) rotate(167.758609) scale(227.813678 24.537353)"><ellipse fill="#e7dce1" fill-opacity=".501961" cx="0" cy="0" rx="1" ry="1" /></g></g></svg>