<svg xmlns="http://www.w3.org/2000/svg" viewBox="0 0 2048 1638"><filter id="b"><feGaussianBlur stdDeviation="12" /></filter><path d="M0 0h2048v1638H0z" fill="#c3c8cd" /><g filter="url(#b)" transform="scale(8.000000) translate(0.5 0.5)"><g transform="translate(23.626237 187.370382) rotate(419.056134) scale(26.898545 23.348999)"><ellipse fill="#01160f" fill-opacity=".501961" cx="0" cy="0" rx="1" ry="1" /></g><path fill="#2a4644" fill-opacity=".501961" d="M229.701653 124.083407 156.995465 125.010076 183.084364 151.119043 207.23504 172.499595z" /><g transform="translate(123.869915 10.398888) rotate(-1.047671) scale(245.696529 41.833757)"><ellipse fill="#feffff" fill-opacity=".501961" cx="0" cy="0" rx="1" ry="1" /></g><ellipse fill="#61665a" fill-opacity=".501961" cx="11" cy="109" rx="30" ry="14" /><path fill="#7f7c70" fill-opacity=".501961" d="M80 123l30 35-86 14z" /><g transform="translate(124.603067 203.000000) rotate(129.405046) scale(20.220627 52.785735)"><ellipse fill="#fff" fill-opacity=".501961" cx="0" cy="0" rx="1" ry="1" /></g><g transform="translate(132.071143 128.603210) rotate(161.758386) scale(29.588271 39.468199)"><ellipse fill="#f0eef5" fill-opacity=".501961" cx="0" cy="0" rx="1" ry="1" /></g><path fill="#fff" fill-opacity=".501961" d="M212 199l-34 20-25-50z" /></g></svg>