<svg xmlns="http://www.w3.org/2000/svg" viewBox="0 0 2048 1365"><filter id="b"><feGaussianBlur stdDeviation="12" /></filter><path d="M0 0h2048v1365H0z" fill="#93d3f6" /><g filter="url(#b)" transform="scale(8.000000) translate(0.5 0.5)"><g transform="translate(87.290723 155.533721) rotate(269.139270) scale(17.898169 232.774762)"><ellipse fill="#53a2d7" fill-opacity=".501961" cx="0" cy="0" rx="1" ry="1" /></g><g transform="translate(168.529242 91.039989) rotate(267.497796) scale(47.385140 167.339181)"><ellipse fill="#bce4fd" fill-opacity=".501961" cx="0" cy="0" rx="1" ry="1" /></g><g transform="translate(87.577585 13.235645) rotate(267.277128) scale(18.918823 148.093807)"><ellipse fill="#68d5ff" fill-opacity=".501961" cx="0" cy="0" rx="1" ry="1" /></g><path d="M0 0h2048v1365H0z" fill="#000" /><g transform="translate(194.244028 36.457960) rotate(87.314563) scale(22.692167 238.452143)"><ellipse fill="#91e0ff" fill-opacity=".501961" cx="0" cy="0" rx="1" ry="1" /></g><g transform="translate(144.762236 83.497242) rotate(273.507659) scale(30.079994 54.102543)"><ellipse fill="#b6e6fd" fill-opacity=".501961" cx="0" cy="0" rx="1" ry="1" /></g><ellipse fill="#a0d0f4" fill-opacity=".501961" cx="22" cy="102" rx="60" ry="37" /><g transform="translate(217.735343 161.701762) rotate(269.995720) scale(8.401492 106.092264)"><ellipse fill="#89c6ee" fill-opacity=".501961" cx="0" cy="0" rx="1" ry="1" /></g></g></svg>