<svg xmlns="http://www.w3.org/2000/svg" viewBox="0 0 1638 2048"><filter id="b"><feGaussianBlur stdDeviation="12" /></filter><path d="M0 0h1638v2048H0z" fill="#7f90a1" /><g filter="url(#b)" transform="scale(8.000000) translate(0.5 0.5)"><g transform="translate(99.937524 253.653199) rotate(307.001329) scale(183.577556 91.374333)"><ellipse fill="#0c222a" fill-opacity=".501961" cx="0" cy="0" rx="1" ry="1" /></g><g transform="translate(84.242615 53.426977) rotate(168.828307) scale(203.000000 58.908703)"><ellipse fill="#faffff" fill-opacity=".501961" cx="0" cy="0" rx="1" ry="1" /></g><g transform="translate(66.277880 160.944826) rotate(15.185841) scale(157.788675 20.623881)"><ellipse fill="#c5cbde" fill-opacity=".501961" cx="0" cy="0" rx="1" ry="1" /></g><g transform="translate(86.772310 252.369509) rotate(99.599177) scale(35.114495 203.000000)"><ellipse fill="#001b2d" fill-opacity=".501961" cx="0" cy="0" rx="1" ry="1" /></g><path d="M0 0h1638v2048H0z" fill="#041501" /><g transform="translate(51.633345 93.427501) rotate(63.097262) scale(31.457023 126.921868)"><ellipse fill="#d9def7" fill-opacity=".501961" cx="0" cy="0" rx="1" ry="1" /></g><path fill="#030a00" fill-opacity=".501961" d="M195.185902 174.481508 212.900687 154.221235 121.894226 139.832707 84.628523 147.802305z" /><g transform="translate(49.452354 200.981482) rotate(180.207011) scale(164.089318 21.555410)"><ellipse fill="#526f88" fill-opacity=".501961" cx="0" cy="0" rx="1" ry="1" /></g></g></svg>