<svg xmlns="http://www.w3.org/2000/svg" viewBox="0 0 1365 2048"><filter id="b"><feGaussianBlur stdDeviation="12" /></filter><path d="M0 0h1365v2048H0z" fill="#9a9d9c" /><g filter="url(#b)" transform="scale(8.000000) translate(0.5 0.5)"><g transform="translate(76.973358 117.542768) rotate(88.569693) scale(50.201912 107.290983)"><ellipse fill="#f8ccb4" fill-opacity=".501961" cx="0" cy="0" rx="1" ry="1" /></g><g transform="translate(79.452454 255.000000) rotate(259.805593) scale(38.499400 169.000000)"><ellipse fill="#336377" fill-opacity=".501961" cx="0" cy="0" rx="1" ry="1" /></g><g transform="translate(103.896844 13.796379) rotate(270.903041) scale(22.798630 169.000000)"><ellipse fill="#4d7794" fill-opacity=".501961" cx="0" cy="0" rx="1" ry="1" /></g><ellipse fill="#829296" fill-opacity=".501961" cx="92" cy="200" rx="158" ry="32" /><g transform="translate(157 249) rotate(269) scale(37 47)"><path d="M0 0h1365v2048H0z" fill="#2e5b70" /></g><g transform="translate(122.515271 153.403756) rotate(178.025571) scale(129.251689 18.669110)"><ellipse fill="#bb9d9e" fill-opacity=".501961" cx="0" cy="0" rx="1" ry="1" /></g><g transform="translate(62.061795 120.985077) rotate(89.110786) scale(16.439933 103.566244)"><ellipse fill="#e8c7b1" fill-opacity=".501961" cx="0" cy="0" rx="1" ry="1" /></g><ellipse fill="#1e5a76" fill-opacity=".501961" cx="26" cy="235" rx="72" ry="5" /></g></svg>