<svg xmlns="http://www.w3.org/2000/svg" viewBox="0 0 2048 1365"><filter id="b"><feGaussianBlur stdDeviation="12" /></filter><path d="M0 0h2048v1365H0z" fill="#a5afbf" /><g filter="url(#b)" transform="scale(8.000000) translate(0.5 0.5)"><g transform="translate(235.618801 150.844929) rotate(279.733723) scale(19.449569 113.549526)"><ellipse fill="#6a595b" fill-opacity=".501961" cx="0" cy="0" rx="1" ry="1" /></g><ellipse fill="#b3c0d1" fill-opacity=".501961" cx="82" cy="79" rx="212" ry="51" /><g transform="translate(215.930134 132.993725) rotate(169.505673) scale(50.567764 14.465538)"><ellipse fill="#7c7172" fill-opacity=".501961" cx="0" cy="0" rx="1" ry="1" /></g><g transform="translate(226 152) rotate(340) scale(108 18)"><path d="M0 0h2048v1365H0z" fill="#a5a4b3" /></g><path fill="#aeadb8" fill-opacity=".501961" d="M136 152 88 133l109 6z" /><path fill="#5c5457" fill-opacity=".501961" d="M142.787971 150.693178 230.57341 136.468586 203.298605 155.708712 126.515491 149.861146z" /><path fill="#5d5b61" fill-opacity=".501961" d="M167.170456 137.874664 235.163371 135.972362 103.102636 127.473356 116.895927 134.709081z" /><path fill="#4a4043" fill-opacity=".501961" d="M268.774219 154.642212 251.014206 165.726456 220.136774 166.120727 242.117624 155.79278z" /></g></svg>