<svg xmlns="http://www.w3.org/2000/svg" viewBox="0 0 2048 1196"><filter id="b"><feGaussianBlur stdDeviation="12" /></filter><path d="M0 0h2048v1196H0z" fill="#b3c2d1" /><g filter="url(#b)" transform="scale(8.000000) translate(0.5 0.5)"><ellipse fill="#947038" fill-opacity=".501961" cx="182" cy="138" rx="142" ry="7" /><g transform="translate(12.101220 117.893705) rotate(90.998617) scale(11.460777 97.760197)"><ellipse fill="#896e3f" fill-opacity=".501961" cx="0" cy="0" rx="1" ry="1" /></g><g transform="translate(136.609399 65.606737) rotate(272.236081) scale(51.672062 99.196778)"><ellipse fill="#cce0f6" fill-opacity=".501961" cx="0" cy="0" rx="1" ry="1" /></g><ellipse fill="#294d48" fill-opacity=".501961" cx="70" cy="89" rx="81" ry="2" /><g transform="translate(230.984359 132.996162) rotate(269.609407) scale(5.836773 46.839259)"><ellipse fill="#85754f" fill-opacity=".501961" cx="0" cy="0" rx="1" ry="1" /></g><g transform="translate(122.264396 130.439932) rotate(86.313611) scale(6.669477 73.353599)"><ellipse fill="#dee1e2" fill-opacity=".501961" cx="0" cy="0" rx="1" ry="1" /></g><path d="M0 0h2048v1196H0z" fill="#534a26" /><g transform="translate(158.664605 10.476433) rotate(271.491499) scale(17.955972 173.103865)"><ellipse fill="#97bae1" fill-opacity=".501961" cx="0" cy="0" rx="1" ry="1" /></g></g></svg>