<svg xmlns="http://www.w3.org/2000/svg" viewBox="0 0 2048 1024"><filter id="b"><feGaussianBlur stdDeviation="12" /></filter><path d="M0 0h2048v1024H0z" fill="#91a1bb" /><g filter="url(#b)" transform="scale(8.000000) translate(0.5 0.5)"><ellipse fill="#3b5e7a" fill-opacity=".501961" cx="131" cy="116" rx="255" ry="44" /><g transform="translate(86.875343 8.566978) rotate(275.371860) scale(38.512124 255.000000)"><ellipse fill="#efe1f1" fill-opacity=".501961" cx="0" cy="0" rx="1" ry="1" /></g><ellipse fill="#000" fill-opacity=".501961" cx="225" cy="84" rx="121" ry="5" /><g transform="translate(221 124) rotate(250) scale(31 120)"><path d="M0 0h2048v1024H0z" fill="#191b19" /></g><path fill="#92a7c7" fill-opacity=".501961" d="M271 86H-16l117 57z" /><g transform="translate(88.396648 52.878790) rotate(273.028538) scale(20.410040 179.107205)"><ellipse fill="#9bb2d8" fill-opacity=".501961" cx="0" cy="0" rx="1" ry="1" /></g><g transform="translate(13.129899 116.337801) rotate(162.569002) scale(68.760872 44.501877)"><ellipse fill="#6293bf" fill-opacity=".501961" cx="0" cy="0" rx="1" ry="1" /></g><ellipse fill="#09150b" fill-opacity=".501961" cx="219" cy="84" rx="74" ry="4" /></g></svg>