<svg xmlns="http://www.w3.org/2000/svg" viewBox="0 0 2048 683"><filter id="b"><feGaussianBlur stdDeviation="12" /></filter><path d="M0 0h2048v683H0z" fill="#98877a" /><g filter="url(#b)" transform="scale(8.000000) translate(0.5 0.5)"><g transform="translate(22.638916 53.022600) rotate(170.287067) scale(33.159654 25.003578)"><ellipse fill="#000" fill-opacity=".501961" cx="0" cy="0" rx="1" ry="1" /></g><g transform="translate(119.128809 2.503174) rotate(-2.158219) scale(140.289583 26.509503)"><ellipse fill="#fff" fill-opacity=".501961" cx="0" cy="0" rx="1" ry="1" /></g><g transform="translate(247.524523 53.339960) rotate(299.132262) scale(46.054323 34.012481)"><ellipse fill="#3b0c00" fill-opacity=".501961" cx="0" cy="0" rx="1" ry="1" /></g><g transform="translate(139.899833 57.983541) rotate(194.241880) scale(55.293169 13.351273)"><ellipse fill="#3f2e1a" fill-opacity=".501961" cx="0" cy="0" rx="1" ry="1" /></g><g transform="translate(89.159176 80.887118) rotate(188.845757) scale(42.899473 23.899949)"><ellipse fill="#d3c9cd" fill-opacity=".501961" cx="0" cy="0" rx="1" ry="1" /></g><g transform="translate(166.699848 34.556219) rotate(260.723430) scale(9.438815 65.369580)"><ellipse fill="#634930" fill-opacity=".501961" cx="0" cy="0" rx="1" ry="1" /></g><ellipse fill="#eee0e1" fill-opacity=".501961" cx="85" cy="5" rx="62" ry="31" /><g transform="translate(250.739569 72.754951) rotate(180.313175) scale(21.371245 17.453467)"><ellipse fill="#160d00" fill-opacity=".501961" cx="0" cy="0" rx="1" ry="1" /></g></g></svg>