<svg xmlns="http://www.w3.org/2000/svg" viewBox="0 0 4702 3762"><filter id="b"><feGaussianBlur stdDeviation="12" /></filter><path d="M0 0h4702v3762H0z" fill="#938875" /><g filter="url(#b)" transform="scale(18.367188) translate(0.5 0.5)"><g transform="translate(78.666046 203.000000) rotate(88.342081) scale(56.534957 215.763370)"><ellipse fill="#010" fill-opacity=".501961" cx="0" cy="0" rx="1" ry="1" /></g><path fill="#fff2c2" fill-opacity=".501961" d="M-16 83 271 58v96z" /><g transform="translate(31.244986 96.485057) rotate(382.606459) scale(44.970051 35.354910)"><ellipse fill="#fff2bb" fill-opacity=".501961" cx="0" cy="0" rx="1" ry="1" /></g><path d="M0 0h4702v3762H0z" fill="#6b5b5c" /><g transform="translate(200.695742 95.354319) rotate(181.808836) scale(85.199408 18.524970)"><ellipse fill="#fff2c1" fill-opacity=".501961" cx="0" cy="0" rx="1" ry="1" /></g><g transform="translate(73.665554 146.403730) rotate(118.684512) scale(19.423043 49.030697)"><ellipse fill="#ae9788" fill-opacity=".501961" cx="0" cy="0" rx="1" ry="1" /></g><g transform="translate(164.153429 171.570322) rotate(164.768496) scale(44.053941 32.108724)"><ellipse fill="#192b29" fill-opacity=".501961" cx="0" cy="0" rx="1" ry="1" /></g><g transform="translate(0.000000 169.922188) rotate(342.306441) scale(34.985386 41.480709)"><ellipse fill="#25291d" fill-opacity=".501961" cx="0" cy="0" rx="1" ry="1" /></g></g></svg>