<svg xmlns="http://www.w3.org/2000/svg" viewBox="0 0 2048 683"><filter id="b"><feGaussianBlur stdDeviation="12" /></filter><path d="M0 0h2048v683H0z" fill="#b1cce2" /><g filter="url(#b)" transform="scale(8.000000) translate(0.5 0.5)"><ellipse fill="#596c89" fill-opacity=".501961" cx="241" cy="46" rx="153" ry="20" /><ellipse fill="#efffff" fill-opacity=".501961" cx="42" cy="80" rx="254" ry="16" /><g transform="translate(115.718754 0.000000) rotate(267.600435) scale(31.254944 152.881398)"><ellipse fill="#defaff" fill-opacity=".501961" cx="0" cy="0" rx="1" ry="1" /></g><path fill="#516a8a" fill-opacity=".501961" d="M50.391102 51.109998-13.356858 18.096606-16 55.827644-4.181014 55.181701z" /><g transform="translate(248.200538 37.184923) rotate(138.593244) scale(29.831116 22.530068)"><ellipse fill="#607a99" fill-opacity=".501961" cx="0" cy="0" rx="1" ry="1" /></g><g transform="translate(43.389252 61.114971) rotate(84.367169) scale(8.303641 60.230195)"><ellipse fill="#daf5ff" fill-opacity=".501961" cx="0" cy="0" rx="1" ry="1" /></g><path fill="#9eb5cb" fill-opacity=".501961" d="M92 63l116 4-9-29z" /><g transform="translate(76.162040 10.413482) rotate(-0.973511) scale(62.900352 31.760758)"><ellipse fill="#cae5ff" fill-opacity=".501961" cx="0" cy="0" rx="1" ry="1" /></g></g></svg>