<svg xmlns="http://www.w3.org/2000/svg" viewBox="0 0 5162 3404"><filter id="b"><feGaussianBlur stdDeviation="12" /></filter><path d="M0 0h5162v3404H0z" fill="#8c95a3" /><g filter="url(#b)" transform="scale(20.164062) translate(0.5 0.5)"><ellipse fill="#fff" fill-opacity=".501961" cx="143" cy="6" rx="255" ry="15" /><g transform="translate(222.470589 151.399226) rotate(204.906682) scale(83.194730 40.080284)"><ellipse fill="#304437" fill-opacity=".501961" cx="0" cy="0" rx="1" ry="1" /></g><g transform="translate(38.921172 155.140091) rotate(143.340272) scale(76.613933 54.851040)"><ellipse fill="#3b4c46" fill-opacity=".501961" cx="0" cy="0" rx="1" ry="1" /></g><g transform="translate(122.003247 0.000000) rotate(276.930595) scale(64.743809 119.267157)"><ellipse fill="#c2dffb" fill-opacity=".501961" cx="0" cy="0" rx="1" ry="1" /></g><path d="M0 0h5162v3404H0z" fill="#a4d9ff" /><path d="M0 0h5162v3404H0z" fill="#4389b7" /><ellipse fill="#feffff" fill-opacity=".501961" cx="107" cy="2" rx="255" ry="18" /><g transform="translate(129.940098 167.000000) rotate(165.515144) scale(16.749169 23.517812)"><ellipse fill="#c2f4ff" fill-opacity=".501961" cx="0" cy="0" rx="1" ry="1" /></g></g></svg>