<svg xmlns="http://www.w3.org/2000/svg" viewBox="0 0 2048 1362"><filter id="b"><feGaussianBlur stdDeviation="12" /></filter><path d="M0 0h2048v1362H0z" fill="#4c2414" /><g filter="url(#b)" transform="scale(8.000000) translate(0.5 0.5)"><ellipse fill="#8e5434" fill-opacity=".501961" cx="87" cy="92" rx="98" ry="33" /><path d="M0 0h2048v1362H0z" fill="#dd9663" /><g transform="translate(220 159) rotate(258) scale(54 153)"><path d="M0 0h2048v1362H0z" fill="#000" /></g><path d="M0 0h2048v1362H0z" fill="#ffee9b" /><g transform="translate(42.566190 155.584014) rotate(184.856152) scale(75.778323 22.478232)"><ellipse fill="#010000" fill-opacity=".501961" cx="0" cy="0" rx="1" ry="1" /></g><g transform="translate(129.734545 20.125320) rotate(271.036576) scale(47.451375 81.560608)"><ellipse fill="#1a0508" fill-opacity=".501961" cx="0" cy="0" rx="1" ry="1" /></g><path d="M0 0h2048v1362H0z" fill="#e36900" /><path d="M0 0h2048v1362H0z" fill="#d05d00" /></g></svg>