<svg xmlns="http://www.w3.org/2000/svg" viewBox="0 0 2048 1638"><filter id="b"><feGaussianBlur stdDeviation="12" /></filter><path d="M0 0h2048v1638H0z" fill="#595740" /><g filter="url(#b)" transform="scale(8.000000) translate(0.5 0.5)"><g transform="translate(157.461741 23.290390) rotate(366.817250) scale(117.635383 51.931644)"><ellipse fill="#a18856" fill-opacity=".501961" cx="0" cy="0" rx="1" ry="1" /></g><g transform="translate(228.335500 161.746946) rotate(-0.213701) scale(132.758665 85.537872)"><ellipse fill="#1b2e2a" fill-opacity=".501961" cx="0" cy="0" rx="1" ry="1" /></g><g transform="translate(25.153813 162.173740) rotate(246.764081) scale(56.588258 35.017268)"><ellipse fill="#93918d" fill-opacity=".501961" cx="0" cy="0" rx="1" ry="1" /></g><g transform="translate(38.474987 71.735353) rotate(111.516063) scale(27.292529 39.777923)"><ellipse fill="#191513" fill-opacity=".501961" cx="0" cy="0" rx="1" ry="1" /></g><g transform="translate(124.542041 46.456856) rotate(69.057830) scale(8.198930 25.456309)"><ellipse fill="#000704" fill-opacity=".501961" cx="0" cy="0" rx="1" ry="1" /></g><ellipse fill="#ad9d0d" fill-opacity=".501961" cx="55" cy="113" rx="32" ry="11" /><g transform="translate(190.379564 84.413409) rotate(84.807457) scale(26.276007 49.082191)"><ellipse fill="#5d8314" fill-opacity=".501961" cx="0" cy="0" rx="1" ry="1" /></g><g transform="translate(25.089701 31.171054) rotate(254.968633) scale(5.218686 74.416010)"><ellipse fill="#d1a691" fill-opacity=".501961" cx="0" cy="0" rx="1" ry="1" /></g></g></svg>