<svg xmlns="http://www.w3.org/2000/svg" viewBox="0 0 1364 2048"><filter id="b"><feGaussianBlur stdDeviation="12" /></filter><path d="M0 0h1364v2048H0z" fill="#2f546e" /><g filter="url(#b)" transform="scale(8.000000) translate(0.5 0.5)"><g transform="translate(102.964787 45.170591) rotate(100.126907) scale(58.231538 165.662910)"><ellipse fill="#33b4ff" fill-opacity=".501961" cx="0" cy="0" rx="1" ry="1" /></g><g transform="translate(64.506531 209.352582) rotate(395.359330) scale(119.284410 82.904265)"><ellipse fill="#200" fill-opacity=".501961" cx="0" cy="0" rx="1" ry="1" /></g><path fill="#f0ab80" fill-opacity=".501961" d="M121.324762 18.661365 87.108059 45.518549 85.765489 90.739162 185 159.520645z" /><ellipse fill="#0059de" fill-opacity=".501961" cx="46" cy="0" rx="64" ry="64" /><path d="M0 0h1364v2048H0z" fill="#fff" /><path d="M0 0h1364v2048H0z" fill="#ca997f" /><path fill="#ffd283" fill-opacity=".501961" d="M-16 18V134L18 65z" /><g transform="translate(169.000000 126.818258) rotate(160.707696) scale(66.078747 19.985590)"><ellipse fill="#954f05" fill-opacity=".501961" cx="0" cy="0" rx="1" ry="1" /></g></g></svg>