<svg xmlns="http://www.w3.org/2000/svg" viewBox="0 0 2048 1365"><filter id="b"><feGaussianBlur stdDeviation="12" /></filter><path d="M0 0h2048v1365H0z" fill="#393f44" /><g filter="url(#b)" transform="scale(8.000000) translate(0.5 0.5)"><ellipse fill="#7096dd" fill-opacity=".501961" cx="137" cy="0" rx="98" ry="97" /><g transform="translate(94.580552 132.708123) rotate(182.986169) scale(255.000000 46.679042)"><ellipse fill="#271400" fill-opacity=".501961" cx="0" cy="0" rx="1" ry="1" /></g><g transform="translate(125.938613 100.828932) rotate(112.608184) scale(32.115307 20.939553)"><ellipse fill="#caaaa2" fill-opacity=".501961" cx="0" cy="0" rx="1" ry="1" /></g><g transform="translate(12.853198 78.482876) rotate(80.955800) scale(140.473311 38.649140)"><ellipse fill="#040300" fill-opacity=".501961" cx="0" cy="0" rx="1" ry="1" /></g><g transform="translate(80 2) rotate(173) scale(68 38)"><path d="M0 0h2048v1365H0z" fill="#a9e6ff" /></g><ellipse fill="#0a0c00" fill-opacity=".501961" cx="235" cy="132" rx="57" ry="57" /><g transform="translate(212 32) rotate(171) scale(108 31)"><path d="M0 0h2048v1365H0z" fill="#00265c" /></g><path fill="#554000" fill-opacity=".501961" d="M65 185l206-62-287-4z" /></g></svg>