<svg xmlns="http://www.w3.org/2000/svg" viewBox="0 0 4215 3372"><filter id="b"><feGaussianBlur stdDeviation="12" /></filter><path d="M0 0h4215v3372H0z" fill="#b49c8c" /><g filter="url(#b)" transform="scale(16.464844) translate(0.5 0.5)"><g transform="translate(229.060749 124.765742) rotate(365.628715) scale(142.295192 32.850108)"><ellipse fill="#010300" fill-opacity=".501961" cx="0" cy="0" rx="1" ry="1" /></g><g transform="translate(124.097790 22.578271) rotate(263.063011) scale(67.936522 146.542705)"><ellipse fill="#fffeeb" fill-opacity=".501961" cx="0" cy="0" rx="1" ry="1" /></g><g transform="translate(4.955073 112.555878) rotate(358.739383) scale(84.117993 20.770954)"><ellipse fill="#222528" fill-opacity=".501961" cx="0" cy="0" rx="1" ry="1" /></g><ellipse fill="#312d1f" fill-opacity=".501961" cx="230" cy="126" rx="44" ry="50" /><path fill="#f4c09f" fill-opacity=".501961" d="M173 132l24 75-77-72z" /><g transform="translate(175.518369 0.000000) rotate(348.483438) scale(135.442985 43.251780)"><ellipse fill="#ffefdb" fill-opacity=".501961" cx="0" cy="0" rx="1" ry="1" /></g><g transform="translate(40.751775 203.000000) rotate(290.038146) scale(25.105594 178.788610)"><ellipse fill="#8e6f68" fill-opacity=".501961" cx="0" cy="0" rx="1" ry="1" /></g><g transform="translate(20.307143 65.821801) rotate(194.020796) scale(93.992560 24.926183)"><ellipse fill="#cfa39a" fill-opacity=".501961" cx="0" cy="0" rx="1" ry="1" /></g></g></svg>