<svg xmlns="http://www.w3.org/2000/svg" viewBox="0 0 2048 1365"><filter id="b"><feGaussianBlur stdDeviation="12" /></filter><path d="M0 0h2048v1365H0z" fill="#a5afbf" /><g filter="url(#b)" transform="scale(8.000000) translate(0.5 0.5)"><g transform="translate(235.606877 147.982093) rotate(7.865239) scale(113.421661 22.043041)"><ellipse fill="#6e5e60" fill-opacity=".501961" cx="0" cy="0" rx="1" ry="1" /></g><ellipse fill="#afbdd0" fill-opacity=".501961" cx="145" cy="0" rx="130" ry="130" /><path fill="#493e3c" fill-opacity=".501961" d="M145.423766 152.536857 182.102376 152.622386l65.884546-18.605649L231.782543 133.398889z" /><ellipse fill="#b2bece" fill-opacity=".501961" cx="0" cy="88" rx="158" ry="46" /><path fill="#473d41" fill-opacity=".501961" d="M252.979837 164.948312 242.293755 166.763884 215.484626 164.752378 261.360376 153.23887z" /><path d="M0 0h2048v1365H0z" fill="#4e4a4d" /><g transform="translate(241.239604 125.040169) rotate(269.683842) scale(8.176413 41.855428)"><ellipse fill="#978d8f" fill-opacity=".501961" cx="0" cy="0" rx="1" ry="1" /></g><path fill="#a5a7b5" fill-opacity=".501961" d="M28 184l153-44-72-10z" /></g></svg>