<svg xmlns="http://www.w3.org/2000/svg" viewBox="0 0 1365 2048"><filter id="b"><feGaussianBlur stdDeviation="12" /></filter><path d="M0 0h1365v2048H0z" fill="#9a9d9c" /><g filter="url(#b)" transform="scale(8.000000) translate(0.5 0.5)"><g transform="translate(73.049516 117.505708) rotate(269.101007) scale(51.265464 115.097319)"><ellipse fill="#f6cbb4" fill-opacity=".501961" cx="0" cy="0" rx="1" ry="1" /></g><g transform="translate(128.494943 239.243649) rotate(265.782197) scale(24.587844 169.000000)"><ellipse fill="#2f6175" fill-opacity=".501961" cx="0" cy="0" rx="1" ry="1" /></g><g transform="translate(106.924539 16.636043) rotate(91.189521) scale(19.537878 169.000000)"><ellipse fill="#4d7794" fill-opacity=".501961" cx="0" cy="0" rx="1" ry="1" /></g><g transform="translate(95.624427 200.732921) rotate(449.383455) scale(31.705559 139.444768)"><ellipse fill="#7f9196" fill-opacity=".501961" cx="0" cy="0" rx="1" ry="1" /></g><g transform="translate(72.358164 119.776563) rotate(178.347301) scale(130.786164 17.032205)"><ellipse fill="#e6c7b0" fill-opacity=".501961" cx="0" cy="0" rx="1" ry="1" /></g><path d="M0 0h1365v2048H0z" fill="#305d71" /><g transform="translate(123.125967 152.939268) rotate(86.959982) scale(18.336110 128.690293)"><ellipse fill="#ba9d9e" fill-opacity=".501961" cx="0" cy="0" rx="1" ry="1" /></g><g transform="translate(73.327593 54.534010) rotate(84.369524) scale(29.748460 72.415882)"><ellipse fill="#9da7a8" fill-opacity=".501961" cx="0" cy="0" rx="1" ry="1" /></g></g></svg>