<svg xmlns="http://www.w3.org/2000/svg" viewBox="0 0 2048 1638"><filter id="b"><feGaussianBlur stdDeviation="12" /></filter><path d="M0 0h2048v1638H0z" fill="#b4cbdd" /><g filter="url(#b)" transform="scale(8.000000) translate(0.5 0.5)"><g transform="translate(67.433922 89.633406) rotate(92.608997) scale(38.270872 232.161099)"><ellipse fill="#657991" fill-opacity=".501961" cx="0" cy="0" rx="1" ry="1" /></g><ellipse fill="#f6ffff" fill-opacity=".501961" cx="123" cy="174" rx="255" ry="44" /><g transform="translate(112.398954 0.000000) rotate(364.699873) scale(237.296324 43.433345)"><ellipse fill="#d5f2ff" fill-opacity=".501961" cx="0" cy="0" rx="1" ry="1" /></g><g transform="translate(244.103622 76.096237) rotate(368.109992) scale(251.776102 14.108137)"><ellipse fill="#91afcc" fill-opacity=".501961" cx="0" cy="0" rx="1" ry="1" /></g><ellipse fill="#d5f3ff" fill-opacity=".501961" cx="154" cy="173" rx="254" ry="43" /><ellipse fill="#8694a3" fill-opacity=".501961" cx="36" cy="104" rx="143" ry="23" /><path d="M0 0h2048v1638H0z" fill="#8eb1d4" /><g transform="translate(208.235150 45.042340) rotate(208.362463) scale(16.500514 28.535233)"><ellipse fill="#c9e5fb" fill-opacity=".501961" cx="0" cy="0" rx="1" ry="1" /></g></g></svg>