<svg xmlns="http://www.w3.org/2000/svg" viewBox="0 0 2048 1365"><filter id="b"><feGaussianBlur stdDeviation="12" /></filter><path d="M0 0h2048v1365H0z" fill="#a69e9a" /><g filter="url(#b)" transform="scale(8.000000) translate(0.5 0.5)"><g transform="translate(221.772194 16.249119) rotate(384.365601) scale(186.804968 28.542289)"><ellipse fill="#492600" fill-opacity=".501961" cx="0" cy="0" rx="1" ry="1" /></g><g transform="translate(24.809101 27.783670) rotate(53.925404) scale(50.888237 104.132145)"><ellipse fill="#f6fdff" fill-opacity=".501961" cx="0" cy="0" rx="1" ry="1" /></g><g transform="translate(99 88) rotate(-65) scale(25 30)"><path d="M0 0h2048v1365H0z" fill="#34332d" /></g><g transform="translate(178.113498 157.863422) rotate(334.832009) scale(83.109336 21.545209)"><ellipse fill="#c0c1cd" fill-opacity=".501961" cx="0" cy="0" rx="1" ry="1" /></g><path fill="#665d52" fill-opacity=".501961" d="M217 115 255-16l11 127z" /><path fill="#1c2019" fill-opacity=".501961" d="M105 119l22 27-20-47z" /><path fill="#585856" fill-opacity=".501961" d="M186.950069 89.563573 163.781798 144.097911 174.343687 91.480076 145.825362 56.772843z" /><ellipse fill="#72523c" fill-opacity=".501961" cx="47" cy="105" rx="3" ry="70" /></g></svg>