<svg xmlns="http://www.w3.org/2000/svg" viewBox="0 0 1638 2048"><filter id="b"><feGaussianBlur stdDeviation="12" /></filter><path d="M0 0h1638v2048H0z" fill="#212b2a" /><g filter="url(#b)" transform="scale(8.000000) translate(0.5 0.5)"><g transform="translate(98 144) rotate(411) scale(66 65)"><path d="M0 0h1638v2048H0z" fill="#ffa476" /></g><ellipse fill="#f87f58" fill-opacity=".501961" cx="101" cy="95" rx="7" ry="71" /><ellipse fill="#00030c" fill-opacity=".501961" cx="32" cy="56" rx="67" ry="67" /><ellipse fill="#937967" fill-opacity=".501961" cx="163" cy="150" rx="137" ry="20" /><g transform="translate(165.250548 48.285712) rotate(155.426721) scale(56.119244 91.072368)"><ellipse fill="#000814" fill-opacity=".501961" cx="0" cy="0" rx="1" ry="1" /></g><g transform="translate(105 165) rotate(185) scale(50 18)"><path d="M0 0h1638v2048H0z" fill="#ffaf7c" /></g><path fill="#00232d" fill-opacity=".501961" d="M70 148 95 97 14 176z" /><path fill="#424746" fill-opacity=".501961" d="M125 271V172l-52-1z" /></g></svg>