<svg xmlns="http://www.w3.org/2000/svg" viewBox="0 0 1638 2048"><filter id="b"><feGaussianBlur stdDeviation="12" /></filter><path d="M0 0h1638v2048H0z" fill="#7f90a1" /><g filter="url(#b)" transform="scale(8.000000) translate(0.5 0.5)"><ellipse fill="#14282e" fill-opacity=".501961" cx="159" cy="219" rx="121" ry="121" /><g transform="translate(76.000412 52.217671) rotate(260.916126) scale(61.475634 203.000000)"><ellipse fill="#f9ffff" fill-opacity=".501961" cx="0" cy="0" rx="1" ry="1" /></g><g transform="translate(86 255) rotate(101) scale(80 237)"><path d="M0 0h1638v2048H0z" fill="#001022" /></g><g transform="translate(62.505139 157.481726) rotate(17.521532) scale(183.473859 20.663723)"><ellipse fill="#c5c9dc" fill-opacity=".501961" cx="0" cy="0" rx="1" ry="1" /></g><ellipse fill="#263328" fill-opacity=".501961" cx="180" cy="132" rx="102" ry="36" /><g transform="translate(46.512665 133.145678) rotate(268.060021) scale(9.764428 95.076695)"><ellipse fill="#d1b5aa" fill-opacity=".501961" cx="0" cy="0" rx="1" ry="1" /></g><g transform="translate(64 68) rotate(340) scale(194 92)"><path d="M0 0h1638v2048H0z" fill="#c8d8fb" /></g><g transform="translate(93.282507 202.018556) rotate(183.286622) scale(139.290356 22.463501)"><ellipse fill="#4d6b84" fill-opacity=".501961" cx="0" cy="0" rx="1" ry="1" /></g></g></svg>