<svg xmlns="http://www.w3.org/2000/svg" viewBox="0 0 2048 1638"><filter id="b"><feGaussianBlur stdDeviation="12" /></filter><path d="M0 0h2048v1638H0z" fill="#b2796a" /><g filter="url(#b)" transform="scale(8.000000) translate(0.5 0.5)"><g transform="translate(238.868835 80.822252) rotate(126.750224) scale(156.651698 47.300664)"><ellipse fill="#7a0000" fill-opacity=".501961" cx="0" cy="0" rx="1" ry="1" /></g><ellipse fill="#dddfe2" fill-opacity=".501961" cx="68" cy="174" rx="57" ry="114" /><g transform="translate(151.997185 50.615919) rotate(49.154633) scale(58.484975 36.424294)"><ellipse fill="#fff3db" fill-opacity=".501961" cx="0" cy="0" rx="1" ry="1" /></g><g transform="translate(221.408242 55.799747) rotate(-20.043741) scale(27.697607 85.452062)"><ellipse fill="#891a00" fill-opacity=".501961" cx="0" cy="0" rx="1" ry="1" /></g><g transform="translate(39.955799 0.000000) rotate(335.585953) scale(21.163341 48.528933)"><ellipse fill="#400000" fill-opacity=".501961" cx="0" cy="0" rx="1" ry="1" /></g><g transform="translate(220.442319 203.000000) rotate(117.087668) scale(30.756690 95.373707)"><ellipse fill="#882000" fill-opacity=".501961" cx="0" cy="0" rx="1" ry="1" /></g><ellipse fill="#2d0000" fill-opacity=".501961" cx="247" cy="61" rx="14" ry="78" /><g transform="translate(152.910128 4.659633) rotate(358.434385) scale(13.037783 33.190131)"><ellipse fill="#ec3900" fill-opacity=".501961" cx="0" cy="0" rx="1" ry="1" /></g></g></svg>