<svg xmlns="http://www.w3.org/2000/svg" viewBox="0 0 2048 1638"><filter id="b"><feGaussianBlur stdDeviation="12" /></filter><path d="M0 0h2048v1638H0z" fill="#a896a9" /><g filter="url(#b)" transform="scale(8.000000) translate(0.5 0.5)"><g transform="translate(72.698466 186.430729) rotate(86.865225) scale(54.361425 132.250246)"><ellipse fill="#4c1928" fill-opacity=".501961" cx="0" cy="0" rx="1" ry="1" /></g><g transform="translate(73.323256 43.826856) rotate(182.345365) scale(232.704020 43.663647)"><ellipse fill="#fdffff" fill-opacity=".501961" cx="0" cy="0" rx="1" ry="1" /></g><ellipse fill="#613f80" fill-opacity=".501961" cx="73" cy="101" rx="157" ry="15" /><g transform="translate(172.308766 17.352494) rotate(357.140725) scale(96.059203 24.340716)"><ellipse fill="#9795d6" fill-opacity=".501961" cx="0" cy="0" rx="1" ry="1" /></g><path fill="#fefffd" fill-opacity=".501961" d="M-16 24V87L213 74z" /><g transform="translate(47 203) rotate(204) scale(65 55)"><path d="M0 0h2048v1638H0z" fill="#19102e" /></g><g transform="translate(218.661784 183.436048) rotate(133.006737) scale(33.837549 54.517134)"><ellipse fill="#a77966" fill-opacity=".501961" cx="0" cy="0" rx="1" ry="1" /></g><ellipse fill="#c3e9f8" fill-opacity=".501961" cx="233" cy="55" rx="91" ry="32" /></g></svg>