<svg xmlns="http://www.w3.org/2000/svg" viewBox="0 0 2048 1365"><filter id="b"><feGaussianBlur stdDeviation="12" /></filter><path d="M0 0h2048v1365H0z" fill="#78544d" /><g filter="url(#b)" transform="scale(8.000000) translate(0.5 0.5)"><g transform="translate(209.171293 161.506878) rotate(30.807798) scale(177.042102 24.371577)"><ellipse fill="#fff" fill-opacity=".501961" cx="0" cy="0" rx="1" ry="1" /></g><ellipse fill="#2e0000" fill-opacity=".501961" cx="109" cy="27" rx="151" ry="41" /><ellipse fill="#d3dadc" fill-opacity=".501961" cx="213" cy="98" rx="168" ry="17" /><g transform="translate(15.895606 68.967005) rotate(274.583917) scale(69.150750 39.510069)"><ellipse fill="#0e0d0c" fill-opacity=".501961" cx="0" cy="0" rx="1" ry="1" /></g><path fill="#430000" fill-opacity=".501961" d="M204 132l-89 14 69-36z" /><path fill="#fffff7" fill-opacity=".501961" d="M165 136l39 49 67-38z" /><g transform="translate(100.164573 165.482155) rotate(490.364407) scale(31.218490 84.049052)"><ellipse fill="#7c1600" fill-opacity=".501961" cx="0" cy="0" rx="1" ry="1" /></g><g transform="translate(84.605665 71.274250) rotate(289.633768) scale(13.675635 50.077440)"><ellipse fill="#8b8c8a" fill-opacity=".501961" cx="0" cy="0" rx="1" ry="1" /></g></g></svg>