<svg xmlns="http://www.w3.org/2000/svg" viewBox="0 0 2048 1365"><filter id="b"><feGaussianBlur stdDeviation="12" /></filter><path d="M0 0h2048v1365H0z" fill="#8f706a" /><g filter="url(#b)" transform="scale(8.000000) translate(0.5 0.5)"><g transform="translate(100.771250 6.857981) rotate(180.499514) scale(255.000000 14.900231)"><ellipse fill="#fff" fill-opacity=".501961" cx="0" cy="0" rx="1" ry="1" /></g><ellipse fill="#00030e" fill-opacity=".501961" cx="144" cy="139" rx="74" ry="21" /><g transform="translate(65.603219 110.122597) rotate(233.675161) scale(37.827372 20.364893)"><ellipse fill="#00101d" fill-opacity=".501961" cx="0" cy="0" rx="1" ry="1" /></g><path fill="#062831" fill-opacity=".501961" d="M237 95 185 57 148 179z" /><ellipse fill="#fff" fill-opacity=".501961" cx="116" cy="0" rx="255" ry="18" /><g transform="translate(148.359373 100.670678) rotate(251.112205) scale(31.063537 45.439433)"><ellipse fill="#dc9070" fill-opacity=".501961" cx="0" cy="0" rx="1" ry="1" /></g><g transform="translate(64.823715 84.189757) rotate(137.249967) scale(31.365812 9.975052)"><ellipse fill="#000307" fill-opacity=".501961" cx="0" cy="0" rx="1" ry="1" /></g><g transform="translate(251.876495 144.657261) rotate(223.464737) scale(31.788138 68.850119)"><ellipse fill="#ee8b6c" fill-opacity=".501961" cx="0" cy="0" rx="1" ry="1" /></g></g></svg>