<svg xmlns="http://www.w3.org/2000/svg" viewBox="0 0 2048 683"><filter id="b"><feGaussianBlur stdDeviation="12" /></filter><path d="M0 0h2048v683H0z" fill="#b0b4b6" /><g filter="url(#b)" transform="scale(8.000000) translate(0.5 0.5)"><g transform="translate(123.289638 82.830885) rotate(270.937521) scale(9.709245 204.006941)"><ellipse fill="#304f56" fill-opacity=".501961" cx="0" cy="0" rx="1" ry="1" /></g><g transform="translate(137.373174 15.431782) rotate(87.525174) scale(25.883679 255.000000)"><ellipse fill="#dee1e9" fill-opacity=".501961" cx="0" cy="0" rx="1" ry="1" /></g><ellipse fill="#778383" fill-opacity=".501961" cx="148" cy="63" rx="33" ry="18" /><g transform="translate(236.849337 84.000000) rotate(-22.646332) scale(41.248494 25.259205)"><ellipse fill="#7d705c" fill-opacity=".501961" cx="0" cy="0" rx="1" ry="1" /></g><path d="M0 0h2048v683H0z" fill="#dfbba1" /><g transform="translate(197.419965 22.225925) rotate(282.147730) scale(35.656106 13.484098)"><ellipse fill="#eedcd0" fill-opacity=".501961" cx="0" cy="0" rx="1" ry="1" /></g><g transform="translate(144.753519 40.049379) rotate(169.953281) scale(38.740392 11.006066)"><ellipse fill="#9eacb9" fill-opacity=".501961" cx="0" cy="0" rx="1" ry="1" /></g><g transform="translate(59.954111 67.737498) rotate(91.859121) scale(10.940294 68.968523)"><ellipse fill="#9fa39f" fill-opacity=".501961" cx="0" cy="0" rx="1" ry="1" /></g></g></svg>