<svg xmlns="http://www.w3.org/2000/svg" viewBox="0 0 2048 683"><filter id="b"><feGaussianBlur stdDeviation="12" /></filter><path d="M0 0h2048v683H0z" fill="#858e8e" /><g filter="url(#b)" transform="scale(8.000000) translate(0.5 0.5)"><g transform="translate(195.560764 83.516728) rotate(1.236769) scale(192.251685 26.971724)"><ellipse fill="#140600" fill-opacity=".501961" cx="0" cy="0" rx="1" ry="1" /></g><g transform="translate(151.010841 10.420506) rotate(271.581947) scale(31.520912 201.183256)"><ellipse fill="#c5e0e9" fill-opacity=".501961" cx="0" cy="0" rx="1" ry="1" /></g><g transform="translate(195.764256 20.899033) rotate(178.639570) scale(130.760524 6.122845)"><ellipse fill="#ecf6ef" fill-opacity=".501961" cx="0" cy="0" rx="1" ry="1" /></g><ellipse fill="#a29fa6" fill-opacity=".501961" cx="9" cy="7" rx="59" ry="59" /><ellipse fill="#201f1c" fill-opacity=".501961" cx="224" cy="74" rx="122" ry="9" /><g transform="translate(35.489168 84.000000) rotate(255.237972) scale(23.961259 68.852170)"><ellipse fill="#77685f" fill-opacity=".501961" cx="0" cy="0" rx="1" ry="1" /></g><ellipse fill="#74a0b4" fill-opacity=".501961" cx="192" cy="4" rx="162" ry="9" /><path fill="#dbb7a6" fill-opacity=".501961" d="M24.87202 66.612586 41.190277 50.694381-16 46.00707-12.2845 66.599794z" /></g></svg>