<svg xmlns="http://www.w3.org/2000/svg" viewBox="0 0 2048 1024"><filter id="b"><feGaussianBlur stdDeviation="12" /></filter><path d="M0 0h2048v1024H0z" fill="#293738" /><g filter="url(#b)" transform="scale(8.000000) translate(0.5 0.5)"><g transform="translate(230.193194 48.441647) rotate(94.808159) scale(30.033271 99.454631)"><ellipse fill="#b5b8bc" fill-opacity=".501961" cx="0" cy="0" rx="1" ry="1" /></g><g transform="translate(39.263367 77.101530) rotate(258.834171) scale(221.652660 61.247401)"><ellipse fill="#000303" fill-opacity=".501961" cx="0" cy="0" rx="1" ry="1" /></g><ellipse fill="#020c02" fill-opacity=".501961" cx="216" cy="127" rx="105" ry="32" /><g transform="translate(131.747653 51.210007) rotate(31.663735) scale(20.530524 33.943099)"><ellipse fill="#636466" fill-opacity=".501961" cx="0" cy="0" rx="1" ry="1" /></g><ellipse fill="#9fa3a4" fill-opacity=".501961" cx="242" cy="46" rx="98" ry="11" /><g transform="translate(213.852757 17.164590) rotate(176.080902) scale(69.679199 7.875107)"><ellipse fill="#3b434d" fill-opacity=".501961" cx="0" cy="0" rx="1" ry="1" /></g><path fill="#00141a" fill-opacity=".501961" d="M154-16H-16V130z" /><path fill="#465d50" fill-opacity=".501961" d="M77.553207 94.252136 11.73116 102.908662 86.862253 114.206427 136.615065 110.715399z" /></g></svg>