<svg xmlns="http://www.w3.org/2000/svg" viewBox="0 0 2048 683"><filter id="b"><feGaussianBlur stdDeviation="12" /></filter><path d="M0 0h2048v683H0z" fill="#c1c8c9" /><g filter="url(#b)" transform="scale(8.000000) translate(0.5 0.5)"><g transform="translate(222.046276 71.963340) rotate(270.604951) scale(12.498668 169.093455)"><ellipse fill="#5a6c67" fill-opacity=".501961" cx="0" cy="0" rx="1" ry="1" /></g><g transform="translate(92.900466 11.938188) rotate(174.830380) scale(255.000000 35.179293)"><ellipse fill="#f1f8fa" fill-opacity=".501961" cx="0" cy="0" rx="1" ry="1" /></g><ellipse fill="#425755" fill-opacity=".501961" cx="251" cy="77" rx="88" ry="5" /><g transform="translate(155.644033 61.188714) rotate(264.773038) scale(10.772728 139.796987)"><ellipse fill="#9ea8a7" fill-opacity=".501961" cx="0" cy="0" rx="1" ry="1" /></g><g transform="translate(42.317970 0.000000) rotate(173.077947) scale(78.108176 25.341503)"><ellipse fill="#f0f6f8" fill-opacity=".501961" cx="0" cy="0" rx="1" ry="1" /></g><ellipse fill="#bcc1c0" fill-opacity=".501961" cx="102" cy="54" rx="48" ry="19" /><path fill="#89948f" fill-opacity=".501961" d="M271 44 248 76l-88-1z" /><path fill="#3e5d63" fill-opacity=".501961" d="M252.238014 98.984044 269.490991 61.493071 210.50577 83.045755 260.364714 82.293039z" /></g></svg>