<svg xmlns="http://www.w3.org/2000/svg" viewBox="0 0 2048 2048"><filter id="b"><feGaussianBlur stdDeviation="12" /></filter><path d="M0 0h2048v2048H0z" fill="#a7a292" /><g filter="url(#b)" transform="scale(8.000000) translate(0.5 0.5)"><g transform="translate(163.300679 52.844995) rotate(172.061349) scale(183.993213 69.210180)"><ellipse fill="#7b6538" fill-opacity=".501961" cx="0" cy="0" rx="1" ry="1" /></g><g transform="translate(56.530488 210.959423) rotate(159.836396) scale(70.993824 101.512331)"><ellipse fill="#eae9ec" fill-opacity=".501961" cx="0" cy="0" rx="1" ry="1" /></g><g transform="translate(204.978411 175.618142) rotate(379.157901) scale(92.772164 38.090483)"><ellipse fill="#bee2ff" fill-opacity=".501961" cx="0" cy="0" rx="1" ry="1" /></g><g transform="translate(132.775549 69.337538) rotate(154.641184) scale(21.791324 39.622907)"><ellipse fill="#ff4f00" fill-opacity=".501961" cx="0" cy="0" rx="1" ry="1" /></g><ellipse fill="#f5eae4" fill-opacity=".501961" cx="238" cy="255" rx="112" ry="21" /><g transform="translate(186.180143 28.235135) rotate(-14.644005) scale(27.879743 61.754471)"><ellipse fill="#4e6044" fill-opacity=".501961" cx="0" cy="0" rx="1" ry="1" /></g><g transform="translate(47.872856 47.990857) rotate(166.074038) scale(41.008874 101.355815)"><ellipse fill="#9dac95" fill-opacity=".501961" cx="0" cy="0" rx="1" ry="1" /></g><path fill="#ffcb85" fill-opacity=".501961" d="M125.59921 32.902847 157.481074 95.569356 161.325925 47.655384 160.683473 23.819971z" /></g></svg>