<svg xmlns="http://www.w3.org/2000/svg" viewBox="0 0 2048 2048"><filter id="b"><feGaussianBlur stdDeviation="12" /></filter><path d="M0 0h2048v2048H0z" fill="#a1aba3" /><g filter="url(#b)" transform="scale(8.000000) translate(0.5 0.5)"><ellipse fill="#4c5f1f" fill-opacity=".501961" cx="234" cy="133" rx="66" ry="22" /><g transform="translate(124.696934 66.742297) rotate(273.270212) scale(37.216714 233.524181)"><ellipse fill="#dcd8c5" fill-opacity=".501961" cx="0" cy="0" rx="1" ry="1" /></g><g transform="translate(143.962639 150.933749) rotate(150.118194) scale(15.394454 99.418461)"><ellipse fill="#2bc1cb" fill-opacity=".501961" cx="0" cy="0" rx="1" ry="1" /></g><g transform="translate(21.979871 229.205848) rotate(94.801927) scale(81.539254 28.857507)"><ellipse fill="#717478" fill-opacity=".501961" cx="0" cy="0" rx="1" ry="1" /></g><g transform="translate(252.005411 8.863520) rotate(172.380826) scale(8.449362 15.247697)"><ellipse fill="#000" fill-opacity=".501961" cx="0" cy="0" rx="1" ry="1" /></g><g transform="translate(0.000000 8.646284) rotate(7.203752) scale(54.799957 5.616358)"><ellipse fill="#4d4329" fill-opacity=".501961" cx="0" cy="0" rx="1" ry="1" /></g><path d="M0 0h2048v2048H0z" fill="#de7b1f" /><g transform="translate(27.820229 102.156456) rotate(253.575216) scale(19.477835 39.923378)"><ellipse fill="#dcdad4" fill-opacity=".501961" cx="0" cy="0" rx="1" ry="1" /></g></g></svg>