<svg xmlns="http://www.w3.org/2000/svg" viewBox="0 0 2048 1365"><filter id="b"><feGaussianBlur stdDeviation="12" /></filter><path d="M0 0h2048v1365H0z" fill="#a69e9a" /><g filter="url(#b)" transform="scale(8.000000) translate(0.5 0.5)"><g transform="translate(217.119633 7.568471) rotate(115.240943) scale(34.564911 206.778753)"><ellipse fill="#492600" fill-opacity=".501961" cx="0" cy="0" rx="1" ry="1" /></g><g transform="translate(27.026969 34.962696) rotate(54.186341) scale(42.859470 106.209972)"><ellipse fill="#f6fdff" fill-opacity=".501961" cx="0" cy="0" rx="1" ry="1" /></g><g transform="translate(101 87) rotate(380) scale(34 22)"><path d="M0 0h2048v1365H0z" fill="#37352f" /></g><g transform="translate(252.484974 77.004456) rotate(9.896319) scale(20.898914 43.664836)"><ellipse fill="#665b52" fill-opacity=".501961" cx="0" cy="0" rx="1" ry="1" /></g><g transform="translate(158.524920 164.909943) rotate(156.873264) scale(113.715357 20.994623)"><ellipse fill="#c0c0cd" fill-opacity=".501961" cx="0" cy="0" rx="1" ry="1" /></g><path fill="#423c31" fill-opacity=".501961" d="M126.992634 155.927622 103.776868 114.021778 104.281064 96.297729 133.035019 153.050848z" /><ellipse fill="#70513b" fill-opacity=".501961" cx="47" cy="113" rx="3" ry="76" /><path fill="#c2b6bf" fill-opacity=".501961" d="M271 41 242 5 206-6z" /></g></svg>