<svg xmlns="http://www.w3.org/2000/svg" viewBox="0 0 2048 1365"><filter id="b"><feGaussianBlur stdDeviation="12" /></filter><path d="M0 0h2048v1365H0z" fill="#9caaac" /><g filter="url(#b)" transform="scale(8.000000) translate(0.5 0.5)"><g transform="translate(112.818352 156.037289) rotate(90.379717) scale(26.258697 255.000000)"><ellipse fill="#021100" fill-opacity=".501961" cx="0" cy="0" rx="1" ry="1" /></g><g transform="translate(160.278329 34.912991) rotate(186.146382) scale(255.000000 47.695804)"><ellipse fill="#fff" fill-opacity=".501961" cx="0" cy="0" rx="1" ry="1" /></g><g transform="translate(224.046517 133.032611) rotate(311.310098) scale(44.925482 49.029525)"><ellipse fill="#617071" fill-opacity=".501961" cx="0" cy="0" rx="1" ry="1" /></g><g transform="translate(25.726749 27.367986) rotate(59.052853) scale(37.550095 194.699905)"><ellipse fill="#faffff" fill-opacity=".501961" cx="0" cy="0" rx="1" ry="1" /></g><ellipse fill="#717d7e" fill-opacity=".501961" cx="91" cy="111" rx="152" ry="30" /><g transform="translate(75 162) rotate(177) scale(179 32)"><path d="M0 0h2048v1365H0z" fill="#172e1e" /></g><g transform="translate(215.055705 153.276301) rotate(177.113609) scale(54.027876 8.844918)"><ellipse fill="#b9a591" fill-opacity=".501961" cx="0" cy="0" rx="1" ry="1" /></g><path fill="#d8ccc3" fill-opacity=".501961" d="M174.356687 93.736904 178.272626 137.912665 149.590966 122.170985 143.154188 109.052937z" /></g></svg>