<svg xmlns="http://www.w3.org/2000/svg" viewBox="0 0 2048 1365"><filter id="b"><feGaussianBlur stdDeviation="12" /></filter><path d="M0 0h2048v1365H0z" fill="#818e95" /><g filter="url(#b)" transform="scale(8.000000) translate(0.5 0.5)"><g transform="translate(231.231410 169.000000) rotate(-19.893852) scale(68.928289 33.828079)"><ellipse fill="#000" fill-opacity=".501961" cx="0" cy="0" rx="1" ry="1" /></g><g transform="translate(135.480485 0.000000) rotate(269.000551) scale(59.806412 141.759401)"><ellipse fill="#cabec5" fill-opacity=".501961" cx="0" cy="0" rx="1" ry="1" /></g><g transform="translate(237.974679 156.524392) rotate(255.621260) scale(15.250854 62.406318)"><ellipse fill="#000" fill-opacity=".501961" cx="0" cy="0" rx="1" ry="1" /></g><ellipse fill="#3c6171" fill-opacity=".501961" cx="95" cy="120" rx="255" ry="12" /><path fill="#c7cdcb" fill-opacity=".501961" d="M216 134l24-2-10 17z" /><path fill="#81a1b3" fill-opacity=".501961" d="M-16 40l156 81L271 41z" /><g transform="translate(226.764581 169.000000) rotate(391.732420) scale(38.806660 20.236058)"><ellipse fill="#000200" fill-opacity=".501961" cx="0" cy="0" rx="1" ry="1" /></g><g transform="translate(132.788468 0.000000) rotate(267.035615) scale(27.643516 65.573979)"><ellipse fill="#cfbfbf" fill-opacity=".501961" cx="0" cy="0" rx="1" ry="1" /></g></g></svg>