<svg xmlns="http://www.w3.org/2000/svg" viewBox="0 0 2121 2121"><filter id="b"><feGaussianBlur stdDeviation="12" /></filter><path d="M0 0h2121v2121H0z" fill="#8e8980" /><g filter="url(#b)" transform="scale(8.285156) translate(0.5 0.5)"><g transform="translate(108.510068 255.000000) rotate(273.029332) scale(56.842037 127.250748)"><ellipse fill="#000" fill-opacity=".501961" cx="0" cy="0" rx="1" ry="1" /></g><g transform="translate(95.632578 170.511368) rotate(165.876416) scale(42.959742 82.739784)"><ellipse fill="#1e0000" fill-opacity=".501961" cx="0" cy="0" rx="1" ry="1" /></g><g transform="translate(157.332550 34.046599) rotate(13.823794) scale(255.000000 56.344837)"><ellipse fill="#e5e9e3" fill-opacity=".501961" cx="0" cy="0" rx="1" ry="1" /></g><g transform="translate(214.902116 157.323853) rotate(60.085216) scale(76.157464 56.840109)"><ellipse fill="#e0e2db" fill-opacity=".501961" cx="0" cy="0" rx="1" ry="1" /></g><path fill="#000" fill-opacity=".501961" d="M271 271-16 253l119-76z" /><g transform="translate(122.845812 148.366734) rotate(354.888253) scale(35.792798 74.442535)"><ellipse fill="#936241" fill-opacity=".501961" cx="0" cy="0" rx="1" ry="1" /></g><ellipse fill="#d9d9cd" fill-opacity=".501961" cx="21" cy="86" rx="32" ry="125" /><g transform="translate(110.044897 89.517361) rotate(277.395539) scale(10.356303 32.785688)"><ellipse fill="#000" fill-opacity=".501961" cx="0" cy="0" rx="1" ry="1" /></g></g></svg>