<svg xmlns="http://www.w3.org/2000/svg" viewBox="0 0 2048 1365"><filter id="b"><feGaussianBlur stdDeviation="12" /></filter><path d="M0 0h2048v1365H0z" fill="#93d3f6" /><g filter="url(#b)" transform="scale(8.000000) translate(0.5 0.5)"><ellipse fill="#53a2d7" fill-opacity=".501961" cx="121" cy="157" rx="255" ry="20" /><g transform="translate(155.944985 90.332963) rotate(-1.080375) scale(144.453185 46.739607)"><ellipse fill="#bde5fd" fill-opacity=".501961" cx="0" cy="0" rx="1" ry="1" /></g><ellipse fill="#69d6ff" fill-opacity=".501961" cx="71" cy="7" rx="171" ry="25" /><path d="M0 0h2048v1365H0z" fill="#5a6b70" /><g transform="translate(242 169) rotate(-10) scale(34 30)"><path d="M0 0h2048v1365H0z" fill="#9ddafc" /></g><g transform="translate(191.297637 37.791561) rotate(176.419746) scale(253.346055 22.036014)"><ellipse fill="#93e0ff" fill-opacity=".501961" cx="0" cy="0" rx="1" ry="1" /></g><g transform="translate(145.785926 82.781147) rotate(2.771758) scale(57.471629 28.350943)"><ellipse fill="#b6e6fd" fill-opacity=".501961" cx="0" cy="0" rx="1" ry="1" /></g><g transform="translate(50.111702 124.100606) rotate(364.676076) scale(124.061649 11.502293)"><ellipse fill="#a5cdf1" fill-opacity=".501961" cx="0" cy="0" rx="1" ry="1" /></g></g></svg>