<svg xmlns="http://www.w3.org/2000/svg" viewBox="0 0 2048 2048"><filter id="b"><feGaussianBlur stdDeviation="12" /></filter><path d="M0 0h2048v2048H0z" fill="#a7a292" /><g filter="url(#b)" transform="scale(8.000000) translate(0.5 0.5)"><g transform="translate(181.755776 41.204564) rotate(337.623744) scale(137.511871 74.327295)"><ellipse fill="#79592c" fill-opacity=".501961" cx="0" cy="0" rx="1" ry="1" /></g><g transform="translate(151.683899 198.730790) rotate(-1.597126) scale(255.000000 68.212742)"><ellipse fill="#d0dce6" fill-opacity=".501961" cx="0" cy="0" rx="1" ry="1" /></g><g transform="translate(132.574276 67.453857) rotate(158.033902) scale(24.069572 39.155145)"><ellipse fill="#ff5f0e" fill-opacity=".501961" cx="0" cy="0" rx="1" ry="1" /></g><path d="M0 0h2048v2048H0z" fill="#52523e" /><g transform="translate(62 207) rotate(190) scale(74 30)"><path d="M0 0h2048v2048H0z" fill="#fff" /></g><g transform="translate(155 55) rotate(272) scale(56 10)"><path d="M0 0h2048v2048H0z" fill="#fffdc3" /></g><g transform="translate(44.605578 58.190099) rotate(320.516895) scale(82.663803 40.752716)"><ellipse fill="#7d9068" fill-opacity=".501961" cx="0" cy="0" rx="1" ry="1" /></g><g transform="translate(192.784653 38.894188) rotate(240.536816) scale(82.672286 28.591973)"><ellipse fill="#566952" fill-opacity=".501961" cx="0" cy="0" rx="1" ry="1" /></g></g></svg>