<svg xmlns="http://www.w3.org/2000/svg" viewBox="0 0 2048 2048"><filter id="b"><feGaussianBlur stdDeviation="12" /></filter><path d="M0 0h2048v2048H0z" fill="#a1aba3" /><g filter="url(#b)" transform="scale(8.000000) translate(0.5 0.5)"><ellipse fill="#4b5f1d" fill-opacity=".501961" cx="242" cy="133" rx="75" ry="22" /><g transform="translate(130.913638 68.329421) rotate(181.596571) scale(167.095229 37.379117)"><ellipse fill="#dad9c7" fill-opacity=".501961" cx="0" cy="0" rx="1" ry="1" /></g><g transform="translate(139.321148 137.021733) rotate(146.388947) scale(11.111785 88.492041)"><ellipse fill="#10c9d3" fill-opacity=".501961" cx="0" cy="0" rx="1" ry="1" /></g><g transform="translate(22 213) rotate(141) scale(96 87)"><path d="M0 0h2048v2048H0z" fill="#73777d" /></g><path fill="#000" fill-opacity=".501961" d="M242.959475 2.994004 245.518826-16 269.665794 13.591032 247.759084 24.401559z" /><ellipse fill="#5e5135" fill-opacity=".501961" cx="7" cy="12" rx="60" ry="6" /><ellipse fill="#dad2c8" fill-opacity=".501961" cx="26" cy="88" rx="35" ry="35" /><g transform="translate(23 44) rotate(363) scale(37 17)"><path d="M0 0h2048v2048H0z" fill="#df812a" /></g></g></svg>