<svg xmlns="http://www.w3.org/2000/svg" viewBox="0 0 2048 2048"><filter id="b"><feGaussianBlur stdDeviation="12" /></filter><path d="M0 0h2048v2048H0z" fill="#a3a598" /><g filter="url(#b)" transform="scale(8.000000) translate(0.5 0.5)"><g transform="translate(91.581373 224.215237) rotate(94.583323) scale(40.843785 152.071591)"><ellipse fill="#e3f0fb" fill-opacity=".501961" cx="0" cy="0" rx="1" ry="1" /></g><g transform="translate(39.613754 5.093048) rotate(341.048010) scale(175.390402 36.152464)"><ellipse fill="#2e4a15" fill-opacity=".501961" cx="0" cy="0" rx="1" ry="1" /></g><ellipse fill="#546042" fill-opacity=".501961" cx="252" cy="129" rx="100" ry="60" /><g transform="translate(171.996992 41.035160) rotate(46.636206) scale(36.104675 82.467951)"><ellipse fill="#e5dfe7" fill-opacity=".501961" cx="0" cy="0" rx="1" ry="1" /></g><ellipse fill="#682707" fill-opacity=".501961" cx="102" cy="127" rx="15" ry="30" /><path fill="#3e3e2a" fill-opacity=".501961" d="M166.519226 158.661285 166.989968 220.760019 163.191636 231.79487 152.743567 183.048562z" /><path d="M0 0h2048v2048H0z" fill="#c6aa8e" /><ellipse fill="#0f3520" fill-opacity=".501961" cx="255" cy="97" rx="18" ry="32" /></g></svg>