<svg xmlns="http://www.w3.org/2000/svg" viewBox="0 0 2048 1365"><filter id="b"><feGaussianBlur stdDeviation="12" /></filter><path d="M0 0h2048v1365H0z" fill="#b4855a" /><g filter="url(#b)" transform="scale(8.000000) translate(0.5 0.5)"><g transform="translate(127.499607 153.344131) rotate(176.346629) scale(247.609371 39.049754)"><ellipse fill="#0b0000" fill-opacity=".501961" cx="0" cy="0" rx="1" ry="1" /></g><g transform="translate(136.564300 49.504795) rotate(356.726979) scale(135.140090 70.692217)"><ellipse fill="#ffdc9f" fill-opacity=".501961" cx="0" cy="0" rx="1" ry="1" /></g><g transform="translate(249 119) rotate(331) scale(37 53)"><path d="M0 0h2048v1365H0z" fill="#000" /></g><g transform="translate(160.068667 60.740375) rotate(256.453962) scale(35.372673 50.548344)"><ellipse fill="#ffe9ba" fill-opacity=".501961" cx="0" cy="0" rx="1" ry="1" /></g><g transform="translate(154.576038 131.088193) rotate(147.670633) scale(52.063368 26.939986)"><ellipse fill="#c2601d" fill-opacity=".501961" cx="0" cy="0" rx="1" ry="1" /></g><g transform="translate(28.619874 150.469813) rotate(19.807194) scale(126.983107 33.609250)"><ellipse fill="#2e170c" fill-opacity=".501961" cx="0" cy="0" rx="1" ry="1" /></g><path fill="#e4772f" fill-opacity=".501961" d="M-16 52l183 73-178-14z" /><ellipse fill="#41200d" fill-opacity=".501961" cx="211" cy="163" rx="55" ry="48" /></g></svg>