<svg xmlns="http://www.w3.org/2000/svg" viewBox="0 0 1365 2048"><filter id="b"><feGaussianBlur stdDeviation="12" /></filter><path d="M0 0h1365v2048H0z" fill="#72534a" /><g filter="url(#b)" transform="scale(8.000000) translate(0.5 0.5)"><ellipse fill="#87b4e4" fill-opacity=".501961" cx="76" cy="28" rx="169" ry="64" /><g transform="translate(78.126423 186.760123) rotate(174.939750) scale(169.000000 94.193441)"><ellipse fill="#681d00" fill-opacity=".501961" cx="0" cy="0" rx="1" ry="1" /></g><g transform="translate(72.602117 188.900738) rotate(195.207288) scale(45.785631 41.761841)"><ellipse fill="#ff8e3c" fill-opacity=".501961" cx="0" cy="0" rx="1" ry="1" /></g><g transform="translate(165.852276 154.476592) rotate(-32.312011) scale(33.421801 71.627416)"><ellipse fill="#00080c" fill-opacity=".501961" cx="0" cy="0" rx="1" ry="1" /></g><g transform="translate(3.029698 154.420999) rotate(186.941878) scale(25.285774 51.509837)"><ellipse fill="#000206" fill-opacity=".501961" cx="0" cy="0" rx="1" ry="1" /></g><ellipse fill="#6d5b76" fill-opacity=".501961" cx="82" cy="216" rx="43" ry="16" /><g transform="translate(83.524590 179.366431) rotate(162.972003) scale(36.288125 19.720737)"><ellipse fill="#ff8d26" fill-opacity=".501961" cx="0" cy="0" rx="1" ry="1" /></g><g transform="translate(71 149) rotate(89) scale(49 85)"><path d="M0 0h1365v2048H0z" fill="#b13700" /></g></g></svg>