<svg xmlns="http://www.w3.org/2000/svg" viewBox="0 0 2048 1365"><filter id="b"><feGaussianBlur stdDeviation="12" /></filter><path d="M0 0h2048v1365H0z" fill="#161e20" /><g filter="url(#b)" transform="scale(8.000000) translate(0.5 0.5)"><g transform="translate(114.481479 95.145243) rotate(248.919630) scale(29.618930 41.582345)"><ellipse fill="#d8d1ff" fill-opacity=".501961" cx="0" cy="0" rx="1" ry="1" /></g><g transform="translate(73.176241 87.451813) rotate(127.142093) scale(40.359966 16.879115)"><ellipse fill="#4a5b72" fill-opacity=".501961" cx="0" cy="0" rx="1" ry="1" /></g><g transform="translate(183.401415 133.722416) rotate(28.868814) scale(49.467360 174.413258)"><ellipse fill="#000200" fill-opacity=".501961" cx="0" cy="0" rx="1" ry="1" /></g><path fill="#000" fill-opacity=".501961" d="M-16 185V-16H131z" /><path fill="#b1abff" fill-opacity=".501961" d="M159 71 79 108l26-43z" /><g transform="translate(105 115) rotate(282) scale(16 49)"><path d="M0 0h2048v1365H0z" fill="#b0a1ff" /></g><ellipse fill="#000604" fill-opacity=".501961" cx="10" cy="169" rx="156" ry="57" /><g transform="translate(139 95) rotate(208) scale(12 49)"><path d="M0 0h2048v1365H0z" fill="#b7a7ff" /></g></g></svg>