<svg xmlns="http://www.w3.org/2000/svg" viewBox="0 0 2048 2048"><filter id="b"><feGaussianBlur stdDeviation="12" /></filter><path d="M0 0h2048v2048H0z" fill="#979b92" /><g filter="url(#b)" transform="scale(8.000000) translate(0.5 0.5)"><ellipse fill="#17300b" fill-opacity=".501961" cx="0" cy="124" rx="175" ry="52" /><ellipse fill="#d4ddea" fill-opacity=".501961" cx="162" cy="236" rx="226" ry="73" /><g transform="translate(154.172209 188.855944) rotate(34.706183) scale(19.949198 32.407144)"><ellipse fill="#202b23" fill-opacity=".501961" cx="0" cy="0" rx="1" ry="1" /></g><ellipse fill="#e6eaf4" fill-opacity=".501961" cx="237" cy="166" rx="32" ry="76" /><g transform="translate(18.443651 136.136883) rotate(40.507474) scale(51.176543 27.823006)"><ellipse fill="#051100" fill-opacity=".501961" cx="0" cy="0" rx="1" ry="1" /></g><path d="M0 0h2048v2048H0z" fill="#000" /><g transform="translate(46.204278 65.580595) rotate(124.110659) scale(33.571353 75.294869)"><ellipse fill="#b4a68c" fill-opacity=".501961" cx="0" cy="0" rx="1" ry="1" /></g><g transform="translate(231.580480 46.051345) rotate(160.962623) scale(28.629894 33.091427)"><ellipse fill="#817119" fill-opacity=".501961" cx="0" cy="0" rx="1" ry="1" /></g></g></svg>