<svg xmlns="http://www.w3.org/2000/svg" viewBox="0 0 2048 2048"><filter id="b"><feGaussianBlur stdDeviation="12" /></filter><path d="M0 0h2048v2048H0z" fill="#a7a292" /><g filter="url(#b)" transform="scale(8.000000) translate(0.5 0.5)"><g transform="translate(162.586484 54.751727) rotate(79.935896) scale(68.355275 133.526593)"><ellipse fill="#7a5e30" fill-opacity=".501961" cx="0" cy="0" rx="1" ry="1" /></g><g transform="translate(55.875324 207.250953) rotate(62.113507) scale(95.514823 69.414827)"><ellipse fill="#ebebee" fill-opacity=".501961" cx="0" cy="0" rx="1" ry="1" /></g><ellipse fill="#c7e9ff" fill-opacity=".501961" cx="222" cy="171" rx="86" ry="41" /><g transform="translate(130.367960 67.240222) rotate(248.171746) scale(35.912318 22.488488)"><ellipse fill="#ff4d00" fill-opacity=".501961" cx="0" cy="0" rx="1" ry="1" /></g><g transform="translate(181.629674 255.000000) rotate(262.674521) scale(15.616012 93.563242)"><ellipse fill="#f6ece6" fill-opacity=".501961" cx="0" cy="0" rx="1" ry="1" /></g><ellipse fill="#fffbbc" fill-opacity=".501961" cx="154" cy="54" rx="7" ry="29" /><g transform="translate(49 63) rotate(179) scale(120 106)"><path d="M0 0h2048v2048H0z" fill="#8a9a7b" /></g><ellipse fill="#435740" fill-opacity=".501961" cx="194" cy="40" rx="22" ry="48" /></g></svg>