<svg xmlns="http://www.w3.org/2000/svg" viewBox="0 0 2048 2048"><filter id="b"><feGaussianBlur stdDeviation="12" /></filter><path d="M0 0h2048v2048H0z" fill="#a9aea2" /><g filter="url(#b)" transform="scale(8.000000) translate(0.5 0.5)"><g transform="translate(230.489100 9.004292) rotate(105.324033) scale(79.541047 141.533504)"><ellipse fill="#546438" fill-opacity=".501961" cx="0" cy="0" rx="1" ry="1" /></g><g transform="translate(188.864950 217.177123) rotate(222.758104) scale(72.004190 93.793762)"><ellipse fill="#ede6f6" fill-opacity=".501961" cx="0" cy="0" rx="1" ry="1" /></g><g transform="translate(37.922555 160.849823) rotate(-2.456547) scale(61.864155 59.740860)"><ellipse fill="#e7e3ef" fill-opacity=".501961" cx="0" cy="0" rx="1" ry="1" /></g><g transform="translate(4.057135 8.799921) rotate(152.838464) scale(32.967028 54.168095)"><ellipse fill="#275720" fill-opacity=".501961" cx="0" cy="0" rx="1" ry="1" /></g><ellipse fill="#474b20" fill-opacity=".501961" cx="249" cy="14" rx="32" ry="88" /><g transform="translate(122.428470 169.236198) rotate(220.522279) scale(17.761396 19.977885)"><ellipse fill="#3a4e30" fill-opacity=".501961" cx="0" cy="0" rx="1" ry="1" /></g><ellipse fill="#929d7f" fill-opacity=".501961" cx="126" cy="43" rx="98" ry="98" /><path fill="#c8d0eb" fill-opacity=".501961" d="M190.19534 68.448365 203.957454 73.732093 214.637584 3.400469 236.853534 231.220714z" /></g></svg>