<svg xmlns="http://www.w3.org/2000/svg" viewBox="0 0 2048 2048"><filter id="b"><feGaussianBlur stdDeviation="12" /></filter><path d="M0 0h2048v2048H0z" fill="#a3a598" /><g filter="url(#b)" transform="scale(8.000000) translate(0.5 0.5)"><g transform="translate(118.522485 235.864187) rotate(191.176853) scale(132.401057 49.709681)"><ellipse fill="#e4f2fe" fill-opacity=".501961" cx="0" cy="0" rx="1" ry="1" /></g><g transform="translate(19.635898 20.915643) rotate(165.688019) scale(123.731374 27.519120)"><ellipse fill="#2f4b16" fill-opacity=".501961" cx="0" cy="0" rx="1" ry="1" /></g><g transform="translate(239.500992 116.848192) rotate(261.992346) scale(46.449872 90.905681)"><ellipse fill="#4c5d40" fill-opacity=".501961" cx="0" cy="0" rx="1" ry="1" /></g><g transform="translate(163.719309 45.532617) rotate(42.104984) scale(32.777524 74.845998)"><ellipse fill="#e9e4ed" fill-opacity=".501961" cx="0" cy="0" rx="1" ry="1" /></g><path fill="#6b2908" fill-opacity=".501961" d="M111 158 74 125l40-38z" /><path d="M0 0h2048v2048H0z" fill="#2c321b" /><ellipse fill="#968968" fill-opacity=".501961" cx="197" cy="156" rx="88" ry="29" /><path d="M0 0h2048v2048H0z" fill="#73553f" /></g></svg>