<svg xmlns="http://www.w3.org/2000/svg" viewBox="0 0 2048 2048"><filter id="b"><feGaussianBlur stdDeviation="12" /></filter><path d="M0 0h2048v2048H0z" fill="#a1aba3" /><g filter="url(#b)" transform="scale(8.000000) translate(0.5 0.5)"><g transform="translate(144.716740 68.540033) rotate(91.054749) scale(35.533313 200.210483)"><ellipse fill="#dbd9c8" fill-opacity=".501961" cx="0" cy="0" rx="1" ry="1" /></g><g transform="translate(240.485838 133.129438) rotate(91.503290) scale(21.184309 72.221350)"><ellipse fill="#4a5f1d" fill-opacity=".501961" cx="0" cy="0" rx="1" ry="1" /></g><g transform="translate(126.633421 124.339765) rotate(150.282914) scale(11.677002 70.146539)"><ellipse fill="#0bbdc5" fill-opacity=".501961" cx="0" cy="0" rx="1" ry="1" /></g><ellipse fill="#73757a" fill-opacity=".501961" cx="22" cy="218" rx="35" ry="65" /><g transform="translate(255 8) rotate(353) scale(22 27)"><path d="M0 0h2048v2048H0z" fill="#000" /></g><g transform="translate(166.595702 181.645087) rotate(-127.118464) scale(87.701049 23.158533)"><ellipse fill="#5aa7ae" fill-opacity=".501961" cx="0" cy="0" rx="1" ry="1" /></g><path fill="#b39169" fill-opacity=".501961" d="M-6 1-14 61 121 20z" /><path fill="#0f3b3c" fill-opacity=".501961" d="M30 138l1 38 17-60z" /></g></svg>