<svg xmlns="http://www.w3.org/2000/svg" viewBox="0 0 2048 1365"><filter id="b"><feGaussianBlur stdDeviation="12" /></filter><path d="M0 0h2048v1365H0z" fill="#a69e9a" /><g filter="url(#b)" transform="scale(8.000000) translate(0.5 0.5)"><g transform="translate(215.333711 24.943648) rotate(203.550561) scale(105.533939 18.875630)"><ellipse fill="#4a2200" fill-opacity=".501961" cx="0" cy="0" rx="1" ry="1" /></g><g transform="translate(17.804758 8.404574) rotate(320.106232) scale(120.429369 71.093795)"><ellipse fill="#f6fdff" fill-opacity=".501961" cx="0" cy="0" rx="1" ry="1" /></g><ellipse fill="#5e5342" fill-opacity=".501961" cx="251" cy="16" rx="22" ry="101" /><g transform="translate(99 86) rotate(-67) scale(22 30)"><path d="M0 0h2048v1365H0z" fill="#2a2b26" /></g><g transform="translate(167.306929 161.315808) rotate(155.724732) scale(95.334186 20.969439)"><ellipse fill="#c1c1ce" fill-opacity=".501961" cx="0" cy="0" rx="1" ry="1" /></g><path fill="#000905" fill-opacity=".501961" d="M105 95l1 26 14 16z" /><path fill="#5a5150" fill-opacity=".501961" d="M51 155-16 168l94 17z" /><g transform="translate(113.025921 45.326196) rotate(189.547430) scale(20.900826 35.102553)"><ellipse fill="#c8c0ba" fill-opacity=".501961" cx="0" cy="0" rx="1" ry="1" /></g></g></svg>