<svg xmlns="http://www.w3.org/2000/svg" viewBox="0 0 2048 1365"><filter id="b"><feGaussianBlur stdDeviation="12" /></filter><path d="M0 0h2048v1365H0z" fill="#8698a4" /><g filter="url(#b)" transform="scale(8.000000) translate(0.5 0.5)"><g transform="translate(166.405652 127.081191) rotate(265.227090) scale(31.598207 186.435582)"><ellipse fill="#000c15" fill-opacity=".501961" cx="0" cy="0" rx="1" ry="1" /></g><g transform="translate(143.277911 25.446378) rotate(264.699132) scale(66.565167 255.000000)"><ellipse fill="#f0f7ff" fill-opacity=".501961" cx="0" cy="0" rx="1" ry="1" /></g><ellipse fill="#cde1ec" fill-opacity=".501961" cx="225" cy="119" rx="45" ry="15" /><g transform="translate(110.852812 95.205517) rotate(79.395157) scale(33.485690 16.351058)"><ellipse fill="#023347" fill-opacity=".501961" cx="0" cy="0" rx="1" ry="1" /></g><ellipse fill="#00141c" fill-opacity=".501961" cx="159" cy="144" rx="255" ry="12" /><g transform="translate(221.816548 94.746466) rotate(349.257835) scale(88.064364 9.467623)"><ellipse fill="#000a18" fill-opacity=".501961" cx="0" cy="0" rx="1" ry="1" /></g><ellipse fill="#dce3e7" fill-opacity=".501961" cx="71" cy="104" rx="23" ry="12" /><path fill="#082b3d" fill-opacity=".501961" d="M19.062426 86.22539 16.005126 97.298224 22.230173 152.01815-16 125.748354z" /></g></svg>