<svg xmlns="http://www.w3.org/2000/svg" viewBox="0 0 2048 1365"><filter id="b"><feGaussianBlur stdDeviation="12" /></filter><path d="M0 0h2048v1365H0z" fill="#161e20" /><g filter="url(#b)" transform="scale(8.000000) translate(0.5 0.5)"><g transform="translate(112.152100 93.730300) rotate(436.006306) scale(32.364770 42.394947)"><ellipse fill="#c9c5ff" fill-opacity=".501961" cx="0" cy="0" rx="1" ry="1" /></g><g transform="translate(77 82) rotate(212) scale(30 76)"><path d="M0 0h2048v1365H0z" fill="#3d4a5a" /></g><g transform="translate(204.769258 115.989170) rotate(129.072789) scale(119.305727 56.881611)"><ellipse fill="#000300" fill-opacity=".501961" cx="0" cy="0" rx="1" ry="1" /></g><path d="M0 0h2048v1365H0z" fill="#b8b0ff" /><g transform="translate(31.949005 41.194581) rotate(34.738158) scale(47.231751 244.502920)"><ellipse fill="#000" fill-opacity=".501961" cx="0" cy="0" rx="1" ry="1" /></g><path fill="#b4abff" fill-opacity=".501961" d="M107.231206 61.826335 101.158721 123.572037 76.156105 115.30633 63.434989 136.362936z" /><ellipse fill="#000604" fill-opacity=".501961" cx="40" cy="158" rx="124" ry="41" /><path fill="#9e96fe" fill-opacity=".501961" d="M118.653148 128.970373 138.37994 120.116829 154.7759 74.978043 100.815532 117.696548z" /></g></svg>